<svg xmlns="http://www.w3.org/2000/svg" viewBox="0 0 513.44 1038.24"><title>smallselfportrait</title><g id="Lager_2" data-name="Lager 2"><g id="home"><g id="Lager_2-2" data-name="Lager 2"><g id="isabella_with_hat" data-name="isabella with hat"><path d="M487.54,421.76c2.82,10.91,8.2,20.31,14.55,29.29,1.54,2.2,3.58,4.43,4.05,6.89.53,2.71,2.15,6.31-.56,8.48-2.31,1.84-4.28-1.38-6.56-2-12.24-3.29-22.84-9.59-33.52-19.53a109.37,109.37,0,0,0,8.6,33.62c.77,1.72,2.28,3.28,2.59,5,.35,2.07.54,4.92-.59,6.29-2,2.29-3.72-.63-5.43-1.64-8.53-4.93-19.29-5.86-25.95-14.64.32,4.78,5.46,9.42,1.64,12.93s-8.54-1.38-12.8-2.49c-7.6-2-15.13-4.5-21.53-10.39,1,9.15,4.45,14.08,14,15.46a44.93,44.93,0,0,1,24.48,12,8.32,8.32,0,0,0,3.28,2.33c15,3.19,18.34,17.17,24.84,27.77,4.23,6.92,11.93,13.7,9.5,22.67-6.74,25.07,1.21,49.91-.1,74.8-1.1,20.89-1.31,41.87-4.82,62.54-2.91,17.16-.79,34.26-.46,51.36.28,14.17,1,28.38,2.28,42.49,2.51,27.89.64,56.06,4.46,84,1.25,9.19-1.24,18.84-1.33,28.29,0,10.19-4.34,20.18,0,30.68,2.56,6.22,8.93,10.25,9.32,17.8,0,1.26,2.13,1.51,0,3.89-2.52,2.74-.49,6,2.86,7.9,4.26,2.42,9.22,15.79,7.51,20.2-.38.95-1.23,2.46-1.89,2.48-8.64.13-5.84,6.56-5.92,11-.18,8.21.12,16.41.43,24.61,0,1.45.57,2.64-1.4,2.84s-2.51-.95-2.34-2.48c.56-5.07-2.23-9.72-.53-15.25s1.25-11.7-2.52-18.77c-4.79,11.25-14.31,8.92-22.53,9.71-16.08,1.54-18.47,4-17.77,20.25,0,1.36.56,2.69.58,4,0,1.77.6,4.17-2.43,4.12s-2.09-2.59-2.12-4.23c-.1-6,0-11.93,0-17.76-10.91,3-19.77-4-20.06-16.53v-1.64c-.56-18.05-1.64-19.15-20.3-18.35-16.54.71-18.23,3.5-12.5,19.28,2.53,7,9,4.69,13.65,6.56,2.1.82,5.89-.32,5.58,3.12s-3.89,2-6,1.84c-3.75-.38-7.43-1.49-11.17-2s-5.46-2.07-5.3-5.84a9.71,9.71,0,0,0-.66-3.19c-1.64-5.43.4-14.35-3.82-15.86-6.3-2.27-14.24.2-21.33,1.64-17.83,3.46-35.63,8.58-53.61,9.42-14.51.69-29.37-.3-44.05-.5-6.57-.09-13.8-1.93-19.4,1.12-7.36,4,2.69,12-2.79,17.31-3.08-3.28-1.64-7.79-1.78-11.94-.12-3.29-.53-4.52-4.66-4.11-14.44,1.43-28.6-.9-42.89-3.46A493.08,493.08,0,0,1,149.35,963c-9-2.59-9.32-1.64-7.89,8.1.75,5.22,3.51,12.73-1.89,15.18-8.07,3.64-15.91,10.78-26.43,7.46,1-3.28,2.87-4.49,5.58-4.59,6.56-.21,11.61-4.33,17.37-6.56,2.78-1.09,2.81-2.94,2.73-5.19,0-.27,0-.53,0-.8-2.23-16-2.25-16.11-19-15.33-7.63.37-15.24,1.79-22.87.76-3.07-.41-3.68,1.64-4.79,3.38-3.19,5.2-5.5,11.21-5.27,16.91.66,16.07-5.71,32-.51,48.16.43,1.33,1.77,4.13-1.44,4.53-3.73.45-1.2-2.71-2-3.94-2.07-3-1.17-6.32-1.31-9.52-.35-7.2-2.48-13-10.67-14.5-.1,9.84,3.15,19.15,4.69,28.69l-2.54.55c-2.1-7.8-4.46-15.53-6.22-23.38-2.52-11.32-4.25-12.65-15.71-12.49-12,.15-23.93-.44-35.85,1.64-4.42.77-6.57,1.95-5.89,6.56,1.16,8.75,1.9,17.59,6.08,25.65.51,1,1.91,2.54.36,3.54s-2.65,0-3.44-1.85c-2-4.73-5.25-9-4.68-14.56C8.71,1011.28-.1,1002.5,3.55,992c-8.67-16.16.57-29.78,6.2-43.9a13,13,0,0,0,1.44-7.7,16.41,16.41,0,0,1,2.69-12.48c5.2-6.94,5.58-14.47,5.81-22.56a100.42,100.42,0,0,1,6.68-35.83C29.25,862.41,29,854.6,28.66,847c-1-20.84,3.51-41,7.32-61.3,2.53-13.45.15-26.53-1-39.77a90.72,90.72,0,0,1,3.28-33.74,313.27,313.27,0,0,0,10.88-49.47c3-23.31,8.81-46.25,13.23-69.38,3.28-17,5.05-34.32,9.48-51,5.05-19,10.25-38.31,26.4-51.8,10.41-8.74,23.31-12.86,35.71-16.8,21.1-6.73,42.94-8.37,64.84-2,6.47,1.87,10.09-4.48,14.52-7.6,3.28-2.23,5.37-4.33,8.91.39.51-5.13.75-9.1,1.36-13,.25-1.64,1.08-3.28-.67-4.38s-2.81.73-3.94,1.73c-3,2.7-5.94,5.53-9.09,8.05-2.56,2.05-4.92,2.51-5.4-1.95a61.54,61.54,0,0,0-1.39-6.3c-2.49-11.49-2.44-11.49-12.47-4.58-5.84,4-11.84,7.76-17.88,11.49-1.49.92-3.28,2.7-5.17,1.15-1.51-1.3-1.31-3.43-.94-5.4,1.1-5.79,2.12-11.62,3.29-18.15-4.38-.36-6.93,2.86-10,4.48s-5.91,3.89-9.06,5.33-6.12,5.58-9.42,2.35c-2.95-2.89.12-6.43,1.27-9.73,2.8-8.09,5.28-16.41.13-24.49-10.5,8.82-20.77,17.6-31.17,26.11-1.81,1.48-4.22,4.61-7,1.64-2.21-2.39.48-4.52,1.64-6.56,5.76-10.28,8.75-21.52,11.34-32.81.28-1.26,2.22-3,0-4.17-1.64-.88-3,.66-4.3,1.64-8.91,6.88-17.8,13.77-26.74,20.59-2.21,1.64-4.76,5-7.43,2.76s0-5.6,1-8.32c5.51-14.35,16.65-25.45,23-39.28,8-17.4,15.06-34.84,16.55-54.61,1.94-25.91,1.87-52,6-77.7a5.27,5.27,0,0,0-2.23-5.62c-9.84-7.57-7.83-18.3-7.15-28.46.21-3.13,2-6,0-9.27a3.1,3.1,0,0,1,1.41-4.15l.15-.07c10.38-1.85,19.31-14.09,31.17-3.28,2-25.77,13.34-47,24.82-67.74,7.86-14.22,7.35-28.78,8.76-43.69.72-7.73,2.3-16.41,6.56-22.51,4.39-6.4,7.06-13.26,9.85-20.1a29.9,29.9,0,0,1,9.2-11.91c14.41-11.93,31.83-15.65,49.71-18,11.41-1.64,22.87-2.46,34.29-4.46a66,66,0,0,1,36.69,3.84,108.89,108.89,0,0,0,12.84,4.92c2.81.81,6.85,3.83,7.91-2.52.23-1.38,2.78-1.19,4.42-1.3a85.94,85.94,0,0,1,40.49,7.69c18.13,7.9,36.52,15.3,54.3,23.92,11.49,5.58,21.68,13.59,31.17,22.28S488.88,81,491.38,92.14c.77,3.4.24,7,4,9.29,2.18,1.36,2.1,4.62,1.41,6.76-3.72,11.38-2.18,23.87-7.29,34.89-2.21,4.78-1.64,9,.3,13.73,6.74,17.12,7,35.39,9,53.36.09.77-.73,1.87-.42,2.34,6,9.22-1.51,5.45-6.56,4.79,8.2,8.29,14.1,16.41,17.65,26.17,4.26,11.73,1.8,22.43-4.92,32.44-1.2,1.79-3.12,3.1-3,5.54.71,18.18-4,36.31-.29,54.56,1.87,9.2-1,18.39-1.45,27.61-.92,20.39,4.51,39.6,10.54,58.72,1.64,5.38,5.36,12.84,1.39,15.66s-8.37-4.39-12.58-7.36S491.69,424.58,487.54,421.76Zm-169.68,7.58c5.09,11.49,11.49,17,19.08,15.87-6.18-6-11.65-12.08-19.23-15.72-1.23-12.32-8.35-20.11-19.57-18.8C307.23,415.72,309.67,425.21,317.86,429.34ZM475.23,180.69c-6.46-1.27-1.64-7.08-4-10-.82-1-1.28-2.31-2.13-3.28-.2-.21-1.64.18-2,.67-2.32,2.78,4,16.75,8.2,18.23,5.41,8.35,4,17.49,3.13,26.58-.13,1.33-2.56,3,.12,3.94a9,9,0,0,0,4.81-.25c2.19-.54,1.64-2.41,1.46-4-.36-2.4-1.33-4.92-1.07-7.17C484.71,195.75,480.07,188.22,475.23,180.69ZM207.81,139c6.8-1.56,10.48-6.81,13.89-12.18,1.36-2.13-.56-2.6-2.33-2.64,5.27-2,7-7.3,10.34-11.07,1.25-1.41.64-2.43-.46-3.41a1.72,1.72,0,0,0-2.44-.06,1.63,1.63,0,0,0-.33.45c-3.28,8.65-12.92,10.48-18,16.65-6.38,7.58-10.35,17.05-15.9,25.58Zm195.35,15.8c4-5.09,7.27-5.11,10.89.69,2.68,4.26,6.38,7.9,10.47,12.84-.38-8.87-7.55-14.24-4.53-22.8a20.37,20.37,0,0,1-14.08,3.77c-5.92-.33-3.28,3-2.67,5.51,7.12,7.11,11.89,16,17.92,23.89a293.89,293.89,0,0,0,30.4,33.75c-.25-2.58-.38-5.4-1.84-6.94-13.13-14-23.36-30.29-35.93-44.71-2.81-3.28-5.73-6.41-10.62-6Zm71.51,809.67c-3.61-.69-3-3.28-2-5.41a15.2,15.2,0,0,0,.9-6.37c0-1.87-.52-3.11-2.75-3-1.76.13-3.86.77-3.45,2.56,1.44,6.22-.57,13.13,2.87,19.48,2.4-2.58,1.84-5.93,4.45-7.4-.13,6.56,1.11,14-9,14.27,1.5-7.53-.87-15-.44-22.51.12-2-.31-4.72-3.4-4.56s-3,2.59-3,4.82a98.34,98.34,0,0,0,1.64,21c.31,1.64-1.1,4.36,1.31,4.92,2.8.7,2.18-3.28,4.13-4.09-1.08,4.93-.26,7.27,5.83,7.35,8.2.1,15.6-.6,21.21-7.51a7.36,7.36,0,0,1,4.81-2.66c8.61,0,5.31-5.68,4.41-9.48-1.25-5.25-6.2-5.84-10.37-7.4-1.29,5.92-2.34,11.22-3.66,16.41-.44,1.77-1.37,3.93-3.7,3.59-1.64-.25-2.19-2-2.71-3.68-1.56-5.07-3.46-10-5.64-16.17-.64,2.74-1,4.26-1.35,5.77ZM413.59,394.48c-6.69-1.64-12.78,4-13.93,12.11-1.79,12.69,3.65,23.82,7.11,35.35,1.9,6.37,4.13,12.68,8.63,18.05,1.34-2,.31-3.51,0-5-2.23-11.61-5.37-23.15-6.48-34.86-.82-8.7-2.45-18.33,4.92-25.81a5,5,0,0,0-.3.76c-4.13,25.34,5.2,48.54,11.77,72.18,1.72,6.19,4.92,12.26,14.89,10.5-11.3-12.51-12.61-28.49-17.68-43.08-5.29-15.21-9.6-30.32-3.89-47.25a22.37,22.37,0,0,0-3.73,3.28A20.42,20.42,0,0,0,413.59,394.48Zm12.93,545.09c-1.28-5.14-.75-9.85,3.92-13.13a4.92,4.92,0,0,0,2-4.92c-.85-9.55-6.56-14.27-16.08-13.27a71.71,71.71,0,0,0-7.33.42c-8.4,1.79-17.21,2.56-24,8.76-4.71,4.3-9.16,7.58-15.26,1.78a7.23,7.23,0,0,0-7.76-.74,162.13,162.13,0,0,0-15.22,7.58,11.51,11.51,0,0,1-11.49.87,14.12,14.12,0,0,0-5.27-1.81c-8.9.31-17.81,1.25-26.74,1.38-5.58,0-8.2,3.38-6.82,7.61,2.44,7.22,1.13,14.59,2.64,21.82,2.48,11.82,3.28,13,14.94,13.83,4.93.38,5.17-.41,4.19-5.25-2.2-10.91-4.1-22.06-1.51-33.27a128.84,128.84,0,0,1,2.69,24.84c-.08,12,3.28,14.37,14.54,11.73,3.42-.8,3.16-1.33,1.91-4.64-3.64-9.68-1.85-19.69.1-29.53a72.16,72.16,0,0,1,1.1,14.45c.1,4.35-.18,8.68,1.17,13,2.2,7.06,7.43,4.42,11.32,3.14,4.92-1.64.65-4.25-.08-6.57a69.18,69.18,0,0,1-3.65-14.09c-.37-3.63-1.82-8,3-12.45a57.32,57.32,0,0,0,3.82,26.46c1.2,2.89,2,5.74,6.94,4.79,13-2.51,26.25-4.18,39.38-6.12,3.44-.52,4.77-1.52,2.95-5.35a37.38,37.38,0,0,1-4.25-18c.23-4.66.3-4.65,5.58-6.78-4.18,7.56-2,14.68,1.72,21.44,1.38,2.5.33,7.17,5.38,6.94,8.21-.39,16.15,2.4,24.25,3.29s9.85-1.14,6.45-9.08c-2.71-6.35-6.12-12.4-9.73-19.57-4.43,8.88,4.5,13.12,4.92,20.92l-10.07-10.8Zm26.81-40-.12-.23c.87,2.3,0,4.29-1.08,6.26-4.45,8.63-8.2,8.92-13.7,1-2-3-3.9-6-6.66-10.29-1,5.27-1.64,8.93.21,12.47a52.92,52.92,0,0,1,5.8,20.08c.65,6.56,4.64,12.58,8.3,18.34,1.56,2.46,3.28,1.78,5.56,1.33,11.48-2.23,23-4.59,34.8-3.69,1.37.12,3.36.9,4.13-1.64A19.44,19.44,0,0,1,484,932.3c-.74-3.68-2.27-5.51-6-2.91a2.23,2.23,0,1,1-3.23-3.08,2.25,2.25,0,0,1,1.25-.66c9.1-.39,5.75-6.76,5.1-11.17a30.79,30.79,0,0,1,.24-11.16c1.92-9.84,5-19.86,3.42-29.84-4.68-29.53-3.05-59.19-4.93-88.76-1.64-25.84-2-51.78-2.88-77.63-1.64.42-3.48.85-5.27,1.33-4.51,1.21-9.27-.37-10.45-4-1.31-4,1.64-7.42,7-6.14a1.62,1.62,0,0,0,1.31-.74c2.73-6.44,8.94-9.61,10-18.72,3.12-26.75,1.79-53.37,2-80v-2.46a2.41,2.41,0,0,0-2.35-2.47,1.38,1.38,0,0,0-.29,0c-1.51,0-3.2,1-2.94,2.13,2,8.2-5.27,5.61-8.55,7.2-5.05,2.43-4.92-3.2-6.1-5.33-2-3.74,2.05-2.4,3.66-3,4-1.53,8.05-3.06,12.14-4.43,1.23-.41,3.15-.13,3.17-1.82.13-9.29,0-18.58,0-27.9a32.85,32.85,0,0,0-8.45,9c-2,2.79-4.42,2.84-7.06.9-6.23-4.56-5.79-20.2.72-24,1.17-.69,2.53-1.3,3.76-.15s.43,2.49-.62,3.36c-4,3.28-3.45,7.76-3,12.11a3.58,3.58,0,0,0,3,3.44c2,.22,3-2.08,3-3.19.13-4.75,4.8-9.09.95-14.21a3,3,0,0,1,.67-4.19,3,3,0,0,1,1-.49c2.21-.65,2.07,1.87,3,3,1.64,2.1.53,7.11,5.78,5.78-3.19-6.25-6.4-12.14-9.22-18.21s-5.7-9.85-12.41-4.53c-1.32,1-3.2,3.1-4.2-.46-.72-2.58-.09-4.18,2.89-4.51,1.76-.2,3.84.7,5.46-1.5-3.13-6.31-7.67-10.73-15.07-11.66-1.28-.16-3.5-.74-3.56-1.31-1.1-9.85-10-10.62-16.41-13.37-8.88-3.81-18.33-7-29.19-3.84a16,16,0,0,0,2.91,1.83c2.74.71,4.92,2.28,3.28,5.09s-3.94.43-5.66-.44c-6.35-3.28-15.65-4.43-9.85-16.84-2.57,1.65-4.15,2-4.24,2.7-1.12,8-7.49,11.2-13,15.66-3.54,2.89-8.38,3.73-11,7.68-5.13.61-9.37,4-15.57,3.92a141.2,141.2,0,0,0,13,13.46c5.17,4.92,6.56-1.33,8.92-2.28,4-1.65-.54-3.48-1.8-4.93-2.58-3-7.52-4.92-4.71-10.32,4.92.56,6.56,5.24,9.84,7.85,4.63,3.7,5.58-.92,7.68-2.45,2.82-2,1.89-3.87-1-5.23-1.64-.76-4-1.81-2.49-4.12.93-1.46,2.92-1.08,4.43,0,4.39,3.05,7.86,1.54,11.48-1.82,3-2.86,3.28-2.59,7.58.92-11,6.95-18.49,17.62-28.32,25.71-18,14.86-41,16.86-62.52,19.8-35.44,4.82-67-7.43-96-28-17.23-12.23-29.53-28.63-43.16-44-2.28-2.57-3.76-5.1-7.85-4.26-14.76,3-29.45,6.22-43.6,12.14-20.23,8.47-32.11,23.21-38.26,43.69-1.37,4.5-.4,6.27,3.28,8.83,5.58,3.9,13.12,5.66,16.65,13.53-5.09-1-8.38,3.86-13.83,1a18.05,18.05,0,0,1-9.62-10.73c-3.54,11.34-3.44,22.89-7.3,35.31l10-5.47a13.46,13.46,0,0,1,1.07,12.54c-.9,2.49,1.44,7.77-2.68,7-4.74-.83-2.24-5.54-1.27-8.81a15.52,15.52,0,0,0,.24-2.64c-5.79.41-8.65,2.69-9.61,8.78C65.4,605.5,61.85,623,58.62,640.61c-.59,3.28,0,5.38,3.53,7,5.18,2.46,9.73,6,10,14.27,4.2-13.3,10-4.23,14.92-2.7,4.41,1.34,4.15,6.82,2.93,8.36-2.72,3.51-4.92,9.85-9.68,9.36-7.26-.73-8.82-7.55-9.15-14.39-2.43,1.26-4.2,2.75-6.15,3.08-10.49,1.77-14.06,8.3-13.13,18.2a3.13,3.13,0,0,1-.33,1.64c-9.23,18.36-12.6,38-11.73,58.6,3.5,0,6-2.36,8.9-3.74,2.33-1.12,4.28-1.21,4.92,2,1,5.69,4.69,10.68,4.92,16.41-8.06,3.16-11.22-6.11-17.83-6.57,3.15,13.77.88,27-1.43,40C36.56,807.61,33.72,823,33.5,838.9c-.14,10.79.51,19.21,13.13,21.52a5.75,5.75,0,0,1,2.62,1.86c1,1.05,1.56,3.18.17,3.41-5.84,1-6.78,7.53-11.32,9.55-3.46-1.55-3.19-5.78-5.61-8.45C24.28,882,25.83,898.11,25.66,914A4.28,4.28,0,0,0,28,917.83c4.5,3.16,9.65,6.56,6.65,13.12-2.73,6-7.62,9.21-14.52,6.89-2-.65-2.6-.78-3.29,1.53-2.34,8.89-6.59,17.1-4.1,26.94,1.84,7.27-1.88,15.09,1.18,22.59.89,2.2,0,4.45-3.28,3.59-2.06-.5-3.87.87-2.38,2.37,3.61,3.62,8.21.55,12.44.78,3.89.22,3.45-2.46,3.28-4.92a74.79,74.79,0,0,1,2.51-25.87c2.35-7.73-1.64-7.7-6.56-7.89-1.64,0-4.23,1.9-4.78-.66s2.2-3.43,4.48-3.28c8.21.36,16.28-.38,24.45.49,12.16,1.3,24.41,1.81,38.69,2.77-5-4-8.13-6.56-12.08-7.84-2.74-.93-5.23-3.28-3.76-6.23,3.79-7.53,4.15-16.41,9.26-23.33s9-14.6,8.2-24c-.62-7.09,1.64-14,3.64-20.81,3.92-13.12,8.44-26.25,11-39.82,1.64-8.61,5.79-18.49-1.46-26.53-5.09-5.66-4.28-11.15-2-17.06,1.37-3.53,3.83-6.56,5.16-10.15,3.29-8.58,11-14.88,11.93-24.61,1.87-20.71,1-41.68,6.22-62,.61-2.32.67-4.25-3.05-3.58a5.16,5.16,0,0,1-6.19-3.85,5.49,5.49,0,0,1-.13-1.07c-.38-4,2.23-7.71,4.69-9.85,3.4-3,3.61,3.2,6,4a233.48,233.48,0,0,0,5.34-54.14c0-3.92-.27-7.29-2.77-10.58-3.54-4.68-6.56,1.54-10.3.24,2.52-6.72,5.56-11,12.93-5.25.85-4.92-1-10.27,5.08-13.94.41,29.35.56,57.65-4.66,86h5.91c3.74.18,7.55-.37,9.42,4.52a10.09,10.09,0,0,1-2,10.59c-3,3.29-8.2,4.65-11.91,1.64-6-4.65-6.1,1.22-6,3.48.22,8.53-2,16.82-2,25.27.17,18.18,1.65,36.65-13.76,51.48a14.87,14.87,0,0,0,3.82.36c10.09-2.74,10.22-2.77,11.49,7.39.29,2.52.87,3.87,3.43,4.57,1.64.48,4,1.64,3,4a9.33,9.33,0,0,1-3.58,4.3c-2.34,1.46-4.36-.43-5.41-2.17-3-4.92-8.6-6.15-12.7-9.43-2.62-2.1-3.87-.82-5.13,1.18-3.28,5.21,2.67,23.92,8.64,26.25,2.63,1,6.37,2.46,5.42,4.64-1.76,4-4.93.39-7.63-.26-.71-.18-1.53-.87-2.58,1.11-.75,7.09-1.64,15.1-2.46,23,7.09-4.66,11.06-4.08,15.8,2,4.15,5.37.1,9.35-3,11.86-6.94,5.55-10.37-1.31-14.31-6-.85,1.25-1.79,2-2,3-3,15.29-11.11,29.53-8.61,45.94.47,3.1-1.33,5.66-2.55,8.43-4.2,9.63-10.68,18-13.12,28.68-1.64,7.09,3.87,8.2,7.28,9.75,4.74,2.19,4.37-3,5.34-5.78,3.83-11.07,7.71-22.13,13.78-32.39-5.42,13.67-10,27.49-11,42.45a72.52,72.52,0,0,0,7.08,2.9c2.65.81,4.47.54,4.75-3.28.83-11.22,5.39-21.33,9.51-31.7,2.81-7.05,5.83-13.25,15.26-10.69,2.07.55,3.76-2.65,5.81-1.07-1.64,3.89-5.27,1.51-8,2.61a11.17,11.17,0,0,0-5.4,3.28c-8.68,9.93-10.71,22.28-13.81,34.19a5.63,5.63,0,0,0,3.7,7.05,5.72,5.72,0,0,0,2.29.22c4.36-.2,8.74-.58,13.12-.36,4,.19,5.53-.67,5.63-5.24a42.43,42.43,0,0,1,5.76-21.85c.9,8-3,14.09-2.71,20.74.13,2.43-1.26,6,3.1,6.27,4.63.27,3-3.43,3.48-5.83,1.64-9.35,2.13-19,6.56-28.5,2,2.66.95,4.27.59,6.14-1.64,8.2-2.85,16.54-4.08,24.82-.35,2.27,0,4.38,3.05,4.83s3.77-1.05,4.08-3.61A69,69,0,0,1,152.52,940c1.64-5.25-.82-12.09,6.17-17-1.37,7-2.27,12.82-3.63,18.49-3.28,13.9-3.43,13.88,8.65,19.39.19.09.52-.09,1.29-.26.26-12.11,2.87-23.92,6.56-36.39a4.72,4.72,0,0,1,1.32,5.15c-1.48,8.21-2.78,16.57-4.29,24.84-1,5.52,5.44,6.11,6.47,10.23,3.49-2.37,1.07-5.88,1.64-8.82a20,20,0,0,0,0-3.28c.2-4.59.75-9,5.1-11.78-2.21,6.66-2.18,13.36-2.1,20.12,0,4.49,2.59,5.26,6.33,5.41,4.52.2,3.84-2.84,3.75-5.44-.33-8.85,1.13-17.44,2.46-26.91,3.75,2.74,2.08,5.53,2,7.94-.28,5.17-1,10.32-1.07,15.49-.21,11.88.29,12.22,12.76,11-3.28-11.49-1.79-28.7,3.53-32.62-2.25,8.84-1.82,17.29-1.48,25.66.17,4.09.68,9.29,6.57,9.7,8.4.57,16.85.75,25.28.85,4.13,0,7.23-1,6-6.56s-.95-12-.82-17.79c.11-5-3.66-10.89.89-15.88,2,1.25,1.32,2.72,1.37,3.94.36,10.06-.14,20.15,1.64,30.15.43,2.48.68,4.07,3.74,3.86,4.47-.33,1.5-3.05,1.55-4.61a50.33,50.33,0,0,0-1.36-8.8,41.18,41.18,0,0,1,1.46-19.34c-.71,9.85,3.28,19.18,3.1,28.88,0,2.93,2.34,3.85,5.23,3.82,4.48,0,2.51-3.28,2.66-5.32.11-1.64-.9-3.28-.82-4.82.42-7.23-3.07-15.09,3.07-22.18-.63,9.84-.87,19,1,28.07.6,2.92,1.64,5.86,4.92,5.14,9.05-1.92,18.34.08,27.63-1.64a43.22,43.22,0,0,1-5.09-19c-.39-6.25-1.46-12.44-2.05-18.67-.15-1.48-.12-2.81-1.85-3s-2.2,1.38-2.12,2.7c.64,10,1.33,20.05,2.15,30.06.13,1.64,3.71,2.08,1.82,4.55a2.63,2.63,0,0,1-2.15.73c-2.77-.57-2.77-3-3-5.13-1.33-10.45-2.79-20.9-2.25-31.57-12.09,3.43-23.5,1.74-34.46-2.62a35.88,35.88,0,0,0-13.38-2.56c-12.1-.17-24,0-35.46-6.07a35,35,0,0,0-26.15-3.17c-3,.85-6.37,1.31-8.65-2.08,2.53-2.27,4.71,1.18,6.93.15.8-.38,3.51-1,1.64-2.33-5.91-4.06-4.69-12.85-11.32-16.2a2.6,2.6,0,0,1-1.64-3.28,2.19,2.19,0,0,1,2.53-1.76,2.42,2.42,0,0,1,.75.28c5.87,4.3,13.12,1.65,19.31,3.93,4.82,1.64,4.81,3.85,1.23,6.71A16.88,16.88,0,0,0,180.75,912c10.63-1,19.69,3.39,29.25,5a5.86,5.86,0,0,1,.74.41c8.21,6.89,17.92,2.79,27.27,4.4-.9-5.07-4.1-7.75-6.78-10.72-1.34-1.49-2.74-3-1.34-4.92a4,4,0,0,1,5-1.52c4,1.41,8.12.54,12.17.39,2,0,3.71-2.12,5.5.94,1.64,2.75,0,3.82-.87,6-1.28,3.51-6.24,9,.93,11.63a74.2,74.2,0,0,0,23,4.92c2.67.08,6,.76,7.47-2.05s-2-4-3.17-6c-1.51-2.73-2.15-6-6.09-6.47a1.82,1.82,0,0,1-1.42-2.14,1.44,1.44,0,0,1,.13-.4c.41-1.41,1.64-1.1,2.67-1.23,5.79-.77,11.76,1.2,17.57-1.94,1.49-.82,5.28,0,5.12,5.62s-4,6.71-7.2,10.66c8.79.52,15.76-2.84,23.18-2.61,5.68.18,6.73-2.69,2.05-6.56-1.51-1.27-2.79-2.63-1.84-4.83s3.1-1.78,4.93-1.83c2.92,0,5.85,1.23,8.74-.69a5.36,5.36,0,0,1,7.45.69c1.74,2.15.11,4.21-1.25,6.56-3.66,6.19-.75,10.32,6.56,10,9.44-.44,13.36-6,10.37-14.61-.62-1.79-1.15-3.61-1.85-5.37-1.51-3.76.26-5.71,3.59-4.43a14.46,14.46,0,0,0,10.12.35,5.61,5.61,0,0,1,6.83,3.13c1.64,3.41-2.07,3.12-3.53,3.84a3.6,3.6,0,0,0-2.21,3.85c0,1.94,1.64,2,2.92,2,2.44,0,4.05,1.64,5.74,2.84,6.94,5.13,10.62-1.56,14.44-4.71,1.74-1.43-2.79-4.36-4.14-6.84-.36-.66-1.55-.95-1.78-1.64-.61-1.77-3.63-2.86-2.12-5s3.28-3.43,6.28-2a8.5,8.5,0,0,0,7.91-.54c3-1.82,6-2.31,7.74.71,2,3.38-1.41,4.48-3.82,5.74a3.8,3.8,0,0,0-1.64,4.92c1.18,2.84,3.28.85,4.78.16a30.19,30.19,0,0,1,18.19-3c2.2.33,7.71,1.22,7.78-3.28.19-11.91,5.92-22.38,7.9-33.76,1.38-7.85.2-14.62-7.39-19-7.11-4.1-7.78-10.66-6.57-17.78a86.12,86.12,0,0,1,2.48-9.37c1.16-3.84-.85-5.77-4-4.51-4.83,1.95-9.54-1.64-14.11.56-1.35.67-3.5.51-3.4-.77.25-3.42-.21-7.09,1.76-10.21,1-1.64,2.77-2.15,4.13-.67,4.18,4.56,10.27,5.38,15.44,8.12,6-17.41-2.46-35.27,1.28-52.4,3.84-17.59-.31-35.56,4.69-52.9-5.49-.41-8.07,10-14,3.79a9.84,9.84,0,0,1-.25-12.22c4.48-4.74,9.85-.66,14.93,2.05a31.76,31.76,0,0,0,.54-3.36c1.05-29.35-3.54-58.62-1.23-88,.22-2.56-1.51-6.56,2.36-6.56s2,4.25,2,6.56c.18,10.68.08,21.33.08,34.14,7.71-14.42,8.48-14.6,16.82-3.72,1.64,2.23,7.64,3.93,4.06,7.23-2.79,2.56-5.2-2.71-7.71-4.64-2-1.56-3.72-6.56-6.69-2.48s-6.81,9.19-6.07,14.42c2,13.9.87,27.8,1.34,41.68.1,2.62-.77,5.57,2.24,7.46,2.44-4.53-.28-12.6,8.46-13,.74,2.72-4.07,3.66-1.39,6.56,3.28-.61,4.08-6.79,8.54-4.33,4.78,2.64,3.7,7.5,3.4,11.76a16.56,16.56,0,0,1-1.85,6.15c-2.81,5.43-8.58,6.09-12.77,1.64-1.24-1.31-1.26-3.7-3.85-4.26a30.63,30.63,0,0,0-6.17,18.7c-.12,9.26-.4,18.48-1.18,27.75-.91,10.51-3.28,21.06-1.79,31.81,1.64,12.63-.33,25.2-1.43,37.73-.51,5.91-4,12.62,1.64,17.85,3.87,3.56,7.68,7,9.29,12.18.51,1.64,1.39,2.72,2.61,1.23,1.64-2,3.44-3.28,5.18-1s-2.51,1.64-2.64,3.81c-.21,3.53-1.64,8.2,1.54,9.84,4,2,4.84-2.75,5.91-5.62.59-1.65,1.08-3.11,3.41-3.71.18,6.56-3.48,11.14-7.28,15.58a2.54,2.54,0,0,1-3.56.52l-.15-.12c-6.11-7-5.56.21-6.56,3.13-1.3,4-2.06,8.2-3,12.26a10.9,10.9,0,0,0,1.24.47c6.57,1.22,15.67-3.11,17.74,8ZM241.87,147.1c3.28-.84,4.92-5.15,8.2-3,3.61,2.37,4.67-.28,6.32-2.35.91-1.15,1.52-3.28,3.64-1.64,1.64,1.28,2.57,3.08,1.15,4.92-2.12,2.82-4.58,5.4-6.75,8.2-5.92,7.58-9.53,7.91-15.91,1.41-.49-.49-1.49-.47-2.25-.7-6-1.81-12-3.54-17.9-5.45-1.08-.34-2-.95-2.9,0-8.3,8.94-19.44,14-29,21.12-8.36,6.26-12.51,15-16.5,24.39-7.69,17.95-12.24,36.82-15.75,55.79-2.31,12.4-1.79,25.75-.23,38.4,2.64,21.33,6.69,42.66,25.07,57.23,27.89,22,57.42,41,90.86,53.42a74,74,0,0,0,27.18,4.41c14.69-.21,29.37-.18,44.1-1.23,12.67-.9,25.11-3.28,37.74-4a30,30,0,0,0,9.27-2.75c40-16.23,63.72-57.92,69.07-95,1.33-9.24.54-18.22,0-27.37-.69-13.13,0-26.25-2.85-39.25-1.3-6.15-2.78-11.05-7.27-15.52-6.16-6.12-11.75-12.84-17.38-19.47-1.64-1.85-3.15-1.95-5.38-2.38-10.4-1.93-20.87,0-31.29-1-4.06-.39-7.2-.72-8.69-4.92-1.22-3.38-5.22-7.76-1.33-10,3.63-2.1,4.12,3.69,5.79,6.15s4.28,2,6.66,1.79c1.53-.13,1.5-1.36.86-2.36-.86-1.3-2.63-2.53-.48-4s3.43.8,4.92,1.76,1.86,3.42,4.37,2.82c1-.95-.14-1.38-.46-1.94-.94-1.64-4.73-2.33-2.3-4.92,2.08-2.28,3.58.25,5.38,1.44,3.28,2.23,6.19,5.6,11.27,6.24-6.56-9.85-12.35-19.18-18.82-28.07-2.67-3.68-5.36-7.9-11.73-6.91-7.35,1.15-14.48,4.92-22.54.51-4.15-2.27-10-.25-15.27-1.3-19.35-4-38.79-7.84-58.36-10.47-13.65-1.87-26.81-4.82-38.43-12-7-4.33-12.4-9.31-16.68,2.42-.66,1.83-3.94,2.67-5.91,4.11-1.64,1.2-4.79,2.35-3.28,4.63,1,1.64,4.74,2.89,6.56,1.48C242.1,135.65,241,142.15,241.87,147.1ZM291.51,511c0,15.23,1.41,16.31,14.21,10.68,14.4-6.34,28.79-12.46,44.3-15.76a51.07,51.07,0,0,0,21.13-10.16c12.12-9.61,12.22-9.48-2-15.88-.73-.33-1.32-1.25-2-1.33-5.4-.51-9.68-5.2-15.93-3-17.75,6.2-34.45,14.54-51.42,22.58-6.28,3-10.25,6.58-8.22,12.89Zm-4.92-4.54c-8.61,3.13-10,2.39-11.48-6.45a7.18,7.18,0,0,0-2.43-4.92c-9.45-7.73-18.59-15.88-28.44-23.05-8-5.81-16.71-10.78-25.43-.4a8.63,8.63,0,0,1-5.15,2.15c-6.76,1-6.81,4.55-3.28,8.86a169.94,169.94,0,0,0,28.17,26.16c11.35,8.72,25.05,12,39.71,13.12,7.53.56,8.2-1.64,8.2-7.2.08-2.68.08-5.38.08-8.27Zm175.55-249c0,5.21.49,9.38-.12,13.37-1,6.92,3.89,10,8.52,11.07a32,32,0,0,0,20.62-2.64c2.91-1.31,1.79-6.3,6.56-6.2,4.37.1,6.06-3.61,7.19-7.43,4.53-15.2-.84-27.45-11.14-38.33-5.28-5.56-11.63-6-17.87-2.89-7.28,3.69-14.32,8.76-14.15,17.93,0,5.39-.15,10.85.36,15.12Zm-233,163.68V433c0,1.51-.28,3.07,1.92,3.89,5.13,1.92,5.07,2.06.6,5.46-4.82,3.67-4.44,13.29.81,16.23,11.1,6.21,22.21,12.3,31.71,21.08,2.94,2.74,5.86,6.33,10.73,7.51,1.12-7.59-1.07-14.4-2-21.33-2.2-16.16-11.16-27.1-26.25-33.27a52.61,52.61,0,0,1-17.58-11.42Zm127.2,21.49c-4,4.17-8.7,4.93-12.55,7.08-9.85,5.56-20.59,3.9-31.06,4.43-3.38.16-7.5,0-7.45,4.31.13,11.06-4.77,21.54-3.79,33,6.17-1.52,10.63-5.2,15.59-7.86,11.3-6.08,23.44-10,35.42-14.44,2.77-1,6.69-1.37,6.05-6.21-.87-6.17-1.39-12.37-2.25-20.27ZM140.21,211.15c-.92-2.11-2.48-4.35-4.13-3-3.76,3-6.06,1.54-8.76-1.21-1.15-1.15-2.25-3.7-4.6-2-1.64,1.17-1.74,3.28-1.87,5.17-.52,8.43.35,16.24,7.53,22.16,5.32,4.39,8.21,5,18.38,2.7.24,0,.62-.09.77,0,7,6.43,5.66-3.11,5.74-4,.49-5,3.45-9,4.71-13.69,3.66-13.47-9.68-28.76-23.67-26.47a9.07,9.07,0,0,0-7.37,6.66c2.95.74,2.71,5.89,8.2,4.22,6.27-1.89,9.6,4.71,10.91,9.47s5.12,10.78-2.13,16.4c.13-7-.44-12.5-8.48-8.2-1.64.82-2.64.38-3-1.26s-.78-3.5,1-4.4A60.84,60.84,0,0,1,140.21,211.15Zm218.9,318.29c-4.93-2.68-9.85-5.14-12.41-9.58-3.48-6-7.68-5.38-12.94-3.19-11.7,4.93-23.23,10.47-35.34,14.08-6.76,2-3.91,4.68-2.33,7.51,4.59,8.4,11.48,4.48,18.85,3.53-1.54-2.26-3.48-3.82-3.41-5.3.13-2.7-3.81-6.31.19-7.92s2.51,3.54,4.17,5.25c2.61,2.69,2.92,8.2,8.65,6.66,11.38-3,23.34-4,34.57-11.06Zm-52.36-88.27-2.15,2.13c-12.1-12.33-21.88-27-36.66-36.78l31.17,38c-17.66-11.67-25.83-32-42.87-44.09,13.48,17.53,24.48,36.95,40.85,52.1,2,1.88,6.33,5.25,4.53-2.48-.74-3.15,2.89-3.63,5.18-3.28,2.86.44,5.58,1.52,8.81.09-2.47-3.13-4.92-5.92-7.08-9-6.86-10.25-16.82-17.52-25-26.48-.92-1-.2-3.49-2.71-3.1-.7.1-1.88.49-1.91.85-.2,1.86,1.37,2.79,2.46,4Q294.08,427.12,306.75,441.17ZM462,306.64a28.8,28.8,0,0,0-1.56,6.07c-.92,25.41-.29,50.86,3.61,75.93,4.41,28.23,4.92,28.15,14.59,40.87-6.48-20.59-8.55-41-11.87-61.18-3.33-20.54-3.05-41.13-4.72-61.74Zm34.45,88.26c2-1.85.55-3.28.38-4.8-1.79-15.85-4.3-31.67-5.22-47.58-.87-15.23-.11-30.53,0-45.79,0-3.51-1.44-7.56,3.74-9.35,1.42-.48,2-4.22-.59-3.79-3.46.59-8.82.41-8.74,6.3.33,29.35.49,58.75,4.18,87.94.74,5.71,2,12.07,6.25,17ZM288.25,479.45c3.11-3.28,6.3-6.32,4.11-9.16-5.85-7.56-3.44-19-12.25-25a4.42,4.42,0,0,1-1.2-2.12c-3.28-9.06-9.35-16.59-13.86-24.94s-11.9-15-18.05-22.34c-3.54,3-3.74,4.84-.49,8.58,7.28,8.36,13.42,17.72,20.08,26.62,2.76,3.7,7.51,7,8.2,11C276.89,455.33,286.8,465.27,288.25,479.45ZM46.42,995c2.41-.36,4.24-1.1,5.89-.8,6.66,1.23,8.1-1.81,8.2-7.93A103.58,103.58,0,0,1,63.12,966c1.23-5.68-1.64-7.47-6.14-8s-8.94-.65-9.56,5.78c-.68,7,.09,14.19-1.86,21.13-.6,2.12-.33,4,2.81,2.08,2.38-1.44,2.07,1,1.64,1.86A52.62,52.62,0,0,1,46.42,995ZM451.66,463.8c-14.28-15.94-15.82-36.61-19.94-57-1.93,2.05-1.26,3.69-1.2,5.18.87,16.16,6.25,31.17,11.49,46.25,4.4,12.7,15.09,16.67,26.33,20.84-8.76-14.67-18.7-28.47-21.25-45.94a144.33,144.33,0,0,0,4.52,30.65ZM172.55,447.68c2.39-1.46,6.17-.18,6.41-4.31,1-17.28,6.57-33.8,8.52-50.86.77-6.56,6.77-14.41-1.64-20.64-1.86-1.35.18-2.59,1.28-3.79,5.18-5.71,4.44-7.69-3.84-10.17.93,9-3.17,17.68-1.2,26.82,3.09-1.64,1.82-5.92,5.33-7.53-9.68,22.36-10.27,46.45-14.91,70.48ZM76,1004.54c12.37-13.44,2.79-32,16-45.19H77.62c-1.79,0-4.2-.47-4.25,2.41C73.14,975.68,71.25,989.7,76,1004.54ZM494,417.61c-14.26-33.76-17.75-68.54-17.23-104.16a69.4,69.4,0,0,0-3,18.6,284.46,284.46,0,0,0,5.38,57.42C481.07,399.55,480.4,411.77,494,417.61ZM122,342.86c11-32.81,10.14-66.95,8.85-101.09C125.64,275.15,128.19,309.3,122,342.86Zm12.51-18.67c5.29-15.78,12.43-31,7.95-48a3.7,3.7,0,0,1,.68-3c7.07-7.84,2.06-16.85,2.51-25.32.08-1.51,0-3.59-2.53-3.06-1.94.39-2.22,1.64-2.33,3.59-.28,4.59.87,9,.31,13.71C138.65,282.77,136.68,303.49,134.49,324.19ZM407,479.53c-1.81-9-7.85-13.4-11.72-19.18-10.4-15.55-14.76-33.73-16.62-52.39-.14-1.39,2.22-4.41-1.52-4.1-2.63.22-4.25,2.07-3.5,5.2,3.84,15.75,5.38,32.44,14.93,46.06,4,5.74,1.79,14,8.62,18C400.17,474.92,403,476.94,407,479.53Zm48.12,474.15c-3.63,1-6.57,1.36-8.52,6.46-2.77,7.05-1.29,12.8.33,19.18.79,3.07-1.26,10,5,2.84.64-.74,1.85-.46,1.51.36-2.32,5.46,2.16,3.66,3.75,3.08,2.79-1,1.12-3.39.86-5.44-1.12-8.5-2-17.13-3-26.42ZM192.71,476.22c-6-3.55-12.16-2.38-20.23-3.29,6,6.93,10.83,12.29,15.41,17.85,3.28,4.07,6.25,7,11,1.46,2.28-2.59,7.66-3.06,4.73-8.45s-6.81-3.28-10.29-1c-2,1.29-3.51,2.84-5.43.39-2.58-3.28.79-4.05,2.51-5.45A16.14,16.14,0,0,1,192.71,476.22Zm99,66.51c-.2-11.49-7.56-13.74-16.62-14.77-6.25-.69-9.17.48-8.2,7.48.44,3.51,1,5.33,4.92,5.83C278.53,542.12,285.21,543.47,291.71,542.73ZM115.36,359.11c-7.31,17.14-19.69,31.53-26.76,48.82C104.31,395.36,114.39,379.65,115.36,359.11ZM43.3,986.85c.77-8.38,1.64-16.18,2.16-24,.18-2.25-.37-4.41-3.28-4.74A2.75,2.75,0,0,0,39,960.32a3.29,3.29,0,0,0-.05.54c-.88,8-3.48,15.65-3.54,23.74,0,4.92,1.64,10.42,6.17,10.34C46.51,994.84,41.61,989.08,43.3,986.85ZM147.61,369.28l-2.2-.64c-4.38,17.14-14.48,32-20.6,50.74,6.46-5.07,12.45-8.12,14.17-13.79C142.59,393.72,144.84,381.4,147.61,369.28ZM464.42,410.9c-6.25,18.41,2.66,33.54,22.21,41.2C478,439.51,467.54,428.39,464.42,410.9ZM141.54,321.37c-9.34,22.31-13.72,50.34-10,60.2Zm249.1,157.21c-16.57-4.51-21.69-18.33-27.56-31.91,1.08,8.63-3.14,20.34,3.67,24.46C373.07,475,381.39,481,390.64,478.58ZM459,442.07c4.2-18.47-2-35.4-9.08-53.73C450.69,407.55,454.77,424.75,459,442.07ZM72.42,1000.76c-3.87-13.53-2.4-26.25-1.17-38.86.19-1.86-.42-2.37-2.1-2.42-2.46,0-2.24,1.64-2.49,3.29-1.2,8.31-2,16.73-3.84,24.92C61.17,995.2,64.81,998.19,72.42,1000.76ZM35.6,962.67c-.82-1.37,1.23-4.32-2.23-4.93s-2.84,2.5-3.41,4.3a28.83,28.83,0,0,0-2.21,8.55c0,7.2-2.47,14.31-.69,21.56.47,2,1,3.61,3.62,3.28,1.77-.23,3.09-.61,3-2.82A154.64,154.64,0,0,1,35.6,962.67Zm371.86-504c-2.45-6.74-5.34-13.37-7.24-20.26-2.56-9.35-5.3-18.75-5.35-28.61,0-1.65.48-4.27-2.79-3.48-1.47.36-2.23,1.08-1.75,2.88,2.21,8.31,1.88,17.05,4.49,25.34,2.79,8.79,4.15,18.26,12.64,24.13Zm91.72-.85c-4.52-9.73-10.69-18.49-14.58-28.48s-3.17-21.51-8.93-31.6c-1.1,14.68,6.11,27.4,7.63,41.28.82,7.53,9.7,13.09,15.88,18.8ZM167,171.89a13.82,13.82,0,0,0,4.93-5.17c6.38-11.87,14.91-22.49,18-36.27,1.82-8.2,3.1-7.93-2.88-10.17,2,8.33,1.14,13.37-4.29,20.52C175.6,150.17,172,161.29,167,171.89Zm317.94,802c6.16-8.37.51-18.22,6.93-25.17-15.23-1.79-15.29-1.77-11.57,11.48C481.45,964.45,483.07,968.57,484.89,973.91ZM230.1,511.47c-3.28,8.5-2.52,14.77,6.84,17.43,2.22.62,4.75,5.36,6.32,1.36,1.18-3,5.17-8.52-1.18-11.08C237.71,517.43,234.89,513.61,230.1,511.47ZM157.91,411.13c9.63-15.78,12.19-31.17,8.06-44.3q-4.07,22.19-8.09,44.3ZM222,519.71c1.21-3.28,2.46-6.42,3.64-9.65,1.43-3.94-1.52-5.9-3.75-8.2-1.14-1.15-2.12-2.4-4.11-1.48-6.39,2.92-7.61,11.67-2,15.72,1.84,1.36,3.21,3.76,6.17,3.61ZM455,178.8c-1.78,16.8,9.85,25.46,16.21,36.62A94.57,94.57,0,0,0,455,178.8ZM168.2,188.35l-1.64-1.25a39.92,39.92,0,0,1-4,4.92c-1.2,1.12-2.54,0-3.63-.79s-2.05-2.14-.6-3.28c6.71-5.26,1.33-12.61,4.54-19.16-9.42,4.64-3.39,15.78-10.88,20.31.46.64.76,1.54,1.38,1.86,4.92,2.44,6.83,6.94,8.07,14,2.84-7,4.78-11.79,6.73-16.58Zm92.12,350c5.58-9.3,2.35-13.42-6.56-14.61-4.81-.63-4.53,3-4.77,5.48C248,538.63,256.25,536.33,260.32,538.31ZM327,416.41l-1.43,1.45c6.57,4.69,8.32,13.3,16,17.24,3.58,1.82,3.28,2.9-.49,4.63-1.75.78-2.44,1.64-1.13,2.46,3.54,2.07,6.25-.74,8.81-2.58s2.28-3.69-.39-5.77C341.21,428.18,334.15,422.24,327,416.41Zm110.3,548.46c-.83,0-1.52.7-1.52,1.88a67.66,67.66,0,0,0,3.11,21.33,3.67,3.67,0,0,0,4.61,2.36,3.1,3.1,0,0,0,2.29-3.74,3.13,3.13,0,0,0-.33-.83c-2.69-5.44-2.78-11.49-4.38-17.13C440.58,966.9,440.45,964.87,437.33,964.87ZM202.38,113.37c2.21-10.57-2.33-17.72-4.19-25.41-.82-3.45-2.77-4.42-5.76-4.45-1,0-2.38-.16-2.59,1.25-.44,2.92.54,6.41,2.92,7,3.28.81,3.89,2.2,3.53,4.92-.82,5.81,3.15,9.93,6.09,16.61Zm11.15,383.06c-.75-1.64-2.43-4.71-4.36-4-4.43,1.64-9.85,3.28-11.49,8-1.08,3.29,3.61,5.34,6.14,7.52,1,.64,9.42-8.89,9.71-11.58Zm173-36.1c-6.32-14.42-11.93-29.09-14.77-44.62,2.3,15.55,1.4,32.34,14.77,44.48ZM192.76,417c5.66-11.48,6.25-24.26,9.24-36.49.47-1.95-.59-2.54-1.89-2.75-2.74-.48-2.08,2-2.28,3.28-1.75,11.81-3.4,23.82-5.07,35.81Zm239.09,24.32c-1.29-10.69-5.07-20.92-4.39-31.82a2.22,2.22,0,0,0-1.8-2.56,2.18,2.18,0,0,0-.57,0,2,2,0,0,0-2.41,1.61,2.15,2.15,0,0,0,0,.8c.46,11.27,2.91,22.12,9.17,31.85Zm14.64-281.06c-3-11.57-9.17-16.82-17.21-15.57-2.23.36-5.25-.51-4.93,3.54.25,3.45,2.83,3.12,4.75,2.69,8.51-2,13.32,2.74,17.39,9.19ZM164,357.25c4-.16,1.54-7.23,5.74-5.23,3.28,1.64,2,6,1.23,9-.94,3.75-1.64,7.35-.39,11.28,5.16-24.7,6-23.11-6-30.05C166.82,347.79,162.93,352.25,164,357.25ZM159.57,332c-1.93,10.72-5.95,21.18-4.51,32.32,1.3-10.83,9.27-20.67,4.58-32.32Zm57.65,101.21c-9.28,3.63-1-6.26-6-6.38-1.07,7.09-7,14-1.64,23.27,3-6.22,6.76-10.88,7.71-16.89ZM355.4,421a20.26,20.26,0,0,0,0,4c.49,2.07-1.53,5.87,1.87,5.89,4.3,0,2.54-3.54,2.07-6.1-.82-4.53-1.27-9.08.41-13.55.57-1.65,1.1-3.4-.55-4.3a4.92,4.92,0,0,0-3.85.36,3.1,3.1,0,0,0-1.39,4.16l0,0c2,3.34,1.38,6.81,1.47,9.52Zm-85.12,18.62-23-28.38C252.78,422.53,259,433.21,270.28,439.66ZM8.45,959.35c-3.94,8.45-1.26,15.88-3.9,22.36-.56,1.35.82,2.35,2.46,2.35s2.1-.87,2.43-2.41A38.29,38.29,0,0,0,8.45,959.35ZM286,408.57c7.67,7.4,11.58,15.85,21.9,15.92C300.44,420.63,298.55,409.92,286,408.57Zm-106.48-279c-7.48,8.71-10.45,15.16-9.75,21.67C170.88,143.16,186.48,141.8,179.54,129.58Zm46.56,1.21c2,.18,13.24-9.84,13-11.61-.26-2.07-2.07-3.05-3.61-4s-2.44-.36-3.28,1c-2.27,3.67-4.6,7.33-7,10.94-1.19,1.66-1.09,2.87.85,3.59Zm181.29-12.48c3.63,6.81,6.43,12.19,9.34,17.5,1.11,2.05,3.16,2,5,1.48a1.64,1.64,0,0,0,.85-2.64c-4.31-5.42-6.43-12.83-15.24-16.42Zm-376,809.18c-1.43-2.71-3.12-6.15-6.66-5.59-3.15.51-3.81,4.36-3.94,7.08s1.3,5.45,4.92,4.63A6.38,6.38,0,0,0,31.34,927.49ZM298,88.56c17.75,12,17.75,12,21.22,10.93C313.73,93.49,308,88.56,298,88.56Zm171-29c6.3,8,13,15.66,15.44,26,0-11.76-4.89-20.62-15.44-26.05Zm-172,415.16c-4.73,5-5.43,10.44-5.37,16,0,1.22-1.16,3.6,1.55,3.5,1.64,0,3.28-.84,3.28-3C296.07,486.14,299.63,481.3,296.91,474.72ZM460.35,402.4l1.85-.31-4.67-38.88-2,.24Zm32.5-206.88c-.72,4.38-3.15,7.77-4.25,11.48-.6,2.12.35,4.83,1.13,7.09.32.92,1.86.23,2.88-.25,3-1.39,2.41-4.1,2.18-6.4-.38-3.93-1.25-7.92-1.92-11.92ZM163.72,418c-2.85,5.67-8.2,8.72-8.46,15C158,428.05,172.55,430.85,163.72,418Zm122.66,78.57c-3.92-7.4-.94-16.41-5.4-23.71-4.27,4.38,3,8.2-.36,13.12C277.83,490.21,280,494.74,286.38,496.58Zm-85.5-80.4c4.17-11.33,5.37-23.11,6.45-34.89l-2.13-.3q-2.13,17.65-4.32,35.18Zm225.28-12.71c0-8.63-1.26-16.57,4.36-25.55-8.92,5.24-10.14,17.23-4.36,25.53ZM148.71,328.21c-1,11.49-3.4,23-4.25,34.46C147.89,351.43,150.15,340,148.71,328.21Zm104.2,99.64c-4.07-5.42-5.88-11-13.13-10-.93.13-1.52-3.55-3.46-1.3s.2,3.51,1.72,4.51a51.34,51.34,0,0,0,14.87,6.83ZM125.43,388.69c.23-6.83,1.33-13.31-.67-21.94-3.24,8.78-7.78,15.34.67,21.94ZM449,180.11c1.39-11.29-5.2-16.41-11.39-21.9C441.09,165,444.57,171.74,449,180.11ZM345.54,424.9c-11-13.72-13.24-15.39-19.69-14.49C332.81,414.63,336.42,422.62,345.54,424.9ZM213.94,388c-1.16,7.84-1,15.85-2.52,23.75A26.41,26.41,0,0,0,213.94,388ZM301.13,98.8c-6.35-4-7.39-12.73-16.82-10C288.71,93.32,292,98.93,301.13,98.8ZM445.5,63.2c-3.38-1.64-4.2-5.09-6.05-7.79s-4-5.43-9-3.86c4.92,5,7.16,11.76,15.11,11.65Zm-74,28.25c-7.68-7.27-15.67-8.2-20.13-3.59ZM383.86,420.7c.09-6.47,1.94-12.57,3.58-18.72C377.43,406.45,385.34,414.51,383.86,420.7Zm-270.11,7.62c8.56-5.2,9.69-11.61,7.86-21.32ZM332.1,35.6c-5.61-8.35-5.61-8.35-12.94-7C321.75,33.5,325.46,36.36,332.1,35.6Zm-31,6.57c-1.54-8.85-7.53-8.21-13.59-7.81,2.83,5.62,8.18,6.13,13.59,7.84ZM114.31,849.94a6.81,6.81,0,0,0-5.7-5.89c-1.23-.25-2.74,2.89-2.77,5a5.06,5.06,0,0,0,4.66,5.45l.26,0C113.34,854.74,114.17,852.48,114.31,849.94Zm39.37-505c0-5.15-.67-8.79.17-12.06,1-4,2.13-7.69.16-11.66-.49-1-.84-2.25-2-1.28-.82.67-3.28,1.08-2,2.71,4.79,6.54-.55,14.22,3.76,22.29ZM306.46,127.73a26,26,0,0,0,12.48,10.68C316.14,133.6,315.05,126.87,306.46,127.73ZM350,422.3c-1-7.9-7.89-13.73-14-12.79ZM478.33,160.75c-7.46,6-7.46,6,0,14ZM301.4,133.29c-2.87-5.29-5-11.49-13.4-12.29A34.31,34.31,0,0,0,301.4,133.29Zm156.8,84.57c1.9,4.28-.54,8.88,2.15,13.69,2.54-3.29,4.5-5.83,6.48-8.42C464.09,220.52,459.55,222.28,458.2,217.86ZM267.89,126.94c-.2-6.93-5.14-10.09-9.85-13.42,1.63,5.66,5.38,9.73,9.8,13.42Zm85.23-88.12c-4.69-4.09-6.43-10.35-14.32-8.06,3.19,5.3,7.33,7.6,14.27,8.06Zm53.84,1c1.64,5.14,4.71,7.55,10.55,5.82-1.74-5.66-4.82-8.12-10.6-5.82Zm-60.7,24.81a9.16,9.16,0,0,0-10.73-3.28,3.41,3.41,0,0,0-1.36,2.52c2.72,2.79,6.28,1.41,9.55,1.64a9.42,9.42,0,0,0,2.57-.88Zm92.91,341.25v-19.9c-5.82,7.09-2.36,13.63,0,19.93ZM308.3,16.24c3.16,7,8.44,7.39,16.12,6.34C318.52,19.66,314.43,16.9,308.3,16.24ZM487.86,176.81c1.64-8.46-.09-14.32-4.25-21.08C483.43,163.41,485.06,169.28,487.86,176.81ZM340.52,137.86c4.41,6.3,6.08,6.81,17.88,5.93-1.08-2.28-3.84-5.5-4.68-4.45C348.66,145.66,345.47,139.31,340.52,137.86Z"/><path d="M270.82,1028V979.22c4.4,16.08,1.87,32.47,2.53,48.73Z"/><path d="M209.73,916.94c-4.45-4.71-9.85-8.2-10.7-16-.48-4.6.34-5.45,4-5.19,2.68.2,5.29,1.17,8,1.48,4,.47,9.24-1.45,9.75,5.25s-4.43,13.53-10.31,14.86A6.51,6.51,0,0,0,209.73,916.94Z"/><path d="M426.34,939.22c1.07,3.78,1.94,7.63,5.22,11.49-10-3.47-15.47-20.87-9.85-30.7,1.33,7.2,1,14,4.84,19.52Z"/><path d="M317.76,723.17c-.24-6.06,4.69-9.37,10.19-11,4.58-1.35,12.67,6,12.68,10.34s-9.14,13.61-13.52,13.53C323,736,317.73,729.24,317.76,723.17Z"/><path d="M299.49,724c-.1,7.65-4.12,12.75-9.85,12.44s-10.17-6.66-9.84-14.54c.18-3.61-1.76-9,3.74-10C288.71,710.83,299.55,719.82,299.49,724Z"/><path d="M256.55,730.79c-7.76-.72-14-6.95-13.72-13.48.33-7.45,5.91-7,10.73-7,5.27,0,14.06,7.2,12.72,10.57C264.54,725.13,263.41,731.11,256.55,730.79Z"/><path d="M406.18,710.7c.62,8-2.6,12.45-8.76,14.06-5.7,1.47-9.06-2.4-11.41-7.06-3-6,.69-10.45,3.92-14.6,2-2.59,3.42-1.36,4.83,2.63.72,2.06,4.2,2,5.35,1.29C407.23,702.89,406.18,708,406.18,710.7Z"/><path d="M97.83,873.71c.69.16,1.2.35,1.74.43,5.93.78,13.77,1.38,15.39,6.81,1.64,5.16-7.36,7.89-9.33,13.6-.66,1.92-3.4,1.39-4.79-.35a28.34,28.34,0,0,1-6.57-18.65C94.32,872.79,95.78,872.35,97.83,873.71Z"/><path d="M190.63,823.57a64.94,64.94,0,0,0-20.48-5.72c-.59,0-1.37-1.64-1.49-2.51-.2-1.81.82-3.55,2.61-3.43,4.44.28,7.17-2.63,9.73-5.22,4.56-4.63,7.82-2.69,10.25,1.64a38.07,38.07,0,0,1,4.15,11.26C196,822.87,192.43,822.42,190.63,823.57Z"/><path d="M218,707.68c7,1.39,11.65,4.23,10.64,11-.74,4.83-2.92,9.65-9.14,9.32-4.92-.24-10.42-8.48-9.52-14.17C210.79,708.73,215,708.25,218,707.68Z"/><path d="M178,704c0-4.57,1.82-7.2,6.84-7,6.56.28,13.6,5,13,9.77-.55,4.06-.84,9.18-6.9,9.54S177.93,710,178,704Z"/><path d="M453.35,899.53c.78-3.28-1.81-7.54,5.9-7.61,5.5,0,11.09,1.15,16.74.44,4.25-.52,3.28,5.3,1.9,5.52-5.92,1-6,9-11.73,9.15s-8.86-4.66-12.93-7.69C453.23,899.3,453.35,899.53,453.35,899.53Z"/><path d="M428.7,578.28c2.15-3.48,1.74-11,8.86-10.11,4.92.63,13.13-1,13,8.49-.13,5.25-8,15.09-11.75,15.14C433.33,591.88,428.52,585.93,428.7,578.28Zm9.93-4.41c-2.84-.48-4.92.73-4.53,4.75.36,3.17.57,7,4.76,7.06,4.58,0,6-4.25,6.56-7.68.79-4.46-3.1-3.94-6.79-4.13Z"/><path d="M151.93,694.81c.72-3.82.16-9.4,6.56-10.64,2.66-.53,11.06,8.28,11.09,11.09s-7.55,11.19-10.24,11.17C154.71,706.4,151.93,702.35,151.93,694.81Z"/><path d="M317.73,613.39c.75-3.54-1.07-10.85,5.91-9.84,5.8.85,16.21-4.93,16.88,7.74.38,7.14-7.3,15.39-14,15.42S317.6,623.58,317.73,613.39Zm3.28,1.3c.2,4.2,1.64,7.23,6.66,6.9,5.88-.39,9.75-4.66,9.09-9.27-.87-6.2-8.86-.32-12.55-4.66-.8-.87-3.33,3.88-3.25,7Z"/><path d="M91.34,676.14c-.23-5,.8-11,5.79-10.48,4.49.44,12.12.74,12.19,9,0,2.85-8.94,11.48-11.81,11C92.21,684.61,90.78,680.74,91.34,676.14Z"/><path d="M142.57,544.48c4.93.74,9.26,2.91,9.32,9.49,0,5.66-6.4,11.32-12.63,11-4.92-.25-8.2-3-8.4-8a11.67,11.67,0,0,1,10.87-12.44ZM147,554.7c.13-2.82-1-3.74-3.39-3.77-4.07,0-3.28,6.35-7.76,5.66.8,2.56,2.84,2.84,5.1,2.79,3.38-.08,5.61-1.59,6.05-4.68Z"/><path d="M156.29,811.37c-7-2.56-13.6-4.7-20-7.09-2-.74-4.2-1.64-3.83-4.55.45-3.28,2.69-2.92,4.93-2.41,2.49.58,4.13-1,6-2.08,7.17-4.37,9.58-3.45,11.81,4.79a33.88,33.88,0,0,1,.48,5.51C155.81,807.3,156,809,156.29,811.37Z"/><path d="M344.8,828.89c-4.3-2.13-13.22,2.46-11.11-8.2.74-3.7.15-8.88,3.94-10.06s6.33,3.28,9,5.82a22.72,22.72,0,0,0,2.72,3c2.71,1.84,8,3.57,7,6.17C354.59,830.41,348.74,827.59,344.8,828.89Z"/><path d="M87.32,767.1c-.71,2.45-2.6,4.17-5.37,2.51-5.58-3.28-11.71-5.84-16.4-10.61-1-1.1-3-3.48-1.74-4,4.54-1.93,9.66-1.78,14.19-4.77,2.36-1.64,3.18,2.87,4.28,4.79C84.46,758.69,87.4,762.06,87.32,767.1Z"/><path d="M147.22,885.41A23.27,23.27,0,0,1,141.28,899c-2.59,3.28-4.19.45-5.47-1.54-3.7-5.79-3.18-13-6.21-19-.23-.49.6-2.08.65-2.06,4.19,1.11,8.39,2.18,12.46,3.59C145.84,881,147.61,883.26,147.22,885.41Z"/><path d="M309.59,829.74c-5.74,1-11.17-3.8-17.57-2-2.67.77-3.15-3-2.94-3.81,1.2-4.69,6-6.48,9.08-9.64,1.92-2,4.59.41,6.38,1.87,2.92,2.36,5.54,5.08,8.2,7.71,1.25,1.23,3.76,2.13,2.84,4.26S312.3,830.71,309.59,829.74Z"/><path d="M176.8,578.9c-.35,5.91-.82,11.49-8.57,11.39-5.43-.08-10.78-7.48-11.37-13.63-1-10.23,8.7-9.36,12.67-9.75C175.67,566.3,176.58,573.54,176.8,578.9Zm-9.5-5.2c-1.48,1.12-6.4-3.43-5.6,2.78.58,4.46,2.94,8.64,7.8,9,3.75.29,4.46-3.63,4.16-6.57S173.42,571.21,167.3,573.7Z"/><path d="M230.35,830.14c-5.32-4.16-11.93-5.16-17.77-8-.59-.3-1.36-1.41-1.21-1.86,1.51-4.26,5-6.87,8.4-9.48s4.74.62,6.56,2.51c3.28,3.46,4.66,8.2,8.4,11.68C237.65,827.77,232.3,828.36,230.35,830.14Z"/><path d="M277.78,825.87c-6.66,5.28-21.16,5-25.94-.1-.52-.56-1.3-1.49-1.13-2,1.52-4.71,6.69-5.78,9.56-9.27,2-2.43,4.25-.27,5.4,1.33C268.81,820.19,272.3,824.06,277.78,825.87Z"/><path d="M358.56,615.6c.5-4.67,2.07-9,.23-14.2-1.09-3.06,3.2-5,7-3.71,8.68,3,12.14,18.52,5.69,25a7.39,7.39,0,0,1-8.3,1.64C359.25,622.91,358.45,619.43,358.56,615.6Zm4.76-3.41c.27,3-.65,7,3.37,7.22,3.61.18,5.48-2.94,5.21-6.73s-1.15-8.46-4.43-8.61C363.13,603.87,364,609.06,363.32,612.19Z"/><path d="M374.87,715.91c-2,3.28-2.33,11-8.63,11.91-5.46.78-7-5.79-7.58-10.58-.85-6.72,4.19-9.4,9.4-10C371.62,706.79,375.66,708.73,374.87,715.91Z"/><path d="M382.22,536.85c6.81-1.46,9.95,8.63,17.08,4.42a36,36,0,0,1,3.51,6.67c.74,2.43-1.82,3.29-3.43,3.71-4.44,1-9.12,1.89-13.56.38C376.35,548.76,382.47,542.05,382.22,536.85Z"/><path d="M112.81,522.74c2.4.71,4.55-1.13,7.16-.26,4.21,1.4,9.84.44,11.35,6.15s-2.84,8.81-6.14,12.31c-3.69,3.92-7.64,4.74-12.29,1.49s-4.08-7.87-2.77-12.43a80.38,80.38,0,0,1,3-7.52Zm14.51,9.37a4.61,4.61,0,0,0-4.72-4.49,4.15,4.15,0,0,0-.93.11c-3.1.94-7.87,1.33-8.07,6-.11,2.93,1.13,5.69,5.23,5.84C124.28,539.74,125.12,535.34,127.32,532.11Z"/><path d="M113.16,522.48a90.48,90.48,0,0,1-8.76,4.37A10,10,0,0,1,92,523.33c-2.79-4-.92-8.2,1.5-12.07,2.79-4.41,6.4-3.82,10.65-2.31,10.93,3.85,11.49,4.64,8.63,13.86Zm-10.88.66c3.43-.35,7.51-.95,7.32-4.92-.25-5.07-5.52-4.16-8.91-4.93-3.09-.75-4.4,1.19-4.61,4.15-.36,4.58,2.72,5.29,6.15,5.7Z"/><path d="M134.31,579c5.06.15,15.35,9.85,14.37,13.32-.77,2.84-1.64,6.57-6.16,6.26-4.79-.33-14.3-8.75-13.3-12.41A12.81,12.81,0,0,1,134.31,579Z"/><path d="M426,517.36c0-3.2-.57-6.56,3.29-8.38s5.33,1.36,7.35,3.28c1.29,1.25,1.8,3.28,4.26,1,3.81-3.64,6.66,1.33,7.66,2.8,1.64,2.33-2.46,2.48-4.08,3.47a76.93,76.93,0,0,1-8.58,4.38C428.16,527.32,426.06,525.89,426,517.36Z"/><path d="M208.86,640.79c-2.69-1.2-6.47-.59-8.72-4.32s1.1-6.41,1.55-9.59c.41-2.83,2.57-1.92,4.41-1.09a56.34,56.34,0,0,0,9,3.76c3.29.85,5.2.56,4.93,5.82-.23,5.68-2.88,3.66-5.37,4.06C212.86,639.72,211.07,640.26,208.86,640.79Z"/><path d="M410.11,520.05a132.66,132.66,0,0,0,15.54,11c1.44,1,.44,3.58-2,4.17l-12.57,3c-.52.12-1.23.59-1.54.4-4.79-3-3.68-7.76-3.28-12.21C406.39,523.78,405.88,520.68,410.11,520.05Z"/><path d="M119.54,573c-5.69,1.16-8.47-1.92-11.24-4-2.15-1.64-5-6.83-3.63-7.09,3.91-.67,6.75-7.05,11.64-2.59,1.64,1.44,3.74,2.28,5.28,3.76,2.26,2.16,6.56,3.72,5.61,7.28C126,574.65,120.7,570.65,119.54,573Z"/><path d="M217.11,614.11c3.46-3.74,0-12.29,9.22-12.52,7.18-.16,11,3.78,10.17,10.36-.67,5.49-1.2,12.73-9.55,12.71C220.72,624.64,218.16,620.38,217.11,614.11Zm5.1-2.48c-.75,5,1.36,7.67,5.25,8.21,4.92.77,5.46-3.92,6.27-6.93,1.1-4-2-5.57-5.6-6.15-4.46-.65-5.76,1.89-5.92,4.87Z"/><path d="M358.6,562.41c-3.82,1-4.73-1.64-5.55-4.34-.92-3.14-2.21-6.57.54-9.11a4.92,4.92,0,0,1,7,.39,3.9,3.9,0,0,1,.4.51c3.19,4,9.62.71,12.29,5.93.46.9,3.28.8,2.33,3.08a3.11,3.11,0,0,1-3.28,1.94A52.57,52.57,0,0,0,358.6,562.41Z"/><path d="M258.19,654.59c-6.05-.5-10.6-3.06-15.34-4.83-3.15-1.18-3.15-4-.75-5.62,5.9-3.88,12.32-4.93,18.86-1.22,2.91,1.64,3.28,3.76,1.64,6.7C261.23,651.7,262.26,656.11,258.19,654.59Z"/><path d="M378.6,879c-.2,4-.15,9.63-5.12,9.42-6.56-.3-7.66-6.57-8-12.11-.32-4.55,2.41-10,6.13-9.43C376.89,867.62,379,873.27,378.6,879Z"/><path d="M231.86,886.67a12.45,12.45,0,0,1-10.12-7.3c-1.05-2.3-1.3-4.48.88-5.76,3.84-2.28,9.47-2.44,9.16-9.05,0-.74,1.8-.61,2.8,0,4,2.74,6.56,16.4,3.77,20.27C236.88,887,234.91,887.34,231.86,886.67Zm1.18-4.3c3.28-.42,2.54-3,2.66-4.92.14-2.64-.86-4-3.83-3.49-2.41.44-5.66.83-5.43,3.49C226.71,880.63,230.53,881,233,882.37Z"/><path d="M260.31,879.65c-1.38-7.88,6.26-7.3,9.84-9.65s3.69,3.28,4.92,5.43c2.73,4.93,4.92,10.32,2.28,16.23-1.06,2.36-2.16,4.79-5.31,3.28C265.61,891.68,261.11,887,260.31,879.65Zm12.38,10.14c2.91-4.58.71-8.4-1.11-12.32-1.27-2.71-3.28-2.3-5.43-1.64-2.94,1-2.78,3.28-1.64,5.25A18.62,18.62,0,0,0,272.69,889.79Z"/><path d="M289.31,575.84c.18-2.93.35-5.85.56-8.77.25-3.54,3-4.92,5.68-6.2s4.35.56,5.44,2.41c1.86,3.15,4.68,4.24,8,4.83,1.64.28,3.55.65,3.43,2.7-.13,2.37-2.15,2.84-4.17,2.91-3.28.08-6.56.23-9.76.18C295.5,573.82,292.5,573.42,289.31,575.84Z"/><path d="M179.29,621.3c-9.15-.95-15-5.94-14.45-11.83.41-4.25,4.49-3.63,6.9-4,3.91-.57,13.13,8,12.15,11C183.15,618.8,183.54,623.55,179.29,621.3Z"/><path d="M267,552.24c2.69,5.6,3.84,11.49,10.86,11.57,1.27,0,2.17,1.64,1.94,3.15s-1.77,1.64-3.09,2c-5.74,1.29-11.78-2.17-17.45,1.18-1,.59-2.07-.59-2.07-1.81,0-2.36-.75-4.82,1.35-6.9C261.18,558.74,263.64,555.85,267,552.24Z"/><path d="M394.5,633.8a25.56,25.56,0,0,1,3.28-.15c1.75,0,4.11-1.38,5,1.15,1.05,2.89-1.4,2.94-3.28,3.2-1.12.15-2.55.51-1.91,1.77,2.74,5.45-.7,6.48-4.67,6.17s-9,.87-10.54-5.74C380.84,633.26,380.25,633.45,394.5,633.8Z"/><path d="M307.41,876.53c2.61,2.58,10.6-4.92,9.14,4.24-1,6.23,2.43,15.11-6.56,17.94-4.2,1.33-10.8-11.17-10.32-18.21C300.09,874.65,304.08,876.37,307.41,876.53Zm5.74,8.88c-.46-2.31.33-6.07-4-6.09-2.45,0-4.92,1-4.41,4.33.54,3.76,1.95,7.93,5.56,8.6C312.58,892.68,313.32,888.61,313.15,885.41Z"/><path d="M344.13,568.14c-5.76,1.74-10.47,4.22-16,4.58-5.21.34-7.76-1.64-7-7,.37-2.79-.86-6.35,3-7.67a6.08,6.08,0,0,1,7.56,3.29C333.94,567.12,341.06,563,344.13,568.14Z"/><path d="M464.81,810.3c-12.06-.23-15.09-3.58-10.61-11.48,1-1.83,2.2-4.75,4.81-4.68a6.56,6.56,0,0,1,5.54,4.18,26.67,26.67,0,0,0,3,5.7c1.64,1.93,7.4.23,5.54,4.92C471.7,812.42,467.24,809.3,464.81,810.3Z"/><path d="M301.09,622.89c-.69,3.07-2.15,9.55-8.35,9.56s-7.27-6.56-7.33-11.73c0-5.87,4-10.19,9.48-10C299.45,610.88,301.68,615.51,301.09,622.89Zm-6.3,4a8.57,8.57,0,0,0,3.2-6.33c.08-3.42-2.21-2.71-4.44-2.68s-4.27,0-3.42,2.74C290.82,622.86,290.23,626.33,294.79,626.86Z"/><path d="M411.3,600.71c-1.24,4.57-1.53,10.71-7.16,10.58-6.56-.15-7.27-6.78-7.32-11.75s1.12-12.25,7.06-11.86S409.59,595.83,411.3,600.71Zm-7.14,5.38c2.39-1.15,2-2.74,2.56-3.87,1.64-3.28.21-5.66-2.1-7.76-.48-.45-1.92-.69-2.18-.4-2,2.28-1.1,5-.69,7.57A16.89,16.89,0,0,0,404.16,606.09Z"/><path d="M250.63,618.33a15.08,15.08,0,0,1,3.75-8.65c3.06-3.46,7.88-1.93,9.19,2.5s3,8.54.59,13.32c-1.33,2.64-1.23,6-5.4,5.72-3.49-.24-5.26-2.7-6.34-5.57A56.2,56.2,0,0,1,250.63,618.33Zm11.48.19c-.57-.85.66-4-2.05-3.56-1.75.28-4.92,1.17-4.66,4.52.18,2.93,1.3,6.18,4.2,5.95,2.58-.18,2.43-3.76,2.54-6.94Z"/><path d="M359.91,635.49a7.83,7.83,0,0,0,1.31.7c3.83,1.56,10.45,1.76,10,6.27s-6.92,3.28-11,3.64a30.41,30.41,0,0,0-4.05,0c-3.1.76-6.71,3.84-7.35-2.6-.51-5.06,2.69-6.39,6.56-7.24C356.63,636,357.94,635.82,359.91,635.49Z"/><path d="M204.54,598.13c-.8,5.14-2,10.17-7.33,11.72-3.73,1-9.47-7.34-8.94-12.85a9.41,9.41,0,0,1,9.79-9h.05C203.87,588.07,203.69,593.88,204.54,598.13Zm-7.71,5.81c3.28.13,3.82-2.76,4.12-4.32a5,5,0,0,0-3.57-6.16,4.19,4.19,0,0,0-.86-.15c-2.46-.4-3.38,1.43-3.43,3.43A7.83,7.83,0,0,0,196.83,603.94Z"/><path d="M347.64,875.84a10.43,10.43,0,0,1-.61,10.44c-3,4.66-6,4.56-8.09-.25-1.64-3.67-3.28-7.28-2-12,1.64-6.12,5.37-3.64,8.65-3.59C347.62,870.41,347.62,870.64,347.64,875.84Z"/><path d="M109.33,610.6c-6.08-3.12-4.72-7.55-4.92-11.32-.1-2.54-.29-5.59-2.25-6.56C100,591.55,98,594.28,96,595.6a17.6,17.6,0,0,1-2.53,1.76c-2.54,1.18-3.28,7.25-6,4.79-3.41-3,1.86-5.25,3.75-7.38,3.47-3.92,7.33-10.42,12.61-8,4.45,2,5.71,8.92,5.61,14.67C109.3,604.09,109.33,606.76,109.33,610.6Z"/><path d="M49.17,818.65c7.53-1.33,10.29,3.82,10.47,8.73.15,4.15-2.43,9.35-8.43,8.91s-11.49-3.17-11.65-9.19C39.33,822.11,42.46,816.85,49.17,818.65Zm-.9,1.81c-2.61.8-4,2.06-4.33,4.11-.72,4.5,2.16,6.42,5.86,7.34,2.87.7,5.87.21,6.31-3.28.67-6.21-8.84-2-7.92-8.26Z"/><path d="M236.48,569c-5.34.17-9.17-5.23-13.37-8.33-3.49-2.59,1-8.48,4-10.73,3.38-2.48,4.92,1.89,5.79,4.58,1.25,3.84,1.84,7.82,6.43,9.41,1.79.64,3.61,2.07,2.58,4.32C241.13,570.16,239.08,568.73,236.48,569Z"/><path d="M447.11,816.88c-.26.31-.62,1.18-1.23,1.41-6.25,2.43-11.12-1.74-15.16-4.81-4.92-3.71,1.54-7.45,2.33-11.33.28-1.3,1.8-.68,2.81-.45C438.27,802.24,447.27,814.09,447.11,816.88Z"/><path d="M205.39,533.06c1.81,0,3.29.13,3.76,1.64a121.7,121.7,0,0,1,4,12.95c.33,1.46.25,4-2.34,4.49-2.06.38-4.42-.27-4.4-2.39,0-3.28-2.25-4-4.23-5.15-2.45-1.5-6.19-2.69-4.93-6.17S202.46,534.13,205.39,533.06Z"/><path d="M387.14,823.82c-13.32-.76-14.35-1.81-13.76-11.09.28-4.38,1.74-5.56,5.35-2.92,4.54,3.28,8.92,6.9,13.4,10.35a1.81,1.81,0,0,1,.66,2.47,1.71,1.71,0,0,1-.2.27C390.82,825.61,388.44,824.48,387.14,823.82Z"/><path d="M249.77,675.91c-4.74,4.93-8.91,7.06-11.68-1.32-.67-2.06-1.34-5.29-4.2-5.48-3.41-.23-2.36,3.75-4,5.38s-1.18,7.48-5.17,5.44c-3.18-1.64.64-5.11,1.22-7.79a2.1,2.1,0,0,1,.24-.77c2.32-3.15,2.63-9,7.31-8.79s7.26,4.92,8.05,9.13C242.54,677.24,246.54,675.06,249.77,675.91Z"/><path d="M445.24,617.18c-2.17-.23-4.35-.33-6.46-.76a3.27,3.27,0,0,1-2.86-3.42,2.76,2.76,0,0,1,2.35-3.14,2.27,2.27,0,0,1,.52,0c1.56-.16,3.15,0,4.19-1.77,2.1-3.73,6.23-5.66,9.45-4.07,2.57,1.28,3.85,6.56,2.6,9.22C453.53,616.49,449.28,617.69,445.24,617.18Z"/><path d="M185,535.93a78.21,78.21,0,0,1-6.32-7.51c-1.47-2.3-5.4-3.76-3.77-7.25s6.08-2.95,9.12-4.55c1.1-.59,1.64-.23,2.48.92,2.49,3.66,1.1,8.21,3.43,12.16C191.05,531.67,186.54,533.18,185,535.93Z"/><path d="M290.07,640.59h1.64c3.69.53,9.35-1.51,9.22,4.78-.12,5.87-5.37,3.64-8.83,4a17.37,17.37,0,0,0-3.89.87c-2.54.85-5.52,2.54-7.44,0a6.87,6.87,0,0,1,0-7.65,5.2,5.2,0,0,1,7-2.28A8.36,8.36,0,0,0,290.07,640.59Z"/><path d="M207.49,868.35c0,5.23-6.77,12.56-10.86,12.14-5-.51-6.38-4.7-6.92-8.73-.57-4.41,6.17-11.14,10.58-10.37A8.52,8.52,0,0,1,207.49,868.35Zm-8.31-1.92c-2.66.39-4.93,1.31-4.63,4.44.15,2.2,1,4.92,3.28,4.65,2.77-.4,5.86-2.3,6.32-5.35S201.39,867,199.18,866.43Z"/><path d="M61.87,879.85c-2.23-4.12-4.81-7.8-6.18-11.88-.74-2.15,1.72-3.68,4.26-3.63,4,0,7.93-4.64,12-.64,3.28,3.28-.9,4.32-2.12,6.38C67.79,873.53,66,877,61.87,879.85Z"/><path d="M81,846.41c-6.28-.15-11.34-6.25-11.29-13.62,0-4.49,2.68-6.25,6.76-6.36,4.92-.15,12,7.2,12,12.38C88.4,843.7,85.64,846.54,81,846.41Zm3.68-8.2a11.79,11.79,0,0,0-7.62-8.07,2.72,2.72,0,0,0-3.54,3.28c1,4,3.38,7.58,7.56,8.82,1.64.38,3.81-.75,3.6-4.1Z"/><path d="M161.93,863.78c0-4.77,1.55-8.61,7-9.12,4.66-.44,9.53,5.37,9.41,11s-2.54,10.13-8.43,11.19C165.53,877.62,161.88,871.27,161.93,863.78Zm3.5,1.65c1.64,1.78-.49,7.31,4.92,7.07,4.2-.2,5.36-3.94,4.59-7.19-.62-2.61-.69-7-5.48-6.33-3.16.41-4.89,2.33-4,6.41Z"/><path d="M147,861.77c.56,5.25-1.74,8.68-6.41,8.81-4.92.13-9.55-2-11.35-7.35a6,6,0,0,1,.16-4c2.66-6,10.19-1.16,13.52-5.9C145.4,855.75,148.22,858,147,861.77ZM143.82,863c0-2.24-.34-5.23-2.8-4.67-2.19.49-6.35,0-6.4,3.48,0,2.46,3,3.62,5.46,4.08,2.12.33,3.82-.21,3.74-2.95Z"/><path d="M335,652.06c-3.51-.18-7.63-1.87-11.68,1.64-2,1.64-3-.34-2.94-2.82,0-3.45-2.74-8.81,2.51-9.17a23.32,23.32,0,0,1,15.36,4.12c1.37,1,3,2.78,2.33,4.82C339.81,653,337.63,652.5,335,652.06Z"/><path d="M356.73,681c-2.18-3.55-.15-6.09.59-8.47,2.69-8.55,5.66-8.84,12.35-2.76,2.89,2.63,4.33,6.85,8.8,7.9,2.72.64,1.93,3.15,1.06,4.69-1.26,2.26-3.28,1.48-4.82.15-1-.86-1.74-2.09-2.71-3C363.29,670.71,363.27,670.71,356.73,681Z"/><path d="M403.55,868.1c-6.69,1.25-5.77,5.64-5.28,9.84a2.89,2.89,0,0,0,2.93,2.88l.35,0c5.66-.82,4.1-6.14,6.56-9.44,1.92,4.93.45,9.57-2.7,13.49-2.2,2.74-5.47,3.28-8.59.57-5.28-4.52-4.34-10.27-2.55-15.68C395.48,865.88,398.63,864.49,403.55,868.1Z"/><path d="M163.34,498.72c4.93-.82,6.32,3.73,4.93,4.47-6.14,3.1,8.07,10.51-2.83,11.58-2.36.23-10.5-9-10.17-11.89C155.81,497.08,161.54,500.79,163.34,498.72Z"/><path d="M392.07,676.51a24.17,24.17,0,0,1,4-15.85c2.35-3.84,5.78-3.37,8.91-.4,3.64,3.43,6.81,7.5,14.11,8.3-6.18,3.79-9.84,2.55-13.22-.42-5.71-5.1-8.45-2.25-10.73,3.49C394.59,673.22,396.15,676.39,392.07,676.51Z"/><path d="M346.7,781.21c-1.46,5.28-3.84,9.85-8.1,11.49-5.33,2-8.58-3.2-12-6.32-1.64-1.53-4.92-4.3-2.41-6.56s3.89,1.44,5.66,2.87c3.54,2.85,7.22,9.28,10.53-.36a4.11,4.11,0,0,1,4.56-2.66A1.9,1.9,0,0,1,346.7,781.21Z"/><path d="M300.08,798.68c-3.43,0-12.87-9.2-12.82-12.58,0-.64.64-1.72,1.13-1.8.92-.17,2.55,0,2.84.49,4.45,8.1,9.35,9.6,15.38,1.49a2.49,2.49,0,0,1,4.12,2.8,2.51,2.51,0,0,1-.84.78C306.15,792.3,305.56,798.24,300.08,798.68Z"/><path d="M361.86,773.8c.35-.76.53-2.06,1.25-2.51a2.51,2.51,0,0,1,3.53.52l.06.08c2.82,4.4,5.15,10.88,9.85,1.23.54-1.13,3.28-1,3.54.1,1.33,4.53-1.41,8.57-3.07,12.32-1.46,3.28-4.18,1.51-6-1.23C368.51,780.52,363.49,778.9,361.86,773.8Z"/><path d="M414,620.79c2.18,3.18,9.22,3.79,8.36,7.25-1.39,5.63-9.09,3.45-13.43,6.37-2,1.33-3.29-2-3.43-3.51C405.27,625.4,410.11,623.61,414,620.79Z"/><path d="M474.1,860.08c-.59-1.94-.67-3.83,2.12-4,2.46-.18,2.21,1.83,2.33,3.41.34,4.58,0,8.88-5,11-3.11,1.28-5.39-.38-7-2.67-3.14-4.37-2.46-9.13-.51-13.75.67-1.56,2.29-1.4,3.53-.71,1.54.89,2.51,1.84.11,3.28-.75.46-.89,2.45-.85,3.71,0,2.17.21,5.09,2.92,5.05C474.62,865.28,475.74,863.11,474.1,860.08Z"/><path d="M201.52,776c-.49,4.5-1.64,9.55-7.53,9.26s-10.15-4.4-12.43-10c-.28-.67.44-1.92,1-2.67.14-.22,1.64.15,2.06.6,1.35,1.32,2.32,3,3.73,4.22,4.18,3.51,7.69,3.73,9.51-2.41.41-1.36-.54-3.87,1.84-3.66S202.38,773.62,201.52,776Z"/><path d="M130,914.43c-7.59,6.94-8.32,15.72-10.46,23.87a19.94,19.94,0,0,0-.12,8.07c.31,1.88,4,3.45.31,5.52-.83.47-2.34,1-2.85.6-1.82-1.42-1.74-3.52-1.64-5.77,0-10.53,4.67-19.69,8-29.32C123.84,915.63,125.56,913.81,130,914.43Z"/><path d="M175,663.53c-.57.75-.93,1.64-1.52,1.88-1.28.45-2.76.6-3.55-.93a35.4,35.4,0,0,1-2.7-5.87c-1.78-5.8-4.2-7.91-8.44-1.83-.6.87-1.21,2.25-2.23,1.09-2.62-3,.9-4.84,1.92-7s1.92-6.68,5.84-4.37C170.58,650.24,170.32,658.41,175,663.53Z"/><path d="M295.09,686.55c-6.56,3.77-9.76.82-11.78-1.5-4.1-4.75-7.75-6.64-12.6-1.39-.77.84-1.64,1.39-2.77.57a2.1,2.1,0,0,1-.73-2.88,21.34,21.34,0,0,1,10.55-7.09c3.28-.9,4.65,2.33,5.63,4.79C285.13,683.45,289.05,685.07,295.09,686.55Z"/><path d="M316.6,685.33c.88-3.59.54-7.15,2.69-10.32,4-5.9,8.2-6.46,13-1.49a13.23,13.23,0,0,1,2.38,3.28c1,2.12,6.57,2.07,3.86,5.43-3.41,4.22-4.76-1.21-6.4-2.82-6.14-6-6.89-6-11.48,1.84C319.88,682.66,319.88,685.15,316.6,685.33Z"/><path d="M151.94,767.17c.54-1.64-.79-3.86,1.64-4.33s2.51,1.78,2.71,3.18c.8,5.72,2.74,6.46,6.73,2.05,1.24-1.38,3-.62,4.16.9,1.41,1.81-.41,2.54-1.28,3-3.44,1.83-2.21,9.67-7.74,7.53C153.39,777.63,153,771.66,151.94,767.17Z"/><path d="M241,782.69a135.16,135.16,0,0,1-10.34,8.79,5.12,5.12,0,0,1-7.21-.62,5.47,5.47,0,0,1-.52-.74c-.62-.89-1.64-1.64-1.95-2.58-.92-3.13-6.46-6.23-3.28-8.67s4.09,3.28,5.79,5.47c3.92,5.16,6.76,2.07,9.85-1A6.35,6.35,0,0,1,239,781C239.62,781.1,240.08,781.88,241,782.69Z"/><path d="M124.74,748.1c4.13.66,4.22,4.14,6.23,5.79,1.65,1.35,2.81,5.81,5.3.61a2.16,2.16,0,0,1,3.4-.79,3.82,3.82,0,0,1,.75,3,11,11,0,0,1-5.93,8.07c-2.6,1.18-3.84-2.43-4.93-4.41C127.61,756.55,122.84,753.75,124.74,748.1Z"/><path d="M254.25,782.9a7.64,7.64,0,0,1,4.48,3.92c2.3,4.2,4.6,6.25,7.6.49a2.34,2.34,0,0,1,3-1.37,1.81,1.81,0,0,1,.37.18,2.61,2.61,0,0,1,1.26,3.47,3,3,0,0,1-.45.66c-2.1,2.72-2.86,7.24-6.48,7.89-4.14.76-5.38-3.87-7.37-6.56C255,789.4,253.22,786.74,254.25,782.9Z"/><path d="M154,483.25c-.16,2.69-.34,5.4-.51,8.09-.13,2.17-1.64,2.48-3.39,2.71-2.1.28-3-.66-3-2.71s.33-3.62-2-4.92c-1.44-.79-5.35-.21-3.69-3.82,1.22-2.64,4.15-2.87,6.45-2.35S153.94,478.82,154,483.25Z"/><path d="M223.16,968.18c-7.23-13.13-5.2-27.12-4.12-41C222.19,940.65,218.32,954.82,223.16,968.18Z"/><path d="M64.48,928.8c2,5.25-1.87,7.34-5,9a7.93,7.93,0,0,1-9.17-1c-2.14-1.87-1.95-4.53-1.35-6.84.53-2,2.07-4.43,4.35-3.73,1.46.46,5.09,1.87,2,5.24-.92,1,.11,1.9,1.64,1.82C60.25,933.17,61.77,930,64.48,928.8Z"/><path d="M98.08,730.43c-3.69,3.92-6.91,10.06-10.62,8.21C81.84,736,79.56,728.91,77,723a2.22,2.22,0,0,1,.92-1.93,2.31,2.31,0,0,1,2,.57,22.3,22.3,0,0,1,1.64,2.74c3,4.56,4.92,11.37,12.53,5.43C94.65,729.43,96.13,730.14,98.08,730.43Z"/><path d="M468.08,636.65c-3.28,0-2.4,2.84-3.15,4.61-.51,1.2-1.35,2.74-2.89,2.27a2.41,2.41,0,0,1-1.56-3,2.32,2.32,0,0,1,.58-1,16.08,16.08,0,0,0,3-8.12c.59-3.28,3.11-4.79,5.57-1.36,2.14,3,8.29,4.26,6.57,8S470.82,638.33,468.08,636.65Z"/><path d="M194.24,667.2c-1.43-6,.41-9,3.28-11.48,1.44-1.28,3.76-2.17,5-.13,3.08,4.92,3.9,11.14,8.2,15.53.13.14-.59,1.5-1.18,1.79a2.1,2.1,0,0,1-2-.24,26.14,26.14,0,0,1-3-4.73C202.08,662.89,200.42,655.26,194.24,667.2Z"/><path d="M146.5,652a19.84,19.84,0,0,1-6.32-11.86c-2.92-.44-4.32,3.5-7.91,2.07,1.85-5.22,6.35-9.39,10.42-7.06C147.5,638,147.13,644.74,146.5,652Z"/><path d="M48.25,706.28c3.28,10.08,11.13,10.81,19.81,10.55-5.32,1.31-10.06,8.21-13.23,5.6C51,719.29,48.29,713.12,48.25,706.28Z"/><path d="M231.81,932.3c1.44,12.8-1,24,3.17,35.17C228.64,963.31,226.79,944.55,231.81,932.3Z"/><path d="M470,763.49c-1.11,4.56-3.72,7.81-7.33,8.57s-5.74-3.43-8.05-5.75a2,2,0,0,1,2.33-3.28c3.8,1.35,6.9,1.76,10.3-1.1C468.8,760.57,470.08,762,470,763.49Z"/><path d="M445.36,768.68c0,.52.21,1.16,0,1.54-1.92,3.08-1.37,9.53-6,8.63-4.28-.84-5.35-6.83-6.87-11a3.29,3.29,0,0,1,.75-3,1.64,1.64,0,0,1,2.31.25,1.75,1.75,0,0,1,.32.64C437.74,770.92,440.83,771.22,445.36,768.68Z"/><path d="M421.22,861.31c-5.86,8.2-4.92,10.17,5.07,12.27-2.84,4.28-6.56,2.89-9.84,1.64-3.55-1.36-4.17-4.72-3.48-8.2C413.77,863.28,415.71,860.7,421.22,861.31Z"/><path d="M392,769.83c2.53-.25,3,3.51,5.64,2.49,2.14-.82,5.29-3.05,5.38,1.11a8.57,8.57,0,0,1-5.16,7.68c-3.12,1.23-3.42-2.29-4-3.9C393.05,775,390.79,773.2,392,769.83Z"/><path d="M458.27,929.87a17.81,17.81,0,0,1-15-.75c-1.82-.91-3.28-2.68-2.15-4.7,1.26-2.39,3.28-1.47,4.63,0C449.11,928.16,454.13,927.7,458.27,929.87Z"/><path d="M50.32,901.6c-6.94,1.12-12.6-1.34-18.41-1.38-1.44,0-2.79-.72-2.67-2.39.15-2.28,1.92-2.46,3.57-2C38.34,897.53,44.4,897.7,50.32,901.6Z"/><path d="M248.85,593.19c-2.65-.62-5.93-1-6-4.31,0-2.66,2.31-3.18,4.75-2.15s6.86-.49,6.86,3.82C254.48,593.88,251.18,593.23,248.85,593.19Z"/><path d="M228.61,579.12c-1.48,1.13-1.76,1.47-1.89,1.42-4.21-1.36-9.84.22-12-5.36a2.2,2.2,0,0,1,1-2.95,2.29,2.29,0,0,1,.67-.22C222.11,571.24,223.57,577.36,228.61,579.12Z"/><path d="M312.94,850a6.12,6.12,0,0,1-5.89,1c-2.94-.69-8.57,2.49-8.2-2.54.23-4.14,5.8-1.64,9-1.94A4.72,4.72,0,0,1,312.94,850Z"/><path d="M145.58,516.56c-1.38.7-2.14,1.44-2.63,1.29-3.28-1-4.66-4.18-6.22-6.84-.95-1.64-3.06-3.41-1.54-5.67a3.8,3.8,0,0,1,2.69-1.07C140.74,508.09,141.57,513.05,145.58,516.56Z"/><path d="M360.57,579.35c-5.52,4.33-9.39,6.64-14.28,6.71-1.64,0-3.38-.89-3.28-2.78a3.73,3.73,0,0,1,2.41-2.64C349.74,580,354,579.85,360.57,579.35Z"/><path d="M276,843c-6.32,4.78-12.57,2.18-17.24,5.19-.71.46-1.65-1.15-1.65-2.28-.13-2,.94-2.92,2.91-2.92Z"/><path d="M404.91,839.78c-3.59-.7-7.72.15-8.66-4.58-.2-1,1.54-2.29,2.17-1.49,2.93,3.68,9.58-1.43,10.86,4.4C409.75,840.23,406.21,839,404.91,839.78Z"/><path d="M94.36,634.9c.11,2-1,3.16-2.38,2.67-3.5-1.29-7.17-2.75-8.47-6.74-.43-1.35,1.1-3.18,2.15-2.54C88.81,630.24,92.29,631.93,94.36,634.9Z"/><path d="M158.42,830.64c-5.94,2.1-10.42,1.73-14.25-1.82-.41-.37.18-2.77.45-2.8C149.55,825.54,153.66,827.63,158.42,830.64Z"/><path d="M180.21,548.57c-.39,2.87-1.41,3.41-3,2.8-3.41-1.29-7.82-1.31-8.71-6.07-.29-1.51,1.13-3.15,2.3-2.57A105.87,105.87,0,0,1,180.21,548.57Z"/><path d="M476.66,826.51a16.77,16.77,0,0,1-2.15,3.07,12.25,12.25,0,0,1-10.45,2.1c-.63-.17-1.51-2.15-1.22-2.59,2.37-3.5,6.24-2.1,9.54-2.55A38.18,38.18,0,0,1,476.66,826.51Z"/><path d="M350.12,846.64a4.17,4.17,0,0,1-4.09,4.17c-2.48.36-5.13,2.64-7.56.16a3.24,3.24,0,0,1-.72-2.85c1.64-3,4.79-1.2,7.25-1.64A25.07,25.07,0,0,1,350.12,846.64Z"/><path d="M158.46,536c-4.4-1.35-8.4-2.3-8.93-7.15-.11-1,1.39-2.81,2.82-2.17C155.81,528.26,158.72,530.54,158.46,536Z"/><path d="M376.3,839.42c2.3-.46,4.74-.54,4.54,1.35-.45,4.52-4.84,3.28-7.69,4.11-1.76.46-4.53.15-4.22-2.31C369.57,837.37,374.69,841.62,376.3,839.42Z"/><path d="M451.69,672.63c-1.86,1.12-2.64,2-3.51,2.07-3.38.39-7.06,1.64-10.06-.52-2.31-1.65,0-4.43,3.28-3.68,1.82.41,3.63.92,5.45,1.31C448.05,672.12,449.31,672.27,451.69,672.63Z"/><path d="M117.41,648.89c-.5,2.81-2.22,2.35-3.83,2.14-3.61-.51-7.13-1.33-7.84-5.65a2,2,0,0,1,1.58-2.32,2,2,0,0,1,.92,0A19.48,19.48,0,0,1,117.41,648.89Z"/><path d="M59.29,792.48c-.45.81-.54,1.13-.7,1.17a13.78,13.78,0,0,1-12.7-3.09c-.8-.7-.44-2.75.48-2.75C51.22,787.74,55.06,790.53,59.29,792.48Z"/><path d="M223.74,837.24c2.29-1.12,4.79.57,4.49,1.82-.9,4.07-5.12,2.41-7.87,3.28-1.73.54-4.93,0-4.58-2C216.65,836,221.11,838.58,223.74,837.24Z"/><path d="M433.3,542.74c.31,4.14-3.2,5.3-5.47,7.27-1.24,1.08-2.74,3.58-4.61,1.64s-.59-4.35,1.51-5.28C427.5,545.2,429.29,541.53,433.3,542.74Z"/><path d="M197,559.05c2.38.84,5.68,1.12,6.43,4,.63,2.4-1.78,3-3.83,2.58-2.58-.54-5.86-.56-6.27-4.05C193.11,559.43,195.19,559.3,197,559.05Z"/><path d="M67.12,613.57c1.26.53,2.53.64,3.08,1.33,2.09,2.61,6.57,3.46,6.06,7.91,0,.44-1.64,1.18-1.74,1.1C71.85,620.77,65.35,620.41,67.12,613.57Z"/><path d="M337.2,332.86a400,400,0,0,1-61.41-7.34c-17.75-3.36-34.29-9.66-50.86-16.65-18.65-7.83-25-22.64-28.56-40.25-.85-4.23-1-8.76-2.59-12.69-3.15-7.73,3.53-14.51,1.64-22.05-.12-.51,2.39-2.06,3.85-2.5,1.84-.56,3.15.92,3.83,2.38,5,10.91,15.22,17.39,22.64,26.25,7.89,9.45,18.87,14.45,30.58,17.57,15.52,4.14,29.24,13.34,45.25,15.88a124.77,124.77,0,0,0,41.26-.52c8.34-1.48,16.52.31,25.12-1.92,8.2-2.15,17.05-3.28,25.08-6.56,8.93-3.63,17.89-6.37,27.62-5.84,1.8.09,4.28-1,5.07,1.19a6.46,6.46,0,0,1-1,6.93c-13.68,15-25.9,32-45.83,39.29A109,109,0,0,1,337.2,332.86Zm13.13-16c.21,3.91.9,9.52,4,8.63,4.1-1.16,10.31.41,12.44-5.05,1.13-2.95-6.74-15.88-8.84-15.31-6.08,1.66-6.29,7.35-7.63,11.73Zm-58.74,4.81c2.65,1.15,5.45.69,4.38-1.48-2.26-4.62-3.51-10.74-8.36-12.89-2-.87-6,3.28-6.29,7.15-.59,8.35,7.09,5.14,10.24,7.22Zm10.11-21.54c3.63,6.56,1.39,14.9,10.39,14.52,4.15-.17,4.29-4.46,4.24-7.58-.21-10.65-8.51-4.17-14.66-6.94Zm-75,4a18.77,18.77,0,0,0-2.25-14.65c-1-1.76-1.48-4.56-4.28-4-2.32.46-3.1,2.92-3.81,4.92-3.31,9.22,6.22,8.38,10.3,13.73ZM332,326.33a79.9,79.9,0,0,0-2.23-9c-1-2.83-.16-6.44-3.51-8.92-4.56,4.45-6.35,10.06-4.59,15.54,1.44,4.57,6.46,1.51,10.3,2.38ZM237.3,284.75c.79,2.86-.86,7.53,4.8,7.47,4.05,0,5.44-2.42,5.43-6.48,0-5.45-4.07-7.65-7.72-7.94-3.31-.27-2.08,4.16-2.54,6.95Zm24.22,30c-4.18-5.37-3.12-12.86-10.4-13.36-2.92-.21-4.33,2.86-3.73,6,1.45,7.71,7.86,5.5,14.1,7.37Zm-47-47.12c-.12,3.46-.41,7.27,4.11,7.6,4.16.29,6-4.3,6-6.57a8.88,8.88,0,0,0-6.73-7.64c-4.33-.59-2.85,4.12-3.4,6.61Zm67.26,30.93c-.75-3.84-2.23-6.83-6.2-6.76-3.18,0-3.74,2.93-3.54,5.35.26,3.16.85,7.25,4.67,7.41,3.14.15,4.24-3.46,5-6Zm94.9,5.18c1.25-4.28-.48-6.41-4.61-6.68-1.86-.11-3.66,1-2.77,2.76,1.64,3.2,1.21,8.45,5.18,9.27,3.43.7,1.76-3.48,2.13-5.35Z"/><path d="M319,262c-.16-4.37-3.28-5.63-5.87-7.55-3.14-2.39-2.84-4.1,1.13-5.43,11.25-3.77,15.37-1,15,10.91-.21,7.38-.46,14.85-10.2,17-9.43,2.07-14.62-1.44-14.77-11.06,0-1.64.77-3.28-.37-4.69-2,.81-2.22,2.94-3.29,4.45-8.2,12.45-18.5,12.71-27,.41-2.92-4.23-4.26-8.37-11.68-7.22-5.28.84-7.69-5.81-7.28-11.48a18.94,18.94,0,0,1,7-14.16c5.5-4,7.91-9.59,9.56-15.48,3.75-13.38,13-23.55,19.69-35.17.86-1.49,2.53-3.66,4.55-2.15s0,3.58-.87,4.92c-7.24,10.52-14.19,21.1-18.59,33.31a72,72,0,0,0-4.27,28.71c.43,8,5,13.76,10.55,18.62,3.89,3.41,8.65,3,12.42-1a24,24,0,0,0,3.14-4.71c5.92-10.37,7.2-10.4,15.43-.58A5.58,5.58,0,0,0,319,262Zm-52.14-24.92c-5.79,1.82-6.56,5.95-7.56,9.32a5.19,5.19,0,0,0,3.57,6.42,4.15,4.15,0,0,0,.61.14c2.71.23,3.48-2.79,3.4-5.48C266.75,244.42,266.82,241.14,266.82,237.11Z"/><path d="M431,229.2c-.25,9.3-6.56,19.39-12.16,20.29-9.84,1.64-18-3.44-22.83-14a19.16,19.16,0,0,1,5.47-23.2,5.91,5.91,0,0,1,2.11-1.2c8.38-1.47,14.86,4.22,22.23,6.42C430.69,219,430.44,225.41,431,229.2ZM426,230.84c1-7.12-2.33-10-9.85-9.65-3.28.17-7.59,1.73-9.95-3.18-1.64-3.28-2.89-.13-3.88,1-4.2,4.92-3.28,12.11,2.42,19.19,3.72,4.65,8.92,7.19,14.35,5.43s7.4-6.71,6.84-12.79Z"/><path d="M215.12,204.89c-9.28-.37-21.42-12.38-20.8-20.56.39-5.14,9.73-17.28,13.12-17.18,19.92.54,26,4,25.89,14.57C233.27,193.09,223.69,205.23,215.12,204.89Zm13.93-23.52c-1.28-5.13-4.92-7.76-11-7.64-11.48.21-18.27,3.82-18.42,10S211,200.05,218,199.7C222.36,199.5,229,188.86,229.05,181.37Z"/><path d="M268.43,361.78c3.28-9.61,13.24-13.26,31.28-12.57,8.77.33,19,8.12,21.23,17.49-8.36-5.95-15-12.57-25.16-12.86C286.1,353.58,277.6,356.1,268.43,361.78Z"/><path d="M377.3,196.16c-2.82-1-1.23-4.55-3.28-6-3.41-.25-1.07,5.25-4.3,4.54s-2.05-4-2.48-6.15c-.69-3.61-1.08-7.29-1.64-11C376.27,180.34,382.08,189.77,377.3,196.16Z"/><path d="M390.85,230.66c2.55,8.42,4.71,16.26,9.26,23.15C390.43,249.12,386.14,238.75,390.85,230.66Z"/><path d="M269.74,150.46a2.07,2.07,0,0,1-1.68,2.39h0c-4.65,1.15-5.6,7.74-11.13,7.45-.44,0-1.21-.54-1.23-.87-.34-5.15,4.27-6.37,7.17-9a5.05,5.05,0,0,1,6.68-.72C269.67,149.83,269.67,150.22,269.74,150.46Z"/><path d="M359,196c-2.15-1.1-5-1.95-4.93-4.77s-3.41-5.45-.88-8.47c.75-.9,2.31-1.29,2.87-.34a86.33,86.33,0,0,1,5.66,11.09C362.14,194.66,360.45,195.73,359,196Z"/><path d="M235.06,195.81a18.37,18.37,0,0,1,.55,4c-.83,4.4-3.28,8.51-7.1,9.84-2.8,1-2.71-2.06-1-4.12,1.35-1.64,2.61-3.28,3.89-4.92C232.33,199.39,233.25,198.16,235.06,195.81Z"/><path d="M271.56,168.45c-2.39.34-3.08-.76-3-2.28.25-3.55,2.61-5.19,5.83-5.57,1.54-.19,3.87,0,3.13,2.38A9.25,9.25,0,0,1,271.56,168.45Z"/><path d="M369.23,956.2c-7.76-5.43-10.67-20.46-5.83-29.76C365.82,936.68,362.72,947.39,369.23,956.2Z"/><path d="M388,923.39c-2.05,10.81-1.77,19.9,4.92,27.63.34.39-.23,2.13-.87,2.74s-1.64.24-2.59-.71C384,947.06,382.58,931.61,388,923.39Z"/><path d="M376.3,927.77c1.33,9.73,0,19.33,8.33,26C375.66,953.81,370.54,938.58,376.3,927.77Z"/><path d="M409.24,921.39c3.4,9.5,3.86,19.69,7.75,28.92C411.92,941.32,408,932,409.24,921.39Z"/><path d="M278,511.23c2.18,1.26,5.34,2.26,4.92,5.9-.22,2.18-2.22,2.84-4.25,2.66-3.68-.34-3.74-3.15-3.78-5.87C275,512.19,275.29,510.64,278,511.23Z"/><path d="M476.53,247.59c4.72-1.16,7.13,1.33,9.84,3.81,2.05,1.9,4.92,4,3.28,6.56-1.83,2.85-4.23-.31-6.17-1.38-4.51-2.49-7.23-1.44-8.08,3.74-.4,2.33-.19,5.78-3.29,5.52s-2.06-4-2.36-6.17c-1.21-9.26,6.7-23.33,14.57-27.29,4.92-2.46,6.86,1.64,8.2,4.09,1.55,2.84,2.1,7.07-.85,9.84-1.74,1.64-2.69-.65-3.12-2.07-.64-2.16,1.05-5.51-2-6.31s-4.17,2.92-6.06,4.67A41.22,41.22,0,0,0,476.53,247.59Z"/><path d="M340.65,531.75c-.3,3-1.74,3.91-3.45,3.28a23.86,23.86,0,0,1-11.87-9.19c-1.76-2.74.34-4.92,2.44-4.16C333.28,523.58,333.87,531.67,340.65,531.75Z"/><circle cx="215.4" cy="185.59" r="3.28"/><circle cx="414.35" cy="232.14" r="4.74"/></g></g></g></g></svg>