<svg xmlns="http://www.w3.org/2000/svg" viewBox="0 0 760 760"><defs><style>.cls-1{fill:#fc63c6;}.cls-2{fill:#87125d;}</style></defs><title>skull_1</title><g id="Lager_2" data-name="Lager 2"><g id="home"><circle class="cls-1" cx="380" cy="380" r="380"/><g id="Lager_2-2" data-name="Lager 2"><g id="skull"><path class="cls-2" d="M193.84,551.29c-1.26-7-7.8-10-11.75-14.8-11-12.94-20.66-25.87-13.59-45,4.53-12.19,5.36-25.7,9-38.28a48.13,48.13,0,0,0-9.9-47c-12.75-15-19.37-30.69-9-49.17,9.76-17.62,3.89-36.81,6.93-55.12a337.56,337.56,0,0,1,11-47.5c13.64-42.8,36-81.2,60.71-118.32,19.06-28.55,49-41.31,78.59-55.19,63.13-29.6,124.64-26.52,184.15,8.45,28.54,16.86,47.88,43.7,65.72,71.58,14.17,22.13,25.21,45.64,35.86,69.36,14.77,32.86,22.33,67.16,15.77,103.64-4,22.63-6.28,45.68-11.57,68-8.55,36.3-26,68.55-47.72,98.59-18.58,26-44.64,42.26-71.67,57.4-4,2.21-4.16,5.4-4.88,8.31-3.8,15.55-9.71,29.77-23.24,39.73-3.24,2.41-2.58,6.25-2.57,9.62.26,14.48-6.71,26.24-13.43,38.36-8.1,14.58-21.49,20.13-36.37,21.12-16.22,1.1-34,3.26-48.65-1.94-23.19-8.25-48.07-6.54-70.82-16.81-24.15-10.91-49.7-18.91-75.06-26.84-13-4.1-18.64-13.42-21.75-24.76-4.6-17.41-2-35,.51-52.49.33-2.33,2.33-1.87,4-1.22q14.76,21.32,29.48,42.72c-13.9-5.54-16.45-20.93-27.46-29.87C190.63,578,203.4,584.37,207,594.13c1.1,3,4.5,5.18,2.9,9.2-3.76,9.57-1,16.33,8.23,18.8,27.85,7.45,54.47,18.62,81.42,28.33A257.18,257.18,0,0,0,412.39,664.4c29.41-2.88,38.81-33.3,36.54-53.26,0-1.19-.71-3.29-1.25-3.34-8.48-.94-17-1.7-25.51-2.33-5.76-.43-5,4.78-6.47,7.95-.95,2.07-1.67,4.22-4.42,3.27s-1.64-3.52-1.31-5.47c1.33-7.46-2.14-9.71-9.22-10.11-8.94-.47-18.59-3.72-18.67,10.82,0,1.56-2,2.6-4.94,1.85-2.61-5.44,3.49-16.44-8.88-17.37-6.84-.53-14.08-3.37-20.35-1.85-6.94,1.67,3.14,13.52-7.58,16.55,1.08-14.64-5.7-22.85-20-22.17-6.94.33-12.57-.54-18-4.81a4.57,4.57,0,0,0-6.19,1.21c1.78,9.95,14.1,12.31,18.19,24.12L297.3,596.35c-1.11,4.23-1.9,7.29-2.57,9.7-17.61-5.38-22.84-25.38-40.5-30.42L279,604.27c-10.37-.34-11.77-10.5-18.46-11.81-5.5,6.83,7.64,8.18,2.94,15.06C249.25,596.43,239,582,226.87,569c-4.28,10.89,8.56,15.53,8.72,28-11.16-16.31-25.48-25.87-31-42.6C203.48,550.36,198.6,548.4,193.84,551.29Zm1.28-42.69c10.08-3.88,7.42,2.29,6.27,7.76-5.14,24.17-4.67,24.51,10.28,31.39,6.35,3,8.63,2.58,10.35-4.73,1.44-6.25.21-13,3.49-18.91,1.42-2.59,1.28-6.53,5.53-5.19s3.28,4.94,2.14,7.54c-3,7-2.09,14.44-3.29,21.62-1.74,10.55,8.54,10.06,13.86,11.61,4.77,1.36,8-3.86,8.27-10.1a244.14,244.14,0,0,1,3.81-25.23c7.5,4.42,7.54,9.86,5.48,15.31-2.4,6.38-1,12.83-1.49,19.21-.38,4.74,2.09,6.94,6.16,8.48,25.71,9.69,26.87,8.91,27-18.74V546c.2-2.34-1.1-5.88,2.84-5.81,3.31,0,3.84,3.44,3.48,5.82-3.86,24.71,8.71,35.26,31.6,37.05h3.7c0-25.32,0-25.32,6.59-34.69,3,5.18,1.47,10.36,1.48,15.11,0,21.72,1.82,23.63,23.18,25.55,6.81.61,11.35-.36,10.66-9-.64-7.77-.17-15.55-.18-23.32,6.08,7.35,8,14.6,7.83,25.17,0,5,1.26,8.22,5.64,10.36,17.67,8.39,25.67,3.65,25.63-15.19a3.87,3.87,0,0,1,0-1.27c2.16-5.73-4.52-17,2.79-16.75,9.15.34,4.66,12,4.73,18.55,0,19.1-.25,19,17.93,21.08,5.72.64,10.37,1.2,8.53-7.45a66.46,66.46,0,0,1,0-18.15c.31-3.7-2.61-10.2,4.08-10.37,7.13,0,3.3,6.13,3.65,9.84.61,6.79-2,14.26,4,21.37,12.27-17.67,18.86-36.5,16-56.09-3.34-23.32,8.27-36.31,25-47.69,3.52-2.42,7.43-4.24,11-6.53,17.66-11.26,25.68-27.74,26.6-48.34,1.41-31.55-10.65-58-29.44-82.41-7-9.14-15-12.39-25.63-10.32a139.71,139.71,0,0,0-40,14,123.1,123.1,0,0,0-37.8,33.33c-3.74-6.39-2-10.36,1.58-14.7,16.16-19.75,37.51-31.51,61.48-37.81,28.49-7.47,38.61-2.26,55.2,22.17,5,7.3,6.12,16,10.41,23.31,12,20.16,14,42.34,10.51,64.43-1.77,10.76-3.59,19.84,4.31,28.19,3.42,3.6,3.42,12.26,8.37,11.11,3.93-.92,6.12-8.52,9.48-13,4.11-5.33-1.55-7.78-3.34-10.88-5.39-9.37-12.74-17.78-13.23-29.24,5.87,7.4,10.4,15.53,15.37,23.3,1.45,2.17.33,8.73,5.87,5.74,3.73-2,4-6.7,2-10.37s-4.79-6.11-6.89-9.34c-4.34-6.73-9.9-12.94-10-25.12L579,450.12l4.56-12.34-.28.26c7-5.36,7.75-10.39,1.34-17.53a24.67,24.67,0,0,1-7.69-18.12c7.35,6.43,7.81,16.28,16.81,19.32,2.1-10.63-9.52-15.84-9-28.49l10.71,15.29c8.94-13.34-10.41-19.26-6.44-30.75,6.17,1.8,4.79,10.78,11.48,12.21,5.54-12.68-11-20-8.16-32.69,5.74,3,3.45,12,13.17,11.69-8.56-13.33.82-25.38,2.79-37.38,1.49-9,7.35-18.52,5.8-28.52A346.59,346.59,0,0,0,604,255.66c-12.37-40.38-32.77-76.94-57.26-111.33-5.35-7.53-10-16.36-20-22-.86,22.26-18.06,41.3-6.19,63.74,1.06,2-.66,5.42-1.36,9.91,10.36-5.65,19.17-4.45,25.18,4.48,5.64,8.36,13.38,14.12,21,20.28,2.46,2,6.56,3.27,4,8.93-10.55-4.82-19.82-10.79-25.67-21.23s-14.49-12.92-24.49-7.1c-8.28,4.76-9.77,12.39-6.69,21.63,3.24,9.77-1.85,20.74-8.37,23.94a77.87,77.87,0,0,0-31.31,25.44c-1.14,1.59-3.13,3.61-5.18,1.31s-.66-4,.95-5.68c9.07-9.35,16.39-20.61,29.83-25.15,6.6-2.22,10.68-11.92,8.42-15-7.57-10.49.35-17.94,2.53-26.34,1.52-5.79,6.25-12.07,3.31-17.27-8.74-15.35-2.83-28.51,3.23-42.49,2.83-6.56,2.95-14.29,5.63-20.93,1.78-4.43,0-6.45-2.61-8.62-18.41-14.48-37.64-27.37-60.26-34-16.57-4.84-33.19-9-51.54-6.91,8.66,13.25,24,21.74,18,40.49-2.57,8.41-17.12,29.28-22.72,27-11-4.46-16.82,3.61-24.64,7-1.94.83-1.93,4.77-5.9,2.61-5.48-3-6.84.92-6.47,5.5C366.64,169.2,354.18,175,345.05,183a2.81,2.81,0,0,1-4,.31,2.67,2.67,0,0,1-.5-.56c-.52-.83-.48-3,0-3.34,14.55-8.27,21-21.14,21.72-37.42,0-.26.62-.62,1-.75,5.67-2,3.07-4,1.35-8.17-5.86-14.35-15.09-14-26.58-8.32-5.46,2.61-10.75,3.42-15.12-2.09a8.82,8.82,0,0,0-8-3.15c-3.65.27-8.55-.31-8.25-4,.43-5,6-3.95,9.64-3.59,2.85.28,6.69,1.18,8.06,3.17,4.42,6.37,8.64,4.59,14.31,1.94,13.16-6.17,23.06-3.26,28.53,9.79,4.95,11.57,10.2,14.67,20,5.61,3.21-3,7.23-2.4,11.09-2.15a12,12,0,0,0,10-4.25c14.46-14,15.5-24.27,3.13-39.95-4.42-5.53-8.38-16-14.26-15-18.63,2.63-38-3-56.07,6-19.63,9.84-39.8,18.56-59.56,28.19-5.51,2.61-14.53,3.33-11.55,13.71.15.57-1.43,1.67-2.2,2.6-9.25-9.49-7.56,3.46-10.9,5.65s-4.7,7.58-7.39,9.65c-7.3,5.59-7.77,4.87-4,12.66,1,2.15,1.93,4.79-1.12,6.2-4.59-.43-1.89-8.34-5.67-7.48-10.34,14.25-20.08,27.9-4.65,44.3-8.19-2.91-8.24-11.75-15.58-14.3-2.26,9.6,8.74,15.33,5.45,25.5-5.85-4.71-7-11.11-9.89-16.47-14.25,15.92-15.12,32.74-4.37,50.94-7.79-4-7.11-11.72-12.61-16.72-7,13.73,6.79,22.9,7.51,35.55-8.4-4-7.52-13.62-13-18.45-12.52,13.27,5.22,21.14,5.84,32.25-6-1-6.31-5.69-8.8-8.4-1.66-1.74-1.91-7.18-6.08-4.32-2.27,1.59-2.19,4.78.18,7.78,4.78,6.29,8.78,13.17,13.75,20.7,11.58-15.57,27.76-11.56,42.35-11.1,28.52.9,50.91,11.48,60.22,41,2.3,7.28,2.39,15.13,6.66,22,1.82,2.92,5.48,8.72-.91,10.52-3.55,1-5.2-3.82-6.79-7.76-4.21-10-3.44-21.37-8.15-30.82-9.65-19.34-27.91-25.86-47.85-27.56-15.73-1.34-33.16-4.05-43.57,11.73-14,21.08-27.23,42.59-34.59,67.26a33.69,33.69,0,0,0,7.49,34.24c9.64,11.21,18.92,24.64,17.39,39-1.44,13.77-4.84,26.21,5,37.93a26.08,26.08,0,0,1-1.73,2.18c-3.79-1.59-3.75-8.2-9.61-7.6-2.38,10.09,10.09,15.28,9,25.59-5.75-1.44-5.41-9.13-11-9.64-1.52,1.92-.3,3.34.35,4.9,3.36,8.1,10.14,13.69,15.05,20.7-4.17.76-6.48-3.28-10.87-4.28.77,6,4.69,11.52-.25,17.31a5.19,5.19,0,0,0,3.49,8c3.17.72,3.76-2.6,4.24-5.19C193.26,519.52,194.15,514.05,195.12,508.6Zm339.15.4c-3.07-4.74-6.35-9.34-9.08-14.29-1.48-2.59-1.93-6.32-6.07-4.31-4.64,2.21-1.11,4.66.14,7.15,3.23,6.32,7.1,12.48,5.51,20.52l-13-22.29-2.28,1.3,11.92,25.5c-6.84,1-5.71-6-9.94-6.51-2.58,3.38,2.77,8-1.45,11.23-9.88-16.23-9.88-16.23-17-18.86a48.71,48.71,0,0,0,1.87,5c12.26,24.62,12.29,24.6,34.18,7.7,18.63-14.29,18.83-15.79,4-34.16-1-1.3-.81-5-4.07-3.47s-2.82,4.08-1.49,6.56c3,5.83,7.61,10.82,6.67,19ZM174.37,289a13,13,0,0,1-.9,4.62c-3.87,6.25.18,9.85,4.67,12.3,5.34,2.94,5.59-3.33,8-5.64,9.32-8.73,5-16.37-2-23.64-1.74-1.81-2.6-6.81-6.46-3.69-2.58,2.08-1.49,5.37-.26,8.32,1.69,4,7.78,6.1,5.8,11.76C178.29,295.33,178.8,288,174.37,289ZM540.48,466.25c-6.28,9.86-3.09,26.26,5.25,32.28,2.9,2.15,4.82.87,6.32-1.39,1.24-1.87,5-5.45,2.58-6C540.34,488.28,543.43,476.35,540.48,466.25Zm-42.66,76.91c3.13-1.9,6.29-3.25,3.38-7.78s-4.32-9.3-6.85-13.75c-1.25-2.25-2-6.81-5.84-4.89s-3.1,5.35-1,8.84c2.78,4.74,5.07,9.79,7.6,14.71C495.85,541.43,495.31,543.86,497.82,543.16ZM273.18,579a60.91,60.91,0,0,0,14.4,17.07c1.3,1.19,2.6,2.25,4.38.93a3.27,3.27,0,0,0,.71-4.57l0,0C288,586.19,284.56,578,273.18,579Z"/><path class="cls-2" d="M373,487.54c-.28,3.84-16.65-6.05-6.08,7.14a3.43,3.43,0,0,1,0,3.22c-1.21,1.68-2.77,1.07-4.41,0-2.1-1.3-2.29-5-5.73-4.48-2.28,3,3.74,6.29-.24,9.26-2.59.44-3.35-1.81-4.67-3.44-3.41-4.22-3.49-4.14-7.62.59-2.33,2.59-18.71,1.51-21.36-1.46-4.63-5.18-7.18-12.95-16.1-12.93-2,4.47,5.58,5.3,2.9,10.36-8.8-5-13.72-13.65-19.82-20.82-2.76-3.23,2-6.64,2.91-10.06,5-18.15,18.33-31.58,27.86-47,9.28-15,32-14.19,39.27-1.56a7.6,7.6,0,0,1,.82,8,9.92,9.92,0,0,0,3.47,12.56c1.64,1.24,5,2.74,3.61,4.53-4.57,6-7.28,10.93,2.44,14.17-2.27,4.7-1.09,8.95-.33,14.05C371.31,478.68,370.23,483.53,373,487.54Z"/><path class="cls-2" d="M464.14,464c-6.68.87-13.84-1.19-21.23-4.11-9.52-3.76-18.47-7.19-20.11-18.9A30.5,30.5,0,0,1,435,411.45c12.78-10.14,28.32-14,44-16.5,7.26-1.19,25.67,18.47,26.78,27C510.29,456.28,488.58,464.7,464.14,464Z"/><path class="cls-2" d="M264,384.46a22.94,22.94,0,0,1-31.8,22.88c-16.24-6.06-28.86-16.74-39.41-30.09-9.38-11.82-8.45-24.29,2.31-34.92C204.58,333,223,331.44,234,339.09a107.81,107.81,0,0,0,9.61,6.49C259,354,263.75,368,264,384.46Z"/><path class="cls-2" d="M258.57,459.87c-4.85-1.31-7.39-5.17-10.38-8.45-1.92-2.07-3.15-7.77-7.5-3.38-3.21,3.3.64,6.42,2.61,8.57,4.21,4.63,9.14,8.59,15.12,14.07-10.14,1.89-12.3-5.81-17-9s-7-9.7-15.58-14c8.56,15.54,17,27.39,29.11,36.62-11.1-1.12-29.89-23.84-36.38-42.41,33.31,1.46,55.43-18,75.83-41.63a27,27,0,0,1-15.08,25.95c-10.21,4.25,4.47,8.57-.31,13.35-5.36,1.67-5.78-9.32-13.23-4.66.34,3.52,12,8.4-.67,13.14-4.79,1.77-5,.66-7.06-1.54-1.68-1.76-.92-7.77-5.45-4.52-3.49,2.41.51,5.33,1.7,7.77C255.89,452.85,261.15,454.24,258.57,459.87Z"/><path class="cls-2" d="M435.08,521.08c-3.67-5.57.59-12-4.13-16.63-5.85,4.5-.27,9.56-1.16,15.55-7.32-5.68-3.09-15.54-9.4-20-5.18,3.46-.71,8.29-2.57,13-5.48-5.74.67-14-4.93-18.49-6.07,0,1,11-7.37,8.31-5.73-1.81-4.63-7.77-4.8-11.71-.19-4.77.14-8.86-5.62-12.22-.27,6.09-.49,11.4-.77,17.13-10.67-8.66,1.65-20-4.47-29.92-5.56,4.31.65,12.95-7.53,15.56-3.29-11.83,5.13-23.2.86-35.53-4.74,4.34-2.57,12.31-9.43,16.45,1.56-8.76,3.36-16.44,4.12-24.24.61-6.2,5.41-4,8.29-4.69,3.67-.94,3.45,2.59,3.53,5.18.89,25.92,16.21,42.08,37.49,53.81C438.58,499,441.35,506.76,435.08,521.08Z"/><path class="cls-2" d="M583.49,437.8c-13.57-7.07-14.87-22.13-22.69-32.94a83,83,0,0,1,22.41,33.2Z"/></g></g></g></g></svg>