<svg xmlns="http://www.w3.org/2000/svg" viewBox="0 0 757.67 757.67"><defs><style>.cls-1{fill:#87125d;}.cls-2{fill:#fc63c6;}</style></defs><title>skull invert</title><g id="Lager_2" data-name="Lager 2"><g id="home"><circle class="cls-1" cx="378.83" cy="378.83" r="378.83"/><g id="Lager_2-2" data-name="Lager 2"><g id="skull"><path class="cls-2" d="M194.37,551.11c-1.24-7-7.77-10-11.71-14.82-10.93-12.95-20.6-25.9-13.5-45,4.56-12.17,5.42-25.67,9-38.24a48.09,48.09,0,0,0-9.79-47c-12.72-15-19.3-30.72-8.94-49.17,9.8-17.59,4-36.78,7.05-55.07a337.44,337.44,0,0,1,11.09-47.47c13.73-42.74,36.11-81.08,60.93-118.13,19.12-28.5,49-41.19,78.68-55,63.16-29.46,124.64-26.25,184,8.83,28.5,16.92,47.78,43.78,65.55,71.69,14.12,22.15,25.1,45.67,35.7,69.4,14.69,32.88,22.17,67.18,15.54,103.63-4.09,22.62-6.37,45.65-11.71,67.95-8.62,36.27-26.16,68.47-47.9,98.45-18.63,25.91-44.71,42.15-71.76,57.23-4,2.2-4.17,5.39-4.9,8.29C478,582.2,472,596.4,458.47,606.32c-3.24,2.41-2.59,6.24-2.59,9.61.23,14.48-6.77,26.22-13.5,38.32-8.14,14.56-21.53,20.08-36.4,21-16.22,1.06-34,3.18-48.63-2-23.16-8.29-48-6.63-70.75-16.94-24.12-11-49.64-19-75-27-13-4.12-18.6-13.45-21.68-24.79-4.56-17.41-2-35,.62-52.46.34-2.34,2.33-1.87,4-1.22Q209.29,572.17,224,593.6c-13.89-5.57-16.4-21-27.39-29.92-5.46,14.14,7.28,20.52,10.86,30.28,1.09,3,4.48,5.18,2.87,9.2-3.78,9.56-1,16.32,8.19,18.81,27.82,7.51,54.4,18.73,81.32,28.5a257.36,257.36,0,0,0,112.77,14.17c29.41-2.83,38.86-33.22,36.64-53.16,0-1.2-.7-3.29-1.25-3.35-8.47-1-17-1.73-25.49-2.38-5.75-.44-5,4.77-6.48,7.93-.95,2.07-1.68,4.22-4.43,3.26s-1.63-3.52-1.29-5.46c1.35-7.46-2.13-9.72-9.2-10.13-8.94-.5-18.57-3.76-18.68,10.77,0,1.56-2,2.59-4.95,1.84-2.59-5.44,3.53-16.42-8.83-17.38-6.84-.54-14.07-3.39-20.34-1.89-6.94,1.66,3.11,13.52-7.61,16.53,1.11-14.64-5.65-22.85-19.95-22.2-6.94.31-12.57-.57-18-4.85a4.57,4.57,0,0,0-6.2,1.19c1.77,9.95,14.07,12.33,18.14,24.15l-17-13.14c-1.12,4.23-1.92,7.28-2.59,9.69-17.59-5.41-22.78-25.41-40.42-30.49l24.72,28.68c-10.37-.36-11.74-10.52-18.42-11.84-5.52,6.81,7.61,8.19,2.9,15.05-14.22-11.11-24.41-25.52-36.53-38.55-4.3,10.88,8.52,15.55,8.65,28-11.11-16.32-25.41-25.91-30.85-42.65C204,550.21,199.14,548.24,194.37,551.11Zm1.37-42.67c10.08-3.86,7.41,2.31,6.25,7.78-5.18,24.14-4.72,24.48,10.2,31.4,6.35,3,8.63,2.59,10.37-4.72,1.45-6.24.23-12.95,3.52-18.89,1.43-2.59,1.3-6.52,5.54-5.18s3.27,4.95,2.13,7.54c-3.06,7-2.13,14.43-3.34,21.61-1.76,10.54,8.52,10.08,13.83,11.63,4.77,1.37,8-3.83,8.29-10.08a246.45,246.45,0,0,1,3.86-25.2c7.49,4.43,7.51,9.87,5.44,15.31-2.41,6.37-1,12.82-1.53,19.19-.38,4.74,2.08,6.95,6.14,8.5,25.68,9.74,26.84,9,27-18.68v-2.59c.21-2.33-1.08-5.88,2.85-5.8,3.32,0,3.84,3.44,3.48,5.83-3.92,24.69,8.62,35.26,31.5,37.1H335c0-25.31,0-25.31,6.66-34.67,3,5.18,1.45,10.37,1.45,15.11,0,21.71,1.76,23.62,23.11,25.59,6.81.62,11.35-.33,10.67-9-.62-7.77-.12-15.55-.12-23.32,6.06,7.36,7.95,14.61,7.77,25.18,0,5,1.24,8.22,5.62,10.37,17.64,8.42,25.65,3.7,25.65-15.13a3.87,3.87,0,0,1,0-1.27c2.17-5.73-4.48-17,2.82-16.74,9.15.36,4.64,12,4.69,18.55,0,19.09-.28,19,17.88,21.12,5.72.64,10.36,1.21,8.55-7.44a65.53,65.53,0,0,1,0-18.13c.31-3.71-2.6-10.21,4.09-10.37,7.12,0,3.29,6.14,3.63,9.85.59,6.78-2,14.25,3.91,21.37,12.3-17.64,18.94-36.45,16.14-56-3.29-23.31,8.34-36.27,25.05-47.61,3.52-2.41,7.43-4.23,11-6.51,17.66-11.21,25.72-27.66,26.68-48.26,1.48-31.53-10.52-57.95-29.25-82.44-7-9.14-15-12.41-25.6-10.36a139.68,139.68,0,0,0-40,13.89,122.86,122.86,0,0,0-37.85,33.24c-3.73-6.4-2-10.37,1.6-14.69,16.2-19.72,37.57-31.43,61.53-37.67,28.5-7.41,38.61-2.18,55.13,22.28,4.95,7.3,6.09,16,10.37,23.31,11.94,20.19,13.88,42.36,10.36,64.43-1.79,10.76-3.63,19.82,4.25,28.19,3.42,3.6,3.39,12.26,8.34,11.12,3.94-.91,6.14-8.5,9.51-13,4.12-5.31-1.53-7.77-3.32-10.88-5.36-9.38-12.69-17.8-13.16-29.25,5.86,7.41,10.36,15.55,15.31,23.32,1.45,2.17.31,8.73,5.86,5.75,3.73-2,4-6.68,2-10.36s-4.77-6.12-6.87-9.36c-4.33-6.73-9.87-12.95-9.9-25.13l21,32.49,4.59-12.33-.28.26c7-5.34,7.77-10.36,1.37-17.51a24.66,24.66,0,0,1-7.64-18.14c7.33,6.45,7.77,16.3,16.76,19.35,2.12-10.62-9.48-15.85-8.91-28.49l10.67,15.31c9-13.32-10.36-19.28-6.37-30.75,6.16,1.81,4.76,10.77,11.45,12.22,5.57-12.66-11-20.05-8.09-32.69,5.73,3,3.42,12,13.14,11.71-8.52-13.34.88-25.36,2.87-37.36,1.51-9,7.39-18.5,5.86-28.5a347.25,347.25,0,0,0-10.05-47.41c-12.28-40.38-32.59-77-57-111.4C542.59,137.54,538,128.7,528,123c-.9,22.26-18.13,41.25-6.32,63.71,1.06,2-.67,5.41-1.37,9.89,10.36-5.62,19.17-4.4,25.16,4.54,5.62,8.36,13.34,14.14,20.93,20.31,2.46,2,6.55,3.29,3.94,8.94-10.55-4.85-19.8-10.83-25.63-21.27s-14.45-13-24.45-7.15c-8.29,4.74-9.79,12.35-6.74,21.6,3.21,9.77-1.89,20.73-8.42,23.91a77.73,77.73,0,0,0-31.35,25.37c-1.13,1.58-3.13,3.6-5.18,1.29s-.64-4,1-5.67c9.1-9.33,16.43-20.57,29.87-25.08,6.61-2.2,10.7-11.89,8.45-15-7.54-10.49.39-17.93,2.59-26.32,1.53-5.78,6.27-12,3.34-17.25-8.7-15.37-2.77-28.5,3.32-42.47,2.85-6.55,3-14.27,5.67-20.9,1.79-4.43,0-6.45-2.59-8.63C501.78,98.31,482.59,85.38,460,78.7c-16.55-4.87-33.16-9-51.5-7,8.63,13.26,23.91,21.79,17.95,40.52-2.59,8.39-17.17,29.22-22.77,26.94-11-4.48-16.81,3.58-24.63,7-2,.83-2,4.77-5.91,2.59-5.47-2.95-6.84.91-6.48,5.49,1.25,15.37-11.22,21.09-20.36,29.1a2.82,2.82,0,0,1-4,.3,2.67,2.67,0,0,1-.5-.56c-.52-.83-.47-3.06,0-3.34,14.56-8.24,21-21.09,21.78-37.36,0-.26.63-.62,1-.75,5.68-2,3.09-4,1.38-8.16-5.83-14.36-15.05-14-26.56-8.37-5.46,2.59-10.75,3.39-15.1-2.13a8.82,8.82,0,0,0-8-3.16c-3.65.26-8.55-.33-8.24-4,.44-5,6-3.94,9.64-3.58,2.85.29,6.68,1.19,8.05,3.19,4.41,6.37,8.63,4.61,14.31,2,13.16-6.14,23.05-3.21,28.49,9.84,4.93,11.58,10.16,14.69,19.95,5.65,3.21-3,7.23-2.38,11.09-2.12a12,12,0,0,0,10-4.23c14.49-13.93,15.55-24.22,3.22-39.92-4.41-5.54-8.35-16-14.23-15-18.62,2.59-38-3.11-56.06,5.88-19.64,9.79-39.82,18.47-59.59,28.06-5.51,2.59-14.53,3.29-11.58,13.68.16.57-1.42,1.66-2.2,2.59-9.22-9.51-7.56,3.44-10.9,5.62s-4.72,7.56-7.41,9.64c-7.31,5.57-7.78,4.84-4.07,12.64,1,2.15,1.92,4.79-1.14,6.19-4.59-.44-1.87-8.34-5.65-7.49-10.36,14.23-20.13,27.85-4.74,44.28-8.19-2.93-8.21-11.76-15.54-14.33-2.28,9.59,8.7,15.34,5.38,25.5-5.82-4.72-6.91-11.12-9.84-16.48C200.93,203.21,200,220,210.72,238.24c-7.77-4-7.07-11.74-12.57-16.74-7,13.7,6.74,22.9,7.44,35.54-8.4-4-7.49-13.62-13-18.47-12.53,13.24,5.19,21.14,5.78,32.26-6-1-6.29-5.7-8.78-8.42-1.66-1.74-1.89-7.18-6.06-4.33-2.28,1.58-2.2,4.77.15,7.77,4.77,6.3,8.76,13.19,13.71,20.73,11.6-15.55,27.77-11.5,42.36-11,28.49,1,50.85,11.58,60.1,41.09,2.28,7.28,2.36,15.13,6.61,22,1.81,2.93,5.46,8.73-.94,10.52-3.55,1-5.18-3.84-6.76-7.77-4.2-10-3.39-21.38-8.08-30.83-9.61-19.35-27.85-25.91-47.77-27.64-15.73-1.38-33.14-4.12-43.58,11.63-14,21-27.31,42.51-34.71,67.15a33.66,33.66,0,0,0,7.4,34.25c9.62,11.21,18.86,24.66,17.31,39-1.48,13.76-4.9,26.19,4.9,37.93a26.73,26.73,0,0,1-1.74,2.18c-3.78-1.61-3.73-8.22-9.58-7.62-2.41,10.08,10.05,15.29,8.91,25.6-5.75-1.45-5.39-9.15-11-9.67-1.53,1.92-.31,3.34.34,4.9,3.34,8.11,10.1,13.7,15,20.72-4.17.76-6.48-3.29-10.86-4.3.76,6,4.67,11.53-.28,17.31a5.18,5.18,0,0,0,3.47,8c3.16.73,3.76-2.59,4.25-5.18C193.85,519.35,194.76,513.89,195.74,508.44Zm339,1.12c-3.06-4.74-6.33-9.35-9-14.3-1.47-2.59-1.91-6.32-6.06-4.33-4.64,2.2-1.11,4.66.13,7.15,3.21,6.32,7.07,12.49,5.47,20.52l-13-22.31-2.28,1.3,11.87,25.52c-6.84,1-5.7-6-9.92-6.53-2.59,3.37,2.74,8-1.48,11.22-9.84-16.25-9.84-16.25-16.92-18.89a49.78,49.78,0,0,0,1.87,5c12.2,24.63,12.23,24.61,34.14,7.77,18.66-14.25,18.86-15.75,4.1-34.15-1-1.29-.81-5-4.07-3.47s-2.82,4.07-1.5,6.55c2.95,5.83,7.59,10.83,6.63,19ZM175.46,288.91a13,13,0,0,1-.91,4.61c-3.88,6.24.16,9.85,4.64,12.31,5.34,2.95,5.6-3.32,8.06-5.63,9.32-8.7,5.05-16.34-2-23.62-1.74-1.82-2.59-6.82-6.45-3.71-2.59,2.08-1.51,5.37-.29,8.32,1.69,4,7.77,6.11,5.78,11.76C179.37,295.23,179.89,287.87,175.46,288.91ZM541,466.84c-6.29,9.84-3.13,26.24,5.18,32.28,2.9,2.15,4.82.88,6.32-1.37,1.25-1.87,5-5.45,2.59-6C540.85,488.86,544,476.94,541,466.84Zm-42.8,76.79c3.14-1.89,6.3-3.24,3.4-7.78s-4.3-9.3-6.82-13.75c-1.24-2.26-1.94-6.82-5.83-4.9s-3.1,5.34-1.06,8.84c2.77,4.74,5.05,9.79,7.57,14.71C496.26,541.89,495.72,544.33,498.23,543.63ZM273.62,579A60.79,60.79,0,0,0,288,596.11c1.3,1.2,2.59,2.26,4.38.94a3.26,3.26,0,0,0,.72-4.56l0,0C288.36,586.19,285,578,273.62,579Z"/><path class="cls-2" d="M373.59,487.77c-.28,3.84-16.63-6.09-6.08,7.13a3.44,3.44,0,0,1,0,3.21c-1.22,1.68-2.78,1.06-4.41,0-2.1-1.3-2.28-5-5.72-4.48-2.28,3,3.73,6.29-.26,9.24-2.59.45-3.34-1.81-4.67-3.44-3.39-4.22-3.47-4.15-7.61.57-2.33,2.59-18.71,1.48-21.35-1.5-4.61-5.18-7.15-13-16.06-13-2,4.46,5.57,5.31,2.87,10.37-8.78-5.06-13.67-13.68-19.76-20.86-2.75-3.24,2-6.63,2.92-10.05,5-18.14,18.4-31.53,28-46.92,9.3-15,32-14.12,39.25-1.48a7.62,7.62,0,0,1,.8,8,9.91,9.91,0,0,0,3.45,12.56c1.63,1.25,5,2.75,3.6,4.54-4.59,6-7.31,10.91,2.41,14.17-2.28,4.69-1.12,8.94-.37,14C371.91,478.91,370.82,483.76,373.59,487.77Z"/><path class="cls-2" d="M464.74,464.38c-6.69.85-13.84-1.22-21.22-4.15-9.51-3.78-18.45-7.23-20-18.94a30.48,30.48,0,0,1,12.22-29.45c12.8-10.11,28.35-13.89,44.05-16.4,7.25-1.17,25.62,18.52,26.71,27C510.88,456.81,489.17,465.18,464.74,464.38Z"/><path class="cls-2" d="M264.86,384.51A22.92,22.92,0,0,1,233,407.3c-16.21-6.08-28.8-16.78-39.32-30.15-9.36-11.84-8.4-24.3,2.38-34.9,9.48-9.35,27.85-10.83,38.86-3.16a106.91,106.91,0,0,0,9.59,6.5C259.89,354.07,264.63,368.06,264.86,384.51Z"/><path class="cls-2" d="M259.27,459.87c-4.85-1.32-7.39-5.18-10.37-8.47-1.91-2.07-3.13-7.77-7.48-3.4-3.21,3.29.62,6.43,2.59,8.58,4.2,4.64,9.12,8.6,15.08,14.09-10.13,1.87-12.28-5.83-16.92-9.06s-6.94-9.72-15.55-14c8.53,15.54,16.9,27.41,29,36.66-11.09-1.14-29.82-23.89-36.27-42.46,33.29,1.52,55.44-17.88,75.88-41.45a27,27,0,0,1-15.13,25.9c-10.2,4.22,4.46,8.58-.33,13.34-5.37,1.66-5.76-9.32-13.22-4.69.34,3.53,12,8.42-.7,13.14-4.79,1.76-4.94.65-7-1.55-1.69-1.77-.91-7.78-5.44-4.54-3.5,2.41.49,5.34,1.68,7.77C256.6,452.85,261.86,454.25,259.27,459.87Z"/><path class="cls-2" d="M435.56,521.42c-3.65-5.57.63-12-4.09-16.63-5.85,4.48-.28,9.56-1.19,15.55-7.31-5.7-3.06-15.55-9.35-20-5.18,3.45-.73,8.29-2.59,12.95-5.47-5.75.7-14-4.9-18.49-6.06,0,1,11-7.38,8.29-5.73-1.82-4.62-7.78-4.77-11.71-.18-4.77.15-8.86-5.6-12.23-.28,6.09-.51,11.4-.8,17.12-10.65-8.68,1.68-20-4.4-29.92-5.57,4.3.62,12.95-7.57,15.54-3.26-11.84,5.18-23.18.93-35.51-4.74,4.32-2.59,12.3-9.45,16.42,1.58-8.76,3.39-16.42,4.17-24.22.62-6.19,5.41-3.94,8.29-4.67,3.68-.93,3.44,2.6,3.52,5.19.83,25.9,16.12,42.09,37.36,53.86C439.11,499.4,441.86,507.12,435.56,521.42Z"/><path class="cls-2" d="M584.09,438.5c-13.55-7.1-14.82-22.15-22.62-33a82.75,82.75,0,0,1,22.33,33.24Z"/></g></g></g></g></svg>