<svg xmlns="http://www.w3.org/2000/svg" viewBox="0 0 285.33 336.53"><title>hornimal</title><g id="Lager_2" data-name="Lager 2"><g id="hornimal"><path d="M201.29,109c-2-5-4-9.47-5.58-14-.82-2.38-2.32-2.92-4.47-3.08-3.8-.27-7.61-.59-11.39-1.07a16.09,16.09,0,0,1-5.21-1.44c-3.58-1.83-3.91-5.24-3.19-8.64.65-3.06,2.93-3.9,6-3.92,3.66,0,6.88,2,11.23,2-3.75-5.86-9.35-8.65-14.19-12.19-8.69-6.34-14.46-15.29-21.33-23.23-2-2.34-1.27-4.54,2-5.63,5-1.69,9.3-1,13.15,2.92,3.45,3.53,6.06,8.26,12.15,9.36-1-6.08-4.71-10.41-7.53-15.11-3.64-6.06-8.05-11.67-7.73-19.38.34-8.22,4.68-13.71,12.62-15.33,2.8-.56,4.54.58,5.33,3.18,1.44,4.76,2.79,9.54,2.29,14.61-.65,6.48.81,12.68,2.57,19.59,1.49-2.38,2.68-4.23,3.82-6.11,1.64-2.68,3.63-5.29,7.12-4,3.76,1.39,7.35,3.38,7.33,8.38a17.49,17.49,0,0,1-3.7,10.51,29.76,29.76,0,0,0-4.47,8.24c-1.33,4-1.69,7.11,3,9.42,4.11,2,3.45,6.71,4.13,10.5,1.93,10.84,4.06,21.58,10.75,30.8,1.62,2.23,2.2,2.57,3.49-.16,1.13-2.38,3.21-4.1,5.4-5.67a156.89,156.89,0,0,1,21-12.37c9.36-4.7,18.37-2.4,26.44,2.67,6.62,4.17,5.49,10.2-.41,16.83a27.7,27.7,0,0,1-7.83,6,31.78,31.78,0,0,0-6.64,4.34c-2.2,2-4.35,4.69-1.94,7.7,2.52,3.18,4.23-.47,6.17-1.38,4.59-2.17,8.64-5.43,13.68-6.77,6.66-1.78,9.29-.19,9.83,6.67.48,6-.63,11.92-1.87,17.76-2,9.61-7.93,16.91-14.83,23.49a14.67,14.67,0,0,1-10.26,4.28c-8.19,0-15,2.24-18.06,10.92-2.41,6.86-8,11-13.47,15.26s-9,8.76-6.66,16.09c.35,1.1-.36,2.57-.68,3.84-1.75,7-2.29,13.7-.22,20.88,4,14,5.72,28.55,11.32,42.05,3.93,9.47,7.27,19.14,10.76,28.76a34,34,0,0,1,2,12c0,3.37-1.81,4.39-5,3.18-5.86-2.24-8.39-7.43-10.68-12.57a468.54,468.54,0,0,1-21.41-59c-.66-2.29-1.8-4.45-3.16-7.74-2.1,8.85-.55,16.43.33,24,2,17.37,8,34,10,51.33.4,3.4,2.45,6.46,2,10.15a11,11,0,0,1-1.7,5.08c-2.36,3.45-3.67,3.3-6.15,0-4.16-5.51-6.5-11.91-8.94-18.16-4.31-11.07-8.34-22.33-8.48-34.46-.06-5.28.27-10.57.17-15.85a70.76,70.76,0,0,0-1.93-13.71c-.63-2.93-1.8-2.74-4.14-1.53-20.89,10.73-42.45,13.09-64.79,4.81-3.26-1.21-6.57-2.25-9.55-4.12-4-2.52-8.35-1.65-12.62-1-1.7.27-2.45,1.3-2.46,3.13-.14,19.51-3.4,39,.24,58.55,1.12,6,1.17,12.54-1.43,18.7-1.22,2.88-2.72,5.35-5.7,5.38-3.26,0-5.3-2.51-6.31-5.57A128.61,128.61,0,0,1,75,293.2c-.55-14-1.25-28.08-4.65-41.81-.43-1.72-.28-4.3-2.48-4.11s-3.54,2.58-3.55,4.85c0,7.15,0,14.31.34,21.45.8,17.55,4.25,34.72,7.5,51.92a9.92,9.92,0,0,1,0,3c-.36,3,.22,7.61-3.09,8-3.49.42-7-2.16-8.74-6.11-2.59-5.95-3.36-12.28-4.59-18.58C53.47,299.85,50.42,288,48,276.11A147.66,147.66,0,0,1,45.37,258a21.81,21.81,0,0,0-8.61-16.13c-10.85-8.6-12.94-20.94-14.39-33.55-.61-5.25.71-10.61-1-15.85-1-2.87-2.23-4.27-5.44-3.12C11.23,191,8,189.14,5.48,185c-3.51-5.75-6.74-11.55-5-18.63,1.9-7.68,13.08-13.88,20.87-11.48a6.35,6.35,0,0,0,6.1-.69c17.12-10,34.53-19.18,54.84-21.52,9.13-1.05,18.21-.31,27.25-1.18A222.8,222.8,0,0,1,134,130.39c8.93.13,17.85.44,26.77.78,7.37.28,14.52-1.26,21.73-2.3a10.73,10.73,0,0,0,4.85-2.35c4.13-3.1,4.07-5.38-.15-8.39-1.74-1.24-4.12-2.1-4.54-4.36-.46-2.46-2.16-5.47.5-7.46a10.69,10.69,0,0,1,10.34-1.18A77.08,77.08,0,0,1,201.29,109ZM239,318.18c.27-3.26.27-5.51-.57-8-7.21-21.38-16.64-42-21.06-64.36-2.11-10.66-6-21-2.18-32a5.31,5.31,0,0,0,.09-2.48c-1.6-9.84,2.89-16.53,10.88-21.6,4.24-2.7,7.77-6.24,9.49-11.08,3.51-9.86,10.66-14.32,20.81-14.19,4.47.06,7.75-2.13,10.69-4.92,10.09-9.57,14.13-21.62,14-35.28-.05-4.79-1.2-5.46-5.77-3.58-5.23,2.14-9.75,5.55-14.7,8.18s-9.78-.25-10.42-5.78a9.47,9.47,0,0,1,3.8-9.23,71.34,71.34,0,0,1,10.4-6.74c3.74-1.86,5.54-5.16,7.45-8.36a4.37,4.37,0,0,0-2.08-6.3c-7.67-3.32-15.61-5.53-23.63-.88-4.88,2.83-9.58,5.94-14.51,8.66A27.54,27.54,0,0,0,220.87,111c-2.85,5.07-7.08,7-12.83,5.34-4.5-1.33-8.57-3.55-12.67-5.71-2.83-1.49-6.68-3.77-8.42-1.08s2.66,4.63,4.66,6.69c.23.23.56.37.79.59,3.68,3.54,4.27,8,.56,11.28-3.2,2.84-6.81,5.4-11.6,5.86-7.48.73-15,1.74-22.65,1.88,6.21,11.35,4.84,19.86-4.07,26.62-2.85,2.17-6.38,2.71-9.66,3.74-12.1,3.83-27.68-2.73-33.24-13.6-2.9-5.68-.74-11.21,0-16.52H86.9c7.22,12.74,6.22,18.85-.58,27.38-4.42,5.55-12.45,7.17-20.16,2.91-11-6.1-6.19-15.69-4.06-24.53a7.78,7.78,0,0,0-1.89.19c-6.28,3-12.59,5.93-18.78,9.1-5.23,2.67-11.31,4.52-14.24,10.1-1.64,3.14-3.1,2.06-4,.37-1.48-2.8-3.69-3.07-6.18-2.75C5.38,160.37.86,169.44,6.88,179.46c2.44,4.06,5.2,7.95,11.22,5.87,3.46-1.2,5.07,1.28,6.12,4.18,2,5.42,2,11.06,2.06,16.72.09,13.59,4,25.49,15,34.43a18.56,18.56,0,0,1,7.23,12.51c1.12,9.19,2.36,18.4,4.29,27.44,2.61,12.23,5.87,24.31,7.8,36.7.83,5.32,2,10.87,7.08,15,2.07-7.93-.46-15-1.9-21.67-4.17-19.36-4.9-38.9-5.32-58.53a8.38,8.38,0,0,1,6.77-8.55c5-.94,5.64,2.6,6.59,6,3.83,13.84,4.54,28.14,5.07,42.3.46,12.23,2.06,24,6.31,35.43.56,1.5,1,3.13,2.63,3.09,1.29,0,2.09-1.44,2.41-2.84a44.21,44.21,0,0,0,1.43-13.12c-.89-12.66-3.55-25.21-1.91-38,1.15-9,2.52-18.14.82-27.28A2,2,0,0,1,92,246.5c6-2,12.26-4,18.19-.62a68.61,68.61,0,0,0,31.27,8.68c14.49.63,28.39-1.44,40.86-9.45,6.12-3.93,7.06-3.65,9.13,3.47.32,1.11.52,2.25.83,3.36,2.25,8.15,1.39,16.39,1.32,24.7-.13,13.24,4.23,25.72,9.26,37.79,2.11,5.07,3,11.08,8.4,15.32-.13-2.61.21-4.7-.38-6.48-3.41-10.38-3.36-21.44-6.57-31.88-3.11-10.1-4.26-20.68-5.77-31.11-.93-6.5-1.33-13.22.79-19.72.56-1.7,1.3-3.14,3.17-3.46s2.6,1.13,3.26,2.49a44.22,44.22,0,0,1,3.08,6.73c4.73,16.28,10.4,32.25,16.66,48C228.79,302.47,231.58,311.15,239,318.18ZM181.3,21.55c-.07-4.71.33-8.5-.78-12.29-1.4-4.81-3.88-5.92-7.34-2.21-3,3.2-5,7.06-3.54,12.09,2,6.81,6.73,12.05,9.77,18.22,2.37,4.8,6,9.16,4.94,15.22-.51,2.85-1.41,3.7-4.25,2.69a30,30,0,0,1-13.39-9.85,18.15,18.15,0,0,0-4.92-4.1,2.36,2.36,0,0,0-3.2.28c-.87,1,.07,1.88.66,2.61,5.86,7.38,11.58,14.92,19.46,20.34a66,66,0,0,1,12.1,10.15,6.4,6.4,0,0,1,1,7.39c-1.29,2.84-3.74.78-5.69.44s-3.89-.83-5.83-1.28-4.19-1.06-4.67,1.18c-.52,2.4,1.51,3.81,3.9,4.1,4.68.58,9.48.64,14,1.79,1.82.46,5.47-.85,5.62,2.6.27,6.41,4.29,11.38,6,17.21.9,3.1,3.13,4.09,6,4.15a2.83,2.83,0,0,0,2.94-1.49c.62-1.51-.61-2-1.69-2.51a5.53,5.53,0,0,1-2.83-3.33c-2.87-9.77-7.65-19-8.42-29.41-.28-3.78,0-8.81-6.19-9-1.29,0-1.4-1.52-1.73-2.69-2-6.94.52-12.67,4.67-18,2.38-3,4.55-6.12,4.35-10.22a3.87,3.87,0,0,0-2.76-3.77c-1.94-.65-3.19.31-4.14,1.86-1,1.7-2.08,3.4-3,5.15s-2.25,3.25-4.58,3.19c-2.53-.08-3.26-1.93-3.91-3.87C181.86,32.5,180.57,26.71,181.3,21.55Z"/><path d="M133.94,200.38c.45-7.21,3.28-13.84,8.36-14.65,6.51-1,15.24,4.65,17.74,11.73,2,5.58.8,12.89-2.51,15.67-3.53,3-12.32,3.49-17,.87C135,210.92,134.62,205.38,133.94,200.38Z"/><path d="M111.65,192.32c0,5.17-2.55,8.66-7.23,9.86-6.07,1.55-12.58-.86-15.08-5.59-3.17-6-1.53-15,3.29-19.57,2.93-2.8,6-.85,8.32.1C105.76,179.11,111.86,185.06,111.65,192.32Z"/><path d="M61.32,190c0,6.41-2.87,10-7.8,9.82-5.63-.17-11-4.55-10.83-8.84s3.48-9,6.52-9.05C58.1,181.77,61.37,184,61.32,190Z"/><path d="M163.25,171.72c0-5.23,1.51-6.77,6.67-6.83,4.24-.06,8.16,3.9,8.34,8.41.14,3.27-3.86,5.56-9.4,5.67C163.58,179.08,163.06,175.73,163.25,171.72Z"/><path d="M230.06,119.65c-1.86-.3-3-.93-2.82-2.91.13-1.27.37-2.45,1.9-2.26,1.76.22,3.12,1.12,3.1,3.19C232.22,119.26,230.9,119.31,230.06,119.65Z"/></g></g></svg>