<svg xmlns="http://www.w3.org/2000/svg" viewBox="0 0 495.29 1048.06"><defs><style>.cls-1{fill:#fc63c6;}.cls-2{fill:#f2f2f2;}</style></defs><title>shadow-skeleton</title><g id="Lager_2" data-name="Lager 2"><g id="home"><g id="Lager_2-2" data-name="Lager 2"><g id="skeleton_with_bird" data-name="skeleton with bird"><path class="cls-1" d="M190.51,156.32c3.37,9.56,4.73,17.06,17.9,17.85,24.71,1.48,45.53,13.68,62.76,31.44,12.28,12.65,18,28.49,20.43,45.55.88,6-.32,12.12,3.08,17.84,1.2,2,.84,4.78-1.92,7.27-4.42,4-7.55,1-11.55-.76-3.65,8.41-2.42,17.36-4.38,26-2.43-6.73-.68-13.46-.08-20.19.49-5.55-1.68-8.31-6.95-8.8S259,277.28,258,282.68a245.65,245.65,0,0,0-2.67,32.73c-5.05-10.73-.73-21.87-.73-32.68-2.44-.36-2.87.86-2.81,2.4.47,10.85-2,21.74.34,32.55.47,2.19,0,4.47-2,4.76-3.25.47-2.15-2.61-2.12-4.17.24-10-1.09-20,1.28-30.16-3.2,1.53-4.1,3.82-4.81,6.73-1.82,7.45-1.31,15-1.68,22.5-.31,6.46,2.89,10.77,7.92,13.63,14.73,8.41,30,10.76,45.25,1.51,6.49-4,7.73-2.3,9.75,4.46,3.67,12.31,6.26,24.79,14.28,36,6.12,8.58,7.35,20.74,10.5,31.37,2.52,8.54,5.77,17,4.79,26.19-.37,3.36-.13,7.77-5,8.51-9.05,1.36-4.7,5.38-1.69,8.69,2.41,2.64,5.74,4.48,7.94,7.22,1,1.26,2.85,4.15,0,5.8-2,1.15-3.36,0-4.66-2a17.64,17.64,0,0,0-5.14-5.36c-3.37-2.21-6.38-2.91-6.45,2.91,0,5-2.11,9.43-7.16,11.1s-7.22-2.74-9.86-5.94c-1.48-1.78-2.79-5.28-5.7-3.57-2.39,1.38-3.14,4.56-2.37,7.56a45.3,45.3,0,0,1,1.48,4.72c.62,4.53-.71,8.88-4.83,10.67s-7.37-1.1-9.67-4.65a15.16,15.16,0,0,0-2-2.67c-2.41-2.34-3.37-7.55-8.08-5.62-5,2.05-.57,5.64-.62,8.55,0,3.61-.5,7-4,9.45-4.07,2.84-7.23.79-10.87-.71s-7.05-7.35-9.32-4.77c-3.56,4.07,4.07,4.35,5.22,7.43,1,2.69,2.62,4.95-1.11,7.79-5.2,4-4.17,8.31,2.1,10.09,20.45,5.84,60.55,4.59,77.37-18.27,6.51-8.83,7.4-12,1.15-20.67-.88-1.23-1.68-2.47-.22-3.51,1.06-.71,2.87-1.42,3.78-1,4.34,2.09,7.84,4.42,7,10.63-2.65,19.43-15.94,29.82-32.16,36.3-16.82,6.73-35,6.73-52.93,3.87-13.07-2.11-16.82-8.56-12-20.41,1-2.38,0-3.53-1.08-5.18-2.48-3.8-5.34-8-1.12-12.06s7.68.44,11.3,2c1.78.79,3.36,1.92,5.18,2.76,2.09,1,4.59,1.85,6.12-.29s.78-4.82-.5-7.13c-2-3.55-3.77-.37-5.43.31C254,475.5,250.39,472,247,468.27a51.08,51.08,0,0,1-4.19-6.37c-2.23,1.34-1.43,3-1.12,4.42,1.68,7.8-3.47,13.46-11.17,11-10.56-3.23-21.46-4.73-27.92-17-9.64-18.28-28-25.36-47.2-30-20.67-5-40.7-12-53.54-30.12C87,379.28,71.7,358,67.78,331.71S66.6,279.57,78,255.18c6.46-13.73,11.59-28,20.6-40.67,13.86-19.47,32.78-30.28,55.07-36.12,4.9-1.28,6.49-2.15,5.45-7.89-2-11.05-3.19-22.22-6.56-33.05-.89-2.89-2.4-3.71-4.54-5-16.27-9.62-30.06-21.57-37.54-39.73A38.47,38.47,0,0,1,109,70.49c1.68-8.95-3.28-14.26-8.41-19.33-11.64-11.4-26.68-17.3-41.24-23.83-2.66-1.19-5.66-1.85-4.61-5.63.89-3.25,4-2.78,6.32-2.61,10.83.82,21.65,1.68,32.43,3,3.72.42,5.55.67,7-4.11a34.19,34.19,0,0,1,9.34-13.59c4.27-4,9.85-6.29,15.81-2.17a12.12,12.12,0,0,0,3.82,1.69c16,4,25.14,24,22.33,38.35-2,10.34,3.37,13.45,10.94,17.1C180.07,67.61,196.6,77.37,210.46,91c6.73,6.62,10.09,15.14,13.78,23.42,3,6.58,7.23,10.9,14.45,12.53,12.73,2.91,25.23,7.13,38.53,2.22,4.69-1.68,4.75,2.41,3.6,5.45-4.88,13-14.57,21.45-27.45,25.65C232.51,167.07,212.08,162.82,190.51,156.32Zm-25.51,27c-6.07,7.55-6.16,7.62-11.09,1.41-1.39-1.68-2.32-.49-3.36-.13-18.86,5.92-35.19,15.44-46.22,32.36-17.51,26.79-31.17,55.08-32.7,87.82-.66,14-.32,27.75,5.2,41.17s13.45,25.82,20.42,38.69c10.51,19.38,26.25,32,47.33,37.34,25,6.47,49.57,13,64.74,37.09,4.05,6.41,12.19,9.32,19.71,11.47,2.58.74,6.09,1.68,7.47-1.68,1-2.37-.66-4.75-3.2-6a11.66,11.66,0,0,1-2.06-1.43c-4.83-3.78-3.23-6.27,1.68-8.16,6.24-2.4,12.28.16,15.61,7,2,4,4.37,7.23,9.23,7.32A7,7,0,0,0,264.2,463c1.2-3.75-3-5.56-5.24-7.78s-5.52-4.6-3.67-8.41a9.81,9.81,0,0,1,8.49-6c5.33,0,10.58,1.17,13,7.13a69.39,69.39,0,0,0,3.95,8.31c2,3.51,5.05,3,7.88,1.18s1.48-4.14,0-6.23c-1.3-1.68-2.43-3.7-3.81-5.4-2.4-2.94-4.44-6.2-2.22-9.82a10.4,10.4,0,0,1,10.79-5c6.54.88,11.77,3.49,13.55,10.48,1.3,5,4.66,6.73,9.46,5.64a4.82,4.82,0,0,0,4-5.55,4.93,4.93,0,0,0-.22-.86c-1.4-3.37-1-9.52-7.35-8-4,.9-3.87-1.92-4.95-3.91a4,4,0,0,1,.67-5.19c2.09-2.34,4.24-2,6.65-1.35,3.5,1,5.38,3.92,7.33,6.56s3.74,4.91,6.73,3.36c2.49-1.34,1.31-4.37.76-6.72-3.67-15.53-6.33-31.34-14.82-45.3-7-11.49-9.69-24.63-13.69-37.24-1.48-4.66-3.89-5.69-8-3.36-16.82,9.68-32.25,3.65-47.1-5.05-4.27-2.47-6.63-6.73-8.6-11.77-5-12.84-1.22-24.61,4.75-35,7.26-12.67,17.07-22.84,34.68-20.44,5.05.69,7.59,5.84,12.4,5.18-3-22.84-3.06-46.35-21-63.48-20.69-19.74-38.08-28-60.77-29.53a30.63,30.63,0,0,0,10.53,4.44c3.08.52,3.8,3.21,2.89,5.9-1.22,3.57-3.58,1.1-5.48.67-2.61-.6-3.92-4.07-7.38-3.36,1.58,5.18,11.59,6.43,6.46,14.79-3.17-2.66-6-5.3-9.09-7.54-1.93-1.38-4.39-2.17-4.57,1.68-.2,4.48-.63,11.22-5.74,9.81-5.8-1.68-.57-7.6,0-11.46,1.9-11.77-1.8-16.6-13.61-16.28-1.36,0-2.72.19-4.29.29,1.52,4.12,5.56,4.67,8.23,6.88s2.88,5.43.94,7.35c-2.29,2.3-3.46-.91-5-2.42a14.79,14.79,0,0,0-8.87-5c-.17,5.82,7.62,10.48.41,16.82Zm-2.42-41.58c1.81,9.48,3.36,18.65,5.41,27.72.41,1.8.78,5.73,3.37,4.94,5.23-1.56,11.25,1.68,16.33-2.57C180.81,160.43,177.93,146.33,162.58,141.76ZM288.09,437.68c.67,13.94,16.82,12.78,21.86,22.82.68,1.33,4.38,1,5.05-2.05.49-2.09,1.21-4.73-2.44-4.74-5.79,0-7.85-4.11-9.84-8.58C299.83,438.52,295.07,435.34,288.09,437.68ZM274.8,457.94c-1.16-3.11-1.68-6.72-3.65-9.18-2.29-2.72-6-4-9.25-.57-.84.91,9.3,13.91,10.58,13.45,1.6-.52,3-1.56,2.32-3.7Zm4.46,6.73c4.56,3.37,4.07,10,10.48,9.57,2.38-.17,1.12-2.07,1.06-3.71-.29-7.1-4.51-7.25-11.54-5.91Z"/><path class="cls-1" d="M113.61,906.6a32.76,32.76,0,0,1,15.29,2.31c17.23,6.61,35.32,7.25,53.24,9.32a36.27,36.27,0,0,0,10-.66c3.25-.52,5.55-1,4.71-6.17-1.46-9,10.3-18.34,19.38-16.72,5.63,1,3.06,5.26,3.08,8,0,10.71.15,10.55,10.91,8.76,23.32-3.85,46.64-7.87,70.13-10.43,13.12-1.43,26.44-1.06,39.47,3.65,21.16,7.66,29.47,27.19,18.5,46.7-7.23,12.9-15.54,24.82-30.84,29.55a57,57,0,0,1-11.56,1.58c-20.86,2.09-36.87,12.75-49.45,28.71-4.47,5.65-9.27,11-13.73,16.59-7.67,9.65-16.82,9.33-26.91,5.87-15.14-5.2-29-11.63-41.44-23.06-16.08-14.84-36.59-22.86-58.87-25-25.55-2.42-47-20.34-53-43.9-2.91-10.92-1.48-14.92,7.45-21.65C89.73,912.36,100.17,906.22,113.61,906.6Zm89.15.49c1.56,1.4,2.17.57,3.06-.18,2.35-2,4.07.33,3,1.68-4.29,5.16-4.64,14.48-14.5,14.1-3.89-.17-7.81.79-11.78.74A208.89,208.89,0,0,1,125.3,914c-18.21-5.45-32.76,1.88-45.73,13.72-3.23,3-3.58,7.07-2.29,11.61C84,963,100.53,975.11,124,978.61s45.41,10.55,62.76,26.56c13.45,12.5,28.79,19.21,46.13,23.18a14.82,14.82,0,0,0,13.85-3.36c6.27-5.22,10.76-12,15.67-18.37,11.88-15.56,27.1-27.25,46.66-29.4,20.62-2.27,35.32-10.94,44.86-29.29,8.08-15.42,3.13-29.67-12.66-36.21-9.47-3.92-19.21-4.56-29.12-5.05-16.06-.92-31.44,3.7-47.1,5.74-13.18,1.68-26.44,2.59-39.34,6.73-9.5,3-12.87-.51-13-10.23,0-2.44,2.14-6.53-1.68-7.18-3.52-.73-6.56,1.91-8.21,5.33Z"/><path class="cls-1" d="M426.82,891.32c9.2,0,17.29,7,21.09,19.69,8.63,29,19,57.36,29.19,85.78a337.38,337.38,0,0,0,16.56,36.87c3.54,7,1.13,9.21-5.46,10.6a16.86,16.86,0,0,1-13.46-3.16c-8.26-5.9-15.14-12.6-18.75-23.16-11.59-33.78-22.14-67.82-31.31-102.32-.65-2.46-.37-5.57-4.17-6.17-1.83-.31-2.39-2.05-2-4,2.49-11.9-2-19.94-13-25.23s-11-19.39-2-30.56c4.19-5.25,8.76-12,17.95-8.59,11.57,4.25,19.73,13.92,20.18,24s-6.56,13.91-14.18,17.34c-3.08,1.4-9.3.29-5.78,7.25C423,892.8,425,891.77,426.82,891.32Zm57.69,146.77c6.82-1.52,2.09-6.58.68-9.84A1036.2,1036.2,0,0,1,446.5,923.86c-2.42-7.7-4.89-15.47-10.09-21.86-2-2.54-5.22-5.35-8.68-3.6s-.52,4.94-.14,7.48a62,62,0,0,0,1.43,6.49c9.66,37,19.85,73.68,34.32,109.12C466,1028,477.26,1037.9,484.51,1038.09Zm-47.85-173.8c0-8.28-10.88-18.39-19.51-18.22-6,.12-15.76,12.6-15.24,19.63.22,3.09,1.68,4.83,4.89,3.23,6.41-3.18,8.41.5,9.39,5.83.44,2.39,1.18,4.44,3.85,4.73C427,880.23,436.71,871.28,436.66,864.29Z"/><path class="cls-1" d="M49.51,823.65C48.2,836.83,52,849.8,51.19,863c-.64,12-8.29,17.41-19.12,13.81-6-2-7.91-6.52-7.69-12.23.42-11.47.52-23,1.83-34.36,1.85-16,0-31.86-2.3-47.47C20.65,761,19.47,739,16.34,717.24a500.5,500.5,0,0,1-4.94-94.19c.21-4.76.82-9.37,3.49-13.46,1-1.48,2.17-2.6,4.14-1.59a5.74,5.74,0,0,1,3.67,4.25c.28,3-1.82,1.57-3.37,1.68-2,.14-3,1.38-1.37,3.22A77.61,77.61,0,0,1,38,673c-.63,22.58,3.36,44.93,6,67.28,1.18,10,1.23,20,1.68,30C46.53,788.09,51.29,805.68,49.51,823.65Zm-31.86-199c-2.49,2-1.68,3.79-1.68,5.34-.12,33.5.88,67,7.12,100,1.68,9.17.65,18.27,2.35,27.38a354.07,354.07,0,0,1,5.3,77c-.34,9.42-1.31,18.85-1.45,28.32,0,3.79.83,6.73,4.54,8,2.75.93,5.64,3,8.57.37,4-3.6,6.1-8.24,5-13.45a42.64,42.64,0,0,1-1.23-10.73c1-25.59-3.14-50.82-5.51-76.15-.88-9.2-.17-18.5-1.45-27.55-4.09-29-5.18-58.18-6.46-87.36C32.17,643.08,24.38,634.27,17.65,624.61Z"/><path class="cls-1" d="M388.81,750.4a516.12,516.12,0,0,0-8.53-71.19c-4.17-23.21-10.6-46-12.67-69.6a11,11,0,0,1-.2-2.5c.39-3.1-5.43-6.25-1.13-8.68,4.6-2.58,2.56,4.34,5.05,5C383.1,607,384.25,618,386.72,627c3.62,13.19,10.23,25.23,13.31,38.55,5.36,23.23,9.67,46.68,14.75,69.94a305.75,305.75,0,0,1,6,50.46c.78,15.76.51,31.67-4.51,47-.84,2.61-1.68,5.55-5.13,5.9s-4.52-2.52-6-4.79c-8.26-12.2-8.82-26.79-11.78-40.45C390.34,779.49,390.2,764.81,388.81,750.4ZM372.56,612.25c1.29,8.66,1.93,17.48,4,26,6.56,27,10.38,54.53,14.58,82,3.59,23.44,1.69,47.43,6.73,70.74,2.66,12.43,3.92,25.23,10,36.79.77,1.5,1.23,3.58,3.13,3.5,2.29-.1,1.85-2.31,2-3.92.76-7.74,1.77-15.44,2.24-23.2,1.68-27.4-1.85-54.33-7.59-81.05-5.4-25.23-8.53-51-18.5-75C384,636.1,382.16,622.83,372.56,612.25Z"/><path class="cls-1" d="M336.34,550.82c1.69-11.35,5.34-12.53,15.58-5.39,4.79,3.36,10.09,6,14.85,9.35,7.37,5.28,9.24,11.77,5.7,18.84-2.4,4.77-5.7,8.22-11.77,6.72s-12.56-2.5-18.65-4.4c-3.8-1.2-7.08-4-6.41-8.68.94-6.48-2.34-7.4-8-9.32-19.43-6.63-39.37-11.51-58.87-17.73-23.55-7.48-47.67-12.6-71.6-18.5-2.31-.57-5.05.52-7.42.35-7.22-.47-9.77-5-6.73-11.13.89-1.68,2.29-3,3.79-2,11,7,23.66,5.47,35.57,7.08,28,3.79,56.33,5.69,83.83,12.48,11.26,2.8,23.43,6.35,26.92,20.41A2.79,2.79,0,0,0,336.34,550.82Zm-8.1.41c-1.33-9.61-5.54-13.24-17-16.25-20-5.25-40.37-7.5-60.81-10.28-7.48-1-15-2.18-22.45-3.28a13.44,13.44,0,0,1-.19,1.4Zm32.9,24.22a6.58,6.58,0,0,0,6.88-3.94,8.41,8.41,0,0,0-.73-9.33c-3.73-5.3-9.74-7.08-14.8-10.3-3.66-2.32-8-5.33-11.44,0-3.73,5.77-2.64,16.07,2,18a181,181,0,0,0,18.1,5.58Z"/><path class="cls-1" d="M41.79,558.63c4.94,8.66,5.84,16.7,1.31,25.63-3,5.87-8,8-13.3,8.87-4.59.74-6.73-4-8.9-7.66-6.07-10.09-4.85-30.49,2.44-38.68,2.57-2.91,4.59-1.06,6.12,1a22.62,22.62,0,0,0,10,7.49c-3.63-22.39,14.51-23.7,27.84-27.74,21.19-6.43,43-10.77,64.67-15.71,4.54-1,10.71-2.84,8.41,6.36-.66,2.62,2.52,3.48,4.29,4.56,3.85,2.3,7.58,5.88,6.54,9.73-1.26,4.63-5.36,7.93-11,9.15-18.5,4.07-37.7,4.07-56.3,8a74,74,0,0,0-24,9C53.88,562.25,48.2,563.76,41.79,558.63Zm103.49-28a35.92,35.92,0,0,0-3.61-4c-2.58-2.1-6.53-3.36-7.77-6-2.56-5.45-6-4.28-10.1-3-13.6,4.14-27.53,7-41.32,10.35-11.56,2.82-23.35,5.93-33.36,13-4.25,3-6.62,7.33-3.46,12.26s7.6,3.45,11.77,1c6.5-3.82,12.84-8,20.39-9.39,12.33-2.18,24.54-5,37.24-5,8.81-.1,17.59-2.36,26.1-5C143,534.12,144.83,533.42,145.28,530.66ZM42,574.63c-.39-6.41-1.68-11.38-5.42-14.25s-10.09-6.73-12.83-2.2c-3.11,5.14-5.05,12.46-1.92,19.17C24.1,582.19,26.65,588,33,586.62S41.08,578.81,42,574.63Z"/><path class="cls-1" d="M153.59,763.63a108.08,108.08,0,0,1-67.28-36c-6.83-7.66-15.14-14-20-23.37-2-3.87-5.57-8-2-12.19,4.46-5.25,11.36-5.94,17.61-6,4.85-.09,7.35,4.17,8.28,8.9.2,1,.2,2.4.84,3,15.76,14.41,27.72,33.82,51.08,37.64a53.13,53.13,0,0,0,33.09-4.42c3-1.48,5.82-3.37,8.91-4.53,6.93-2.65,10-.15,8.92,7.08C191,748,171.29,764.58,153.59,763.63Zm33.12-31.43c-2-1.26-3.18.48-4.47,1.24-25,14.7-58.87,9-77.8-13.29C99,713.76,93.9,707.1,87,702.22c-4.17-2.92-5-6.49-2.07-10.69-3.36-1.69-6.07-.26-8.69.42-9.2,2.33-9.51,3.36-4.16,11.48a23,23,0,0,0,1.43,2.07c20.3,24.88,44.1,44.49,76.43,51.61,17.68,3.85,35.83-10.3,36.82-25Z"/><path class="cls-1" d="M156.37,653.48c-15.61-1.45-31.67-7.35-46.26-16-11.87-7.07-24-14.26-33.64-24.63s-10.66-19.93-3.85-31.75c2.36-4.12,6.43-4.71,10.77-4.39,9.75.74,18,7.26,20.75,18.67,2.31,9.59,8.68,14.56,16.52,18.5,20.76,10.43,42.45,11.44,64.72,5.94,8.53-2.11,12.77,1.53,12.25,10.38-.69,11.48-10.75,20.42-25.37,22.25C167.59,653,162.83,653.07,156.37,653.48ZM83.25,583.42c-3.72-1.23-6.29,1.68-8.41,5.18-3.56,5.65-1.53,15,5.59,20.76,22.52,18.28,45.83,35.57,76.14,37.74,11,.79,22.3-.43,31.74-7.67,4-3.07,5.55-7.38,3.82-11.85-1.82-4.75-6.44-2.76-9.59-1.86a82.63,82.63,0,0,1-47.9-.55c-16.18-5-32.75-10.19-36.69-30.63C96.54,587.86,91.83,583.47,83.25,583.42Z"/><path class="cls-1" d="M355.54,679.3c-1.1,14.5-10.1,24.82-19,35.12-17.09,19.71-39,29.79-64.66,32.78-10.51,1.23-17.84-3-23.41-11-1.83-2.64-3.21-5.72-5-8.49s-2.59-5.37-.5-8.53c2.47-3.75,5.31-1.88,8.09-1,22.62,7.23,43.45,3.14,62.57-10.3a27.1,27.1,0,0,0,12.06-18.82c1.68-11,9.66-17.84,18.18-23.8,4.51-3.16,10.1,0,11.59,6.55A33.59,33.59,0,0,1,355.54,679.3Zm-106,45.92c4.64,11.57,11.08,17.52,19.22,16.33,11.78-1.68,23.94-3.21,34.59-8.65,18.5-9.4,32.53-24,43.34-41.59,2.86-4.68,5-10.1,3.8-15.9-.95-4.3-3.12-7.2-7.35-3.21-4.79,4.51-9.74,9-11.11,16.1-3,15.55-13.34,24.81-26.92,31.67-17.67,8.9-36.11,7.62-55.54,5.25Z"/><path class="cls-1" d="M141.7,698c-19.12-2.92-38.2-9.4-52.6-25.88a45.89,45.89,0,0,0-8.57-7.6,24.34,24.34,0,0,1-11.44-21.74c.1-7.13,2.56-9.23,9.17-6.51a114,114,0,0,1,26.86,16.59c19.66,15.52,41.24,22.57,66.19,15.51a24,24,0,0,1,5.7-1.21c4.71-.19,10.21-2.91,13.79,1.68,2.76,3.51-1.68,14.18-6.81,17.54a50.73,50.73,0,0,1-16,7C159.82,695.34,151.83,697.75,141.7,698Zm-1.5-6.72a78.24,78.24,0,0,0,38-8.68c3.8-1.94,9.33-4.49,7-9.71-1.93-4.29-6.73-.54-9.72.39-29.32,9.13-54.5,1.46-77.09-17.95a61.54,61.54,0,0,0-12-8.83c-3.63-1.82-9.1-5.92-11.77-2.52-3.06,3.93,1.38,9,4.68,12.09,8,7.62,16.48,14.8,24.91,22,11.37,9.62,25.48,11.37,36,13.11Z"/><path class="cls-1" d="M254.82,639.25c-7.81-1.26-18-1.13-26.14-8.29-4.63-4.06-3.1-9.15-1.53-13,1.68-4.15,5.92-2.54,10.09-1.68,21.23,4.25,41,.52,57.78-13.86,5-4.36,7.73-10.48,2.13-16.92a8.73,8.73,0,0,1-1.38-2.11c-2.33-5.23-9.26-10.37.85-15.35,8.84-4.36,18.72-3,22.9,4.2,7.84,13.46,6.87,28.77-3.78,39.87A84.64,84.64,0,0,1,254.82,639.25ZM239.44,622c-2.64,1.48-6.91-2.32-7.94,2.2s4,4.22,6.73,5.55c22.89,10.95,62.37-5.3,74.72-23.55,8.11-12,8.54-20.55,1.36-30.54a9.85,9.85,0,0,0-13.59-3.11c-.14.08-.27.17-.4.26-5.22,3.18,0,6.83,1.83,9.71,6.16,9.35,4,20-5.8,26.63-17.21,11.55-35.7,18.11-56.84,12.85Z"/><path class="cls-1" d="M345.65,625.57c-1.21,13.54-10.23,24-23.18,31.37a198.7,198.7,0,0,1-52.83,20.19c-11.17,2.67-25-3.11-31.84-12.18-3.15-4.17-1.28-9-3-13.36-1-2.38,3.16-2.5,5.15-2,17.61,4.25,34.53-1.06,51.3-4.53,11-2.27,19.43-10.51,26.37-19.47a48.93,48.93,0,0,1,12.27-11.22c3.36-2.14,7.13-5.35,11.58-2.86S345.49,619,345.65,625.57Zm-87.47,31.12c-4-.18-7.11-.34-10.17-.45-1.42,0-3.18,0-2.68,2,1.25,5.05,1.87,10.4,8.93,11.52,5.89,1,11.62,1.89,17.41.31,15.59-4.29,31-9.2,45.31-16.82,10.77-5.72,19.94-12.94,22.71-25.84.78-3.62,2.24-7.7-.45-10.34-3.55-3.47-5.5,1.93-8.41,3-2.36.85-3.65,3.36-5.44,5-5.41,5.13-9.18,11.61-15.3,16.25-15.86,11.94-34.63,12.57-52,15.34Z"/><path class="cls-1" d="M280.37,804.15c-14.33-.3-25.5-.15-36.07-4.86-4.37-1.95-7.78-4.15-8.09-9.45s3.5-7.05,7-9.39c6.88-4.67,14.31-4.55,22.32-4,14.7,1,29.57,1.69,43-6.64a41.21,41.21,0,0,0,13.78-13.1,19.59,19.59,0,0,1,17.29-9.88c8,0,12.41,5.69,9.69,13.17-6.41,17.61-19,29.66-35.32,38A59.56,59.56,0,0,1,280.37,804.15ZM277,782.76c-10.83,0-18.63-.19-26.42,0-4.31.13-8,2.79-8.41,6.84-.44,3.72,4.05,3.75,6.73,4.73,9.13,3.25,18.73,2,28.09,3,27.28,3,51.82-10,65.22-34.17,1.8-3.25,2.91-6.82.86-9.27-2.67-3.21-6.73-1.35-9.94.32-4.4,2.25-6.61,6.62-9.64,10.24-13.05,15.58-30.19,20.08-46.55,18.32Z"/><path class="cls-1" d="M136.77,814.23C117.9,812,99.94,799,84.38,782.14a9.4,9.4,0,0,1-1.46-11.56c2.33-4,5.73-4.89,9.67-5.05,1.46-.08,3.85-.77,4,1.69.41,7.11,6.88,7.78,11.1,9.63,19,8.41,38.52,14.52,59.46,5.87,3.2-1.31,7.44-1.76,10.3,1.27,3.11,3.36,1.8,7,.32,10.81C172.75,807.5,159.33,815,136.77,814.23ZM87.22,771.62c-1.8,5.89,2,8.72,4.79,11.34a119.65,119.65,0,0,0,29.41,19.76c11.77,5.82,23.66,6,35.74,2.83,6.32-1.68,12.7-4.41,15.14-11.57.55-1.68,2.62-3.05.67-5.22s-3.5-.43-5.23,0c-6.91,1.82-13.46,4.46-21.09,3.89C125,791,105.12,784.86,87.22,771.62Z"/><path class="cls-1" d="M19.13,915.37c8.51,0,13.14,5,15.91,11.77,11,26.68,22.22,53.26,37.21,78,3.23,5.34,5,11.78,10.78,15.38,1.68,1,2.68,2.12,1.3,4s-2.69.67-4.16-.34c-5.28-3.68-7.62-9.5-10.63-14.71C55.3,984.65,41.3,959.74,32,932.49c-1.68-4.93-4.58-12.75-10.78-10.09-4.7,2-.76,9,.4,14,5.05,22.08,9.62,44.3,14.31,66.49.41,1.88.17,3.83,1.89,5.33,2.1,1.83,2.32,4.2-.34,5.41-3.36,1.52-4-1.14-4.88-3.76-3.16-9.56-3.55-19.63-5.87-29.32-3.73-15.66-7.42-31.3-11.59-46.81-1.19-4.46-.65-8.87-1.31-13.27C13.23,916.33,14.52,913.69,19.13,915.37Z"/><path class="cls-1" d="M195.68,478.5c.5,5.28-.27,8.71-2.69,10.34s-5.17-.7-7.51-2.18c-9.8-6.23-20.43-11.27-28.46-20.07-3.59-3.92-4.69-7.35.17-11.2,4-3.18,7.52-9.83,12.45-8.41,11.32,3.18,21.28,9.33,24.42,22.13C195,472.83,195.37,476.72,195.68,478.5Zm-5.42,3.72c1.55-16.94-8.51-29-22.89-28.08-3.36.24-5.84,1-7.47,4.21-2.12,4.15,1.68,6.14,3.5,7.47C171.88,471.94,180.22,478.41,190.26,482.22Z"/><path class="cls-1" d="M194.11,869.84a29.78,29.78,0,0,1-5.4-.61c-6.72-1.68-7.33-4.32-2.5-9.47a25.24,25.24,0,0,1,10.88-7.55c1.48-.46,3.73-.72,3.94-2.66,1-9.47,8.73-6,13.69-6.73,6.24-.75,10.21,3.7,12.78,8.95,2.34,4.73,1.15,8.41-3.92,10.8A79.19,79.19,0,0,1,194.11,869.84ZM190,864.22c10.63-.32,19.89-1.52,28.76-5.05,2.34-.91,6.42-1.68,5-5.26-2.05-5.3-6.86-6.73-12.38-6.24s-2.17,3.48-1.86,5.72c.4,2.8.54,5.55-2.86,6.72-1.82-1.49.6-5.85-2.37-5.24C199.13,855.91,193.88,857.91,190,864.22Z"/><path class="cls-1" d="M52,903.24c0,13-4.58,17.17-14.25,14.47-7.74-2.17-15.14-5.35-22.78-8.08-1.54-.55-4.28-1-3.93-2.49,1.08-4.47,3.36-8.68,4.47-13.15,1.25-4.73,2.41-7.57,8.7-7.27,5.55.27,10.76-5,17.09-.32C47.93,891.33,52.82,896.75,52,903.24Zm-14.59,8.63c9.59.3,11.37-1.68,10.4-9.34-1.4-11.06-10.36-15.39-18.79-8.91-1.68,1.29-2.46.34-3.36-.42-1.82-1.38-3.65-3.47-4.81.47-1.15,3.58-4.85,8.63-1.49,10.82a51,51,0,0,0,18.05,7.31Z"/><path class="cls-1" d="M177.87,497.77c-.14,7.83-3.37,10.63-10.94,8.41-11.5-3.36-22.77-7.4-28.39-19.52-1.36-2.93-2.84-5.77.42-8.18,2.37-1.68,4.64-3.62,8.21-1.34,5,3.23,11.22,2.55,16.82,3.95C171.61,483,178,490.56,177.87,497.77Zm-35.75-15.49c4.63,11.37,13.46,15.06,23,17.38,2.22.54,4.87,3.28,6.72.33,1.35-2.25.63-5.14-.69-7.88a10.67,10.67,0,0,0-7.7-5.77C156.72,484.67,149.89,483.73,142.12,482.28Z"/><path class="cls-1" d="M200.13,816.06c-4.2,2.58-7.45-.7-11-1.68-4-1.06-4.54-4.19-3.25-7.25,3.06-7.23,7.27-13.66,15.14-16.63,4.26-1.69,17.9,5.76,19.61,10.59,1.85,5.15-2.81,11.64-10.09,13.78C207.1,815.86,203.67,817.07,200.13,816.06Zm-.23-3.5c6.09-1.68,14-1.59,15.52-8.09,1.17-5-6.22-5.68-10.19-7.77a2.47,2.47,0,0,0-.81-.2c-3.11-.39-13.67,7.69-13.3,10.77.64,5.28,6,3.19,8.78,5.29Z"/><path class="cls-1" d="M269.64,307.32c-3.67-1.68-1.57-4.71-3.55-6.91-2.56,2.42-.52,5.6-1.55,8a5.17,5.17,0,0,1-2.69,2.75c-1,.34-2-.9-1.89-2.15a290.51,290.51,0,0,1,3.37-30.86c2.05,6.22,1.34,12.44.25,18.77,4-5.22,3.21-12,6.88-17.33C271.13,288.92,268.58,298,269.64,307.32Z"/><path class="cls-1" d="M110.16,330.35c-1.68-17.5,10.18-26.19,22.66-33.64,16.82-9.95,32-3.84,46.34,15.35,8.9,11.89,5.8,41.75-.27,51.81a9.55,9.55,0,0,1-4.36,3.68c-25.68,10.31-54.83,2.91-63.17-26.61A44,44,0,0,1,110.16,330.35ZM124,349.15c4-3.36,2.77-6.34,2.92-8.88a178.94,178.94,0,0,1,5-30.5c.69-2.84,2.25-3.53,4.81-3.22s1.9,2.33,1.68,3.76c-2,12.21-3.6,24.46-4.44,37-3.56-6-.91-12.94-2.81-19.28-1.21,5.67-2.74,11.49-2,17,.85,6.29-2.25,5.87-6.59,4.77a17.14,17.14,0,0,0,1,3.06c9,14.13,37.54,18.83,50.46,8.23a9.66,9.66,0,0,0,2.44-4.22C184.36,334,182,317,161.11,301.73c-6.32-4.6-21.86-4.18-28.09.53-1.07.8-2.5,1.81-2.74,3-2.83,14.11-6.56,28.12-6.26,43.93Zm-5.67-1.95h2.47q2.81-19.21,5.5-38.47c-5.47,12.4-5.65,25.6-8,38.47Zm2-31.69c-5.85,7.72-6.54,12.31-2.79,23.55,1.81-9.39,1-16.67,2.81-23.55Z"/><path class="cls-1" d="M245.84,398.38c-9.12,2.12-12.5-3.88-14.49-11.08s-2.6-15.05-7.5-20.89c-3.36-4.09.56-6.17,1.35-8.68.94-3.08,5-3.85,7.94-2.42,9.62,4.67,19.86,8.29,27.61,16.38,4.63,4.83,7.73,10.09,5.05,16.38a15.81,15.81,0,0,1-15.69,10.31C248.76,398.35,247.37,398.38,245.84,398.38Zm0-4.86c1.68-.22,3.36-.38,4.92-.65,4.92-.79,9.15-2.81,10.43-8,1.2-4.85-2.76-7.24-5.55-10.33C250,368.22,242.19,366,235,362.61c-1.59-.76-3.28-1.5-4.64-.46-2,1.53-.59,3.37.1,5.22,2.71,7.16,5.4,14.33,7.79,21.61,1.33,3.94,3.77,5.15,7.6,4.61Z"/><path class="cls-1" d="M125,931.45a61.91,61.91,0,0,1,26,8.8c10.09,6.44,18.38,15.3,27.48,23.07,2.38,2,4.6,4.83,3.37,7.91-1.4,3.68-4.85,1.44-7.32,1-12.51-2.19-25-4.86-37.52-6.83-10.53-1.68-18.14-9.47-28-12.63-1.89-.61-3.27-6.6-2.83-9.83a12,12,0,0,1,8.24-9.6A66.66,66.66,0,0,1,125,931.45Zm6,14.38c-4.15,4.93-9.82.5-12.87,4.63,15.68,14,35.46,12.07,55.51,16.13C167.52,960.77,163,956,158,951.77c-7.64-6.63-16-12.25-26.12-14.23-5.93-1.18-12.15-2.31-17.7,1.86-1.68,1.32-3,2.68-2.07,4.83s2.26,2.21,4.68,1.8C121,945.29,125.4,945.83,131,945.83Z"/><path class="cls-1" d="M299.29,934.75c-10.09-1.1-18.65,2.43-25.92,9.26-2.09,2-5.33,3.37-3.95,7.45.77,2.27-1.15,2.73-3,2.66-2.44-.1-3.78-1.43-3.14-3.78a15.83,15.83,0,0,1,2.76-6c9.28-11.15,20.42-18,35.74-15,6.27,1.25,12.73.64,19.07,2.34,4,1.08,5,2.86,4.68,6.33-1.21,13.8-6,25.23-22.84,26.42-15.48,1.16-29.94-3.28-44.95-3.92-2.92-.12-5-1.85-4.39-4.84s3.52-1.92,5.5-1.69c13.83,2,27.24,6.58,41.65,4.93,12.55-1.43,16.59-4.37,19.26-16.57.84-3.88-.47-5.19-3.82-5.63Z"/><path class="cls-1" d="M144.34,328.78c-1.11,6.39-2,11.78-2.94,17.06l-2.34-.31c1.85-12.36,2.19-24.91,6.64-37.18.37,3.58,5.88,4.44,4.41,8.41-3.36,9.08,1.57,19.36-4.27,29.45C143.38,340,147.17,334.72,144.34,328.78Z"/><path class="cls-1" d="M157,314.74l-2.12,20.18-2.1-.17c-1.28-6.88,1.68-13.45,1.06-20.3Z"/></g></g><g id="Lager_2-3" data-name="Lager 2"><g id="skeleton_with_bird-2" data-name="skeleton with bird"><path class="cls-2" d="M179.56,159.81c3.36,9.56,4.72,17.06,17.89,17.85,24.71,1.48,45.54,13.67,62.76,31.43,12.28,12.65,18,28.5,20.44,45.55.87,6-.32,12.13,3.07,17.85,1.2,2,.85,4.78-1.91,7.27-4.43,4-7.55,1-11.56-.76-3.65,8.41-2.42,17.36-4.37,25.95-2.44-6.72-.69-13.45-.09-20.18.49-5.55-1.68-8.31-6.94-8.8s-10.85,4.8-11.78,10.19a249.19,249.19,0,0,0-2.67,32.74c-5.05-10.73-.72-21.87-.72-32.68-2.44-.36-2.88.85-2.81,2.4.47,10.85-2.05,21.73.33,32.55.47,2.18,0,4.47-2,4.76-3.25.47-2.16-2.61-2.12-4.17.23-10-1.1-20,1.27-30.16-3.19,1.53-4.1,3.82-4.81,6.73-1.81,7.45-1.31,15-1.68,22.5-.3,6.46,2.89,10.77,7.92,13.63,14.74,8.41,30,10.76,45.25,1.51,6.49-4,7.74-2.3,9.76,4.46,3.66,12.31,6.25,24.79,14.28,36,6.12,8.57,7.35,20.73,10.49,31.37,2.52,8.54,5.77,17,4.8,26.18-.37,3.37-.14,7.78-5.05,8.52-9.05,1.36-4.69,5.38-1.68,8.69,2.4,2.64,5.73,4.48,7.94,7.22,1,1.26,2.84,4.15,0,5.8-2,1.14-3.37,0-4.66-2a17.6,17.6,0,0,0-5.15-5.37c-3.36-2.2-6.37-2.91-6.44,2.91,0,5.05-2.12,9.44-7.17,11.1s-7.21-2.74-9.85-5.93c-1.48-1.79-2.8-5.28-5.71-3.57-2.38,1.38-3.14,4.56-2.37,7.55a43.89,43.89,0,0,1,1.48,4.73c.63,4.52-.7,8.88-4.82,10.66s-7.37-1.09-9.68-4.64a15.16,15.16,0,0,0-2.05-2.67c-2.4-2.34-3.36-7.56-8.07-5.62-5.05,2.05-.57,5.63-.62,8.54,0,3.62-.51,7-4.06,9.46-4.07,2.84-7.23.79-10.86-.71s-7.05-7.35-9.32-4.78c-3.57,4.07,4.07,4.36,5.21,7.44,1,2.69,2.63,4.94-1.11,7.79-5.2,4-4.17,8.3,2.1,10.09,20.46,5.83,60.56,4.59,77.38-18.27,6.51-8.83,7.4-12,1.14-20.67-.87-1.23-1.68-2.47-.22-3.52,1.06-.7,2.88-1.41,3.79-1,4.34,2.08,7.84,4.42,7,10.63-2.66,19.43-16,29.82-32.16,36.3-16.82,6.72-35,6.72-52.94,3.86-13.07-2.1-16.82-8.56-11.95-20.4,1-2.39,0-3.53-1.08-5.18-2.49-3.8-5.35-8-1.13-12.06s7.69.44,11.3,2c1.79.79,3.37,1.92,5.19,2.76,2.08,1,4.59,1.85,6.12-.29s.77-4.83-.51-7.13c-2-3.55-3.76-.37-5.43.3-5.87,2.39-9.45-1.12-12.83-4.84a49.73,49.73,0,0,1-4.19-6.38c-2.24,1.35-1.43,3-1.13,4.43,1.68,7.8-3.46,13.45-11.17,11-10.56-3.22-21.46-4.72-27.92-16.95-9.64-18.28-28-25.36-47.2-30-20.67-5.05-40.7-12-53.53-30.13-14.86-21-30.18-42.3-34.1-68.55s-1.18-52.15,10.26-76.54c6.46-13.72,11.59-28,20.61-40.67,13.86-19.46,32.78-30.27,55.07-36.11,4.89-1.28,6.49-2.15,5.44-7.89-2-11.05-3.19-22.22-6.56-33.05-.89-2.89-2.4-3.72-4.54-5.05-16.26-9.62-30-21.56-37.54-39.73A38.44,38.44,0,0,1,98,74c1.69-9-3.28-14.26-8.41-19.33C78,43.25,62.93,37.34,48.36,30.82c-2.66-1.2-5.65-1.85-4.61-5.64.89-3.24,4-2.77,6.33-2.6,10.83.82,21.64,1.68,32.43,3,3.71.42,5.55.67,7-4.11A34.17,34.17,0,0,1,98.87,7.84c4.27-4,9.86-6.29,15.81-2.17a12,12,0,0,0,3.82,1.68c16,4,25.15,24,22.34,38.35-2,10.35,3.36,13.46,10.93,17.11,17.34,8.29,33.88,18,47.74,31.67,6.72,6.61,10.09,15.14,13.77,23.42,3,6.57,7.23,10.9,14.45,12.53,12.73,2.91,25.23,7.13,38.54,2.22,4.69-1.68,4.74,2.4,3.6,5.45-4.88,13-14.57,21.44-27.46,25.65C221.56,170.56,201.12,166.3,179.56,159.81Zm-25.52,27c-6.07,7.55-6.15,7.61-11.08,1.41-1.4-1.68-2.32-.49-3.37-.14-18.85,5.92-35.18,15.44-46.22,32.37-17.51,26.79-31.17,55.08-32.7,87.81-.65,14-.32,27.76,5.2,41.18s13.46,25.82,20.42,38.69c10.51,19.37,26.26,32,47.33,37.34,25,6.47,49.57,13,64.74,37.08,4.06,6.41,12.2,9.32,19.72,11.48,2.57.74,6.08,1.68,7.46-1.69,1-2.37-.65-4.74-3.19-6a11.74,11.74,0,0,1-2.07-1.43c-4.83-3.78-3.23-6.27,1.68-8.16,6.24-2.4,12.28.15,15.61,7,2,4,4.37,7.23,9.23,7.32a7.07,7.07,0,0,0,6.45-4.63c1.19-3.75-3-5.57-5.25-7.79s-5.52-4.59-3.67-8.41a9.86,9.86,0,0,1,8.5-6c5.33,0,10.58,1.18,13,7.14a68,68,0,0,0,4,8.31c2,3.51,5,3,7.87,1.17s1.48-4.13,0-6.22c-1.3-1.68-2.42-3.7-3.8-5.4-2.41-2.94-4.44-6.21-2.22-9.82a10.34,10.34,0,0,1,10.78-5.05c6.54.88,11.77,3.48,13.56,10.48,1.29,5,4.66,6.73,9.45,5.63a4.81,4.81,0,0,0,4-5.55,4.25,4.25,0,0,0-.22-.85c-1.4-3.37-1-9.52-7.35-8-4,.91-3.87-1.91-5-3.9a4,4,0,0,1,.68-5.2c2.08-2.33,4.24-2,6.64-1.34,3.5,1,5.38,3.92,7.34,6.56s3.73,4.91,6.72,3.36c2.49-1.34,1.32-4.37.76-6.73-3.67-15.52-6.32-31.33-14.82-45.29-7-11.49-9.69-24.63-13.69-37.24-1.48-4.66-3.89-5.69-8-3.37-16.82,9.69-32.24,3.65-47.1-5-4.27-2.48-6.62-6.73-8.59-11.78-5.05-12.83-1.23-24.61,4.74-35,7.27-12.67,17.07-22.85,34.68-20.44,5,.69,7.59,5.84,12.4,5.18-3-22.84-3.06-46.36-21-63.48-20.69-19.75-38.08-28-60.77-29.53a30.86,30.86,0,0,0,10.52,4.44c3.08.52,3.81,3.21,2.9,5.9-1.23,3.57-3.59,1.09-5.49.67-2.6-.6-3.91-4.07-7.38-3.36,1.58,5.18,11.59,6.42,6.46,14.78-3.16-2.65-6-5.3-9.08-7.53-1.94-1.38-4.39-2.17-4.58,1.68-.2,4.47-.62,11.22-5.73,9.81-5.81-1.69-.58-7.61,0-11.46,1.9-11.77-1.8-16.6-13.61-16.28-1.36,0-2.73.18-4.29.29,1.51,4.12,5.55,4.67,8.22,6.87s2.88,5.44,1,7.36c-2.29,2.3-3.47-.91-5.05-2.43a14.72,14.72,0,0,0-8.86-5c-.17,5.82,7.62,10.48.4,16.82Zm-2.42-41.58C153.44,154.73,155,163.9,157,173c.4,1.79.77,5.73,3.36,4.94,5.23-1.56,11.25,1.68,16.33-2.57C169.85,163.92,167,149.82,151.62,145.25ZM277.13,441.16C277.8,455.11,294,454,299,464c.67,1.33,4.37,1,5-2.05.49-2.09,1.21-4.73-2.44-4.75-5.78,0-7.85-4.1-9.84-8.58C288.87,442,284.11,438.82,277.13,441.16Zm-13.29,20.27c-1.16-3.11-1.68-6.73-3.65-9.18-2.28-2.73-6-4-9.25-.57-.84.9,9.3,13.91,10.58,13.45,1.6-.52,3-1.56,2.32-3.7Zm4.46,6.73c4.56,3.36,4.07,10,10.48,9.57,2.39-.17,1.13-2.07,1.06-3.72-.29-7.1-4.51-7.25-11.54-5.9Z"/><path class="cls-2" d="M102.66,910.09A32.53,32.53,0,0,1,118,912.4c17.22,6.61,35.32,7.25,53.23,9.31a36,36,0,0,0,10-.65c3.24-.52,5.55-1,4.71-6.17-1.47-9,10.29-18.34,19.37-16.72,5.64,1,3.06,5.26,3.08,8,0,10.71.15,10.54,10.92,8.76,23.31-3.85,46.64-7.87,70.12-10.43,13.12-1.43,26.44-1.06,39.48,3.65,21.16,7.65,29.47,27.18,18.5,46.69-7.23,12.9-15.54,24.83-30.85,29.56A57,57,0,0,1,304.94,986c-20.86,2.08-36.87,12.75-49.46,28.71-4.47,5.65-9.26,11-13.72,16.58-7.67,9.66-16.82,9.34-26.91,5.87-15.14-5.19-29-11.62-41.45-23.06-16.08-14.83-36.58-22.85-58.87-25-25.55-2.43-47-20.34-53-43.9-2.91-10.92-1.48-14.92,7.45-21.65C78.77,915.84,89.22,909.71,102.66,910.09Zm89.14.49c1.57,1.4,2.17.57,3.06-.18,2.36-2,4.07.33,3,1.68-4.29,5.16-4.64,14.48-14.5,14.09-3.88-.17-7.8.79-11.77.74a208.44,208.44,0,0,1-57.27-9.38c-18.22-5.45-32.77,1.88-45.74,13.72-3.23,3-3.58,7.07-2.29,11.61C73.05,966.52,89.57,978.6,113,982.1s45.42,10.55,62.76,26.56c13.46,12.5,28.8,19.21,46.14,23.18a14.78,14.78,0,0,0,13.84-3.37c6.27-5.21,10.77-11.94,15.68-18.36,11.87-15.56,27.09-27.25,46.66-29.41,20.62-2.27,35.32-10.93,44.86-29.28,8.07-15.42,3.12-29.67-12.67-36.21-9.47-3.92-19.21-4.56-29.12-5.05-16.06-.93-31.43,3.7-47.09,5.74-13.19,1.68-26.44,2.59-39.34,6.72-9.51,3-12.87-.5-13-10.22,0-2.44,2.14-6.53-1.68-7.19-3.51-.72-6.56,1.92-8.21,5.34Z"/><path class="cls-2" d="M415.86,894.8c9.2,0,17.3,7,21.1,19.7,8.63,29,19,57.36,29.18,85.78a336.41,336.41,0,0,0,16.57,36.87c3.53,7,1.12,9.2-5.47,10.6a16.86,16.86,0,0,1-13.46-3.16c-8.25-5.91-15.13-12.6-18.75-23.17-11.59-33.77-22.14-67.81-31.3-102.31-.66-2.46-.37-5.57-4.17-6.18-1.84-.3-2.39-2-2-3.95,2.48-11.91-2-20-13-25.23s-11-19.39-2-30.56c4.19-5.25,8.77-12,18-8.6,11.57,4.26,19.73,13.93,20.19,24.06s-6.56,13.91-14.18,17.34c-3.08,1.4-9.31.28-5.79,7.25C412.06,896.28,414,895.26,415.86,894.8Zm57.7,146.78c6.81-1.52,2.08-6.58.67-9.84a1039.54,1039.54,0,0,1-38.69-104.39c-2.42-7.7-4.89-15.47-10.09-21.87-2-2.54-5.21-5.35-8.68-3.6s-.52,5-.13,7.49a62.59,62.59,0,0,0,1.43,6.49c9.65,37,19.85,73.67,34.31,109.11C455.09,1031.48,466.31,1041.39,473.56,1041.58ZM425.7,867.77c0-8.27-10.88-18.38-19.51-18.21-6,.11-15.76,12.59-15.24,19.63.22,3.09,1.69,4.82,4.9,3.23,6.41-3.18,8.41.5,9.38,5.83.44,2.39,1.18,4.44,3.86,4.73C416.05,883.72,425.75,874.77,425.7,867.77Z"/><path class="cls-2" d="M38.55,827.14c-1.31,13.18,2.48,26.15,1.69,39.32-.64,12-8.3,17.41-19.13,13.81-6-2-7.9-6.53-7.69-12.23.43-11.47.53-23,1.84-34.36,1.85-16,0-31.86-2.31-47.47-3.26-21.75-4.44-43.73-7.57-65.48A500.5,500.5,0,0,1,.44,626.54c.22-4.76.82-9.37,3.5-13.46,1-1.48,2.17-2.61,4.14-1.6a5.74,5.74,0,0,1,3.66,4.26c.29,3-1.81,1.56-3.36,1.68-2.05.14-3,1.38-1.38,3.21a77.63,77.63,0,0,1,20.05,55.83C26.43,699,30.41,721.39,33,743.74c1.18,10,1.23,20,1.69,30C35.58,791.58,40.34,809.17,38.55,827.14ZM6.7,628.1c-2.49,2-1.69,3.79-1.69,5.33-.11,33.51.88,67,7.12,100,1.68,9.16.66,18.26,2.35,27.38a353.44,353.44,0,0,1,5.3,77c-.33,9.41-1.31,18.85-1.44,28.32,0,3.79.82,6.73,4.54,8,2.74.93,5.63,3,8.56.37,4-3.6,6.1-8.24,5.05-13.46a42.14,42.14,0,0,1-1.23-10.73c1-25.58-3.15-50.81-5.52-76.14-.87-9.2-.17-18.5-1.45-27.55-4.08-29-5.18-58.18-6.46-87.37C21.21,646.57,13.42,637.76,6.7,628.1Z"/><path class="cls-2" d="M377.85,753.88a516.16,516.16,0,0,0-8.53-71.18c-4.17-23.21-10.59-46-12.66-69.6a10.1,10.1,0,0,1-.2-2.51c.38-3.09-5.44-6.24-1.13-8.68,4.59-2.57,2.56,4.34,5,5.05,11.78,3.51,12.92,14.53,15.39,23.55,3.62,13.18,10.23,25.23,13.31,38.55,5.37,23.23,9.67,46.68,14.75,69.94a306.71,306.71,0,0,1,6,50.46c.77,15.76.5,31.67-4.51,47-.84,2.6-1.68,5.55-5.13,5.9s-4.53-2.52-6.06-4.79c-8.26-12.2-8.81-26.8-11.77-40.46C379.38,783,379.25,768.3,377.85,753.88ZM361.6,615.74c1.3,8.66,1.94,17.48,4,26,6.56,27,10.37,54.53,14.58,82,3.58,23.45,1.68,47.44,6.73,70.75,2.65,12.43,3.92,25.23,10,36.79.78,1.49,1.23,3.58,3.13,3.49,2.29-.1,1.85-2.3,2-3.91.76-7.74,1.77-15.45,2.24-23.2,1.68-27.4-1.85-54.33-7.58-81.06-5.4-25.23-8.53-51-18.51-75C373,639.59,371.21,626.32,361.6,615.74Z"/><path class="cls-2" d="M325.39,554.31c1.68-11.35,5.33-12.53,15.57-5.4,4.8,3.37,10.1,6,14.86,9.35,7.36,5.29,9.23,11.78,5.7,18.84-2.41,4.78-5.7,8.23-11.78,6.73s-12.56-2.5-18.65-4.41c-3.8-1.19-7.08-4-6.41-8.67.94-6.48-2.34-7.41-7.95-9.32-19.43-6.63-39.38-11.51-58.87-17.73-23.55-7.49-47.67-12.6-71.61-18.5-2.3-.58-5,.52-7.42.35-7.21-.47-9.77-5-6.72-11.14.89-1.68,2.28-3,3.78-2,11,7,23.67,5.47,35.58,7.08,28,3.79,56.33,5.69,83.83,12.48,11.25,2.79,23.43,6.34,26.91,20.4A2.81,2.81,0,0,0,325.39,554.31Zm-8.11.41c-1.33-9.61-5.53-13.24-17-16.25-20-5.25-40.37-7.5-60.8-10.28-7.49-1-15-2.19-22.46-3.28a13.4,13.4,0,0,1-.18,1.4Zm32.9,24.22a6.58,6.58,0,0,0,6.88-3.94,8.41,8.41,0,0,0-.72-9.33c-3.74-5.3-9.74-7.09-14.8-10.3-3.67-2.32-8-5.33-11.44,0-3.74,5.77-2.64,16.07,2,18a178.52,178.52,0,0,0,18.1,5.59Z"/><path class="cls-2" d="M30.83,562.12c5,8.66,5.84,16.7,1.32,25.63-3,5.87-8,8-13.31,8.86-4.59.74-6.73-4-8.9-7.65-6.07-10.09-4.84-30.49,2.44-38.68,2.58-2.91,4.59-1.06,6.12,1a22.71,22.71,0,0,0,10,7.48C24.83,536.36,43,535.05,56.3,531c21.19-6.43,43-10.77,64.67-15.71,4.54-1,10.72-2.85,8.41,6.35-.65,2.63,2.53,3.49,4.29,4.56,3.85,2.31,7.59,5.89,6.55,9.74-1.27,4.63-5.37,7.92-11,9.15-18.5,4.07-37.69,4.07-56.3,8a74.59,74.59,0,0,0-24.05,9C42.93,565.73,37.24,567.25,30.83,562.12Zm103.5-28a35,35,0,0,0-3.62-4c-2.57-2.1-6.52-3.37-7.77-6.06-2.56-5.45-6-4.27-10.09-3-13.61,4.14-27.54,7-41.33,10.34-11.55,2.83-23.34,5.94-33.35,13-4.26,3-6.63,7.33-3.47,12.26s7.61,3.45,11.78,1c6.49-3.82,12.83-8,20.38-9.39,12.33-2.19,24.54-5,37.24-5,8.82-.1,17.6-2.35,26.11-5C132.07,537.61,133.87,536.9,134.33,534.14Zm-103.28,44c-.38-6.41-1.68-11.37-5.41-14.24s-10.1-6.73-12.84-2.21c-3.11,5.15-5,12.47-1.92,19.18,2.26,4.84,4.82,10.64,11.17,9.27S30.13,582.3,31.05,578.11Z"/><path class="cls-2" d="M142.64,767.12a108,108,0,0,1-67.28-36c-6.83-7.65-15.14-14-20-23.36-2-3.87-5.57-8-2-12.2,4.45-5.24,11.35-5.93,17.61-6,4.84-.09,7.35,4.17,8.27,8.89.2,1,.2,2.41.84,3,15.76,14.42,27.72,33.83,51.09,37.65a53,53,0,0,0,33.08-4.43c3-1.48,5.82-3.36,8.92-4.52,6.93-2.66,10-.15,8.91,7.08C180.05,751.48,160.33,768.06,142.64,767.12Zm33.12-31.44c-1.95-1.26-3.18.49-4.48,1.25-25,14.7-58.87,9-77.79-13.29-5.42-6.39-10.55-13-17.49-17.93-4.18-2.93-5-6.49-2.07-10.7-3.37-1.68-6.08-.25-8.7.42-9.2,2.34-9.5,3.37-4.15,11.49A19.53,19.53,0,0,0,62.51,709c20.3,24.88,44.1,44.49,76.43,51.6,17.67,3.86,35.82-10.29,36.82-24.94Z"/><path class="cls-2" d="M145.41,657c-15.61-1.45-31.67-7.35-46.25-16-11.88-7.07-24-14.27-33.64-24.63s-10.67-19.93-3.85-31.76c2.35-4.12,6.42-4.7,10.76-4.39,9.76.74,18,7.27,20.76,18.68,2.3,9.58,8.68,14.56,16.51,18.5,20.76,10.43,42.46,11.43,64.73,5.93,8.53-2.1,12.76,1.54,12.24,10.38-.69,11.49-10.75,20.42-25.36,22.26C156.63,656.49,151.87,656.56,145.41,657ZM72.3,586.91c-3.72-1.23-6.3,1.68-8.41,5.18-3.57,5.65-1.54,15,5.58,20.76,22.52,18.28,45.83,35.57,76.14,37.74,11,.79,22.31-.44,31.74-7.67,4-3.08,5.55-7.38,3.82-11.86-1.81-4.74-6.44-2.76-9.59-1.85a82.63,82.63,0,0,1-47.9-.55c-16.18-5-32.75-10.2-36.68-30.63C85.58,591.35,80.87,587,72.3,586.91Z"/><path class="cls-2" d="M344.58,682.78c-1.09,14.5-10.09,24.83-19,35.13-17.09,19.71-38.95,29.78-64.65,32.78-10.52,1.23-17.85-3.05-23.42-11-1.83-2.64-3.21-5.72-5-8.49s-2.59-5.37-.51-8.53c2.48-3.75,5.32-1.89,8.09-1,22.63,7.23,43.45,3.14,62.57-10.3a27.09,27.09,0,0,0,12.06-18.82c1.69-11,9.66-17.85,18.19-23.8,4.5-3.16,10.09,0,11.59,6.54A34.2,34.2,0,0,1,344.58,682.78Zm-106,45.92c4.65,11.58,11.09,17.53,19.23,16.34,11.77-1.69,23.93-3.22,34.58-8.65,18.5-9.4,32.53-24,43.35-41.6,2.86-4.67,5-10.09,3.8-15.89-1-4.31-3.13-7.2-7.35-3.21-4.8,4.5-9.74,9-11.12,16.09-3,15.56-13.34,24.81-26.91,31.68-17.68,8.89-36.12,7.62-55.54,5.24Z"/><path class="cls-2" d="M130.75,701.52c-19.13-2.92-38.2-9.4-52.6-25.88A46.37,46.37,0,0,0,69.57,668,24.33,24.33,0,0,1,58.13,646.3c.1-7.13,2.56-9.23,9.17-6.51a113.7,113.7,0,0,1,26.86,16.59c19.66,15.52,41.24,22.57,66.19,15.51a24.15,24.15,0,0,1,5.7-1.22c4.71-.18,10.21-2.91,13.79,1.69,2.76,3.51-1.68,14.18-6.81,17.54a50.77,50.77,0,0,1-16,7C148.86,698.83,140.87,701.24,130.75,701.52Zm-1.5-6.73a78,78,0,0,0,38-8.68c3.8-1.93,9.34-4.49,7-9.7-1.94-4.29-6.73-.54-9.73.39-29.31,9.13-54.49,1.46-77.08-17.95a61.43,61.43,0,0,0-12-8.83c-3.64-1.82-9.1-5.92-11.78-2.52-3.06,3.93,1.38,8.94,4.68,12.09,8,7.62,16.48,14.8,24.91,22,11.37,9.62,25.48,11.37,36,13.1Z"/><path class="cls-2" d="M243.86,642.74c-7.8-1.27-18-1.13-26.14-8.3-4.62-4.05-3.09-9.15-1.53-13,1.68-4.16,5.92-2.54,10.09-1.68,21.23,4.25,41,.52,57.78-13.86,5.05-4.36,7.74-10.48,2.14-16.93a8.39,8.39,0,0,1-1.38-2.1c-2.34-5.23-9.27-10.38.84-15.35,8.85-4.36,18.72-3,22.91,4.2,7.84,13.46,6.86,28.76-3.79,39.86A84.65,84.65,0,0,1,243.86,642.74Zm-15.37-17.3c-2.64,1.48-6.92-2.32-7.94,2.21s4,4.22,6.73,5.55c22.89,10.95,62.37-5.3,74.71-23.55,8.11-12,8.55-20.55,1.36-30.55A9.85,9.85,0,0,0,289.77,576l-.41.27c-5.21,3.18,0,6.83,1.83,9.71,6.16,9.35,4,20-5.8,26.62-17.21,11.56-35.69,18.12-56.84,12.85Z"/><path class="cls-2" d="M334.69,629.06c-1.21,13.54-10.23,24-23.18,31.37a198.68,198.68,0,0,1-52.83,20.18c-11.17,2.68-25-3.11-31.84-12.17-3.15-4.17-1.28-9-3-13.36-1-2.39,3.16-2.5,5.14-2,17.61,4.25,34.53-1.06,51.3-4.53,11-2.27,19.43-10.51,26.38-19.48a49,49,0,0,1,12.26-11.21c3.36-2.14,7.13-5.35,11.59-2.86S334.54,622.47,334.69,629.06Zm-87.46,31.12c-4-.19-7.12-.34-10.18-.46-1.41,0-3.18,0-2.68,2,1.25,5,1.87,10.39,8.94,11.52,5.88.94,11.62,1.89,17.4.3,15.6-4.29,31-9.2,45.32-16.82,10.76-5.72,19.93-12.93,22.71-25.83.77-3.62,2.23-7.71-.46-10.35-3.55-3.46-5.5,1.94-8.41,3-2.35.86-3.65,3.37-5.43,5.05-5.42,5.13-9.19,11.61-15.31,16.25-15.86,11.94-34.63,12.56-52,15.34Z"/><path class="cls-2" d="M269.41,807.64c-14.33-.3-25.5-.15-36.06-4.86-4.37-1.95-7.79-4.15-8.09-9.45s3.5-7.05,7-9.39c6.88-4.67,14.32-4.56,22.32-4,14.7,1,29.57,1.68,43-6.64a41.12,41.12,0,0,0,13.77-13.11,19.6,19.6,0,0,1,17.29-9.87c8,0,12.42,5.69,9.69,13.17-6.41,17.61-19,29.65-35.32,38A59.55,59.55,0,0,1,269.41,807.64Zm-3.36-21.39c-10.84,0-18.64-.19-26.43,0-4.3.13-8,2.79-8.41,6.84-.43,3.72,4.06,3.75,6.73,4.73,9.13,3.24,18.74,2,28.09,3,27.28,3,51.82-10,65.23-34.18,1.8-3.24,2.91-6.81.86-9.26-2.68-3.22-6.73-1.35-9.94.31-4.41,2.26-6.61,6.63-9.64,10.25C299.49,783.5,282.35,788,266,786.25Z"/><path class="cls-2" d="M125.82,817.72c-18.88-2.22-36.84-15.28-52.4-32.1A9.39,9.39,0,0,1,72,774.07c2.34-4,5.73-4.9,9.67-5.05,1.46-.08,3.85-.77,4,1.68.4,7.12,6.88,7.79,11.1,9.64,19,8.41,38.52,14.52,59.46,5.87,3.19-1.31,7.43-1.76,10.29,1.26,3.11,3.37,1.8,7,.32,10.82C161.8,811,148.37,818.51,125.82,817.72ZM76.26,775.11c-1.79,5.89,2,8.71,4.8,11.34a119.41,119.41,0,0,0,29.4,19.76c11.77,5.82,23.67,6,35.74,2.83,6.33-1.69,12.7-4.41,15.14-11.58.56-1.68,2.63-3,.67-5.21s-3.49-.44-5.23,0c-6.91,1.82-13.45,4.46-21.09,3.89C114.08,794.49,94.16,788.35,76.26,775.11Z"/><path class="cls-2" d="M8.18,918.86c8.51,0,13.13,5,15.91,11.77,11,26.68,22.22,53.25,37.2,78,3.23,5.33,5.05,11.78,10.79,15.38,1.68,1,2.67,2.11,1.29,4s-2.69.67-4.15-.34c-5.28-3.68-7.62-9.5-10.63-14.72C44.34,988.14,30.35,963.23,21.06,936c-1.68-4.93-4.57-12.75-10.78-10.09-4.69,2-.76,9,.4,14C15.73,962,20.3,984.17,25,1006.35c.4,1.89.17,3.84,1.88,5.34,2.1,1.83,2.32,4.2-.34,5.41-3.36,1.52-4-1.14-4.87-3.77-3.17-9.55-3.55-19.62-5.87-29.31-3.74-15.66-7.42-31.31-11.59-46.81-1.2-4.46-.66-8.87-1.31-13.27C2.27,919.81,3.57,917.17,8.18,918.86Z"/><path class="cls-2" d="M184.72,482c.51,5.28-.27,8.71-2.69,10.34s-5.16-.71-7.5-2.19c-9.81-6.22-20.44-11.27-28.46-20.06-3.6-3.92-4.69-7.35.17-11.21,4-3.17,7.52-9.82,12.44-8.41C170,453.64,180,459.8,183.11,472.6,184,476.32,184.42,480.2,184.72,482Zm-5.41,3.71c1.54-16.94-8.52-29-22.9-28.07-3.36.24-5.83,1-7.47,4.2-2.11,4.16,1.69,6.14,3.5,7.47C160.92,475.43,169.26,481.9,179.31,485.7Z"/><path class="cls-2" d="M183.16,873.32a28.81,28.81,0,0,1-5.4-.6c-6.73-1.68-7.34-4.32-2.51-9.47a25.24,25.24,0,0,1,10.88-7.55c1.48-.46,3.74-.73,3.94-2.66,1-9.47,8.73-6.06,13.69-6.73,6.24-.76,10.21,3.7,12.79,9,2.33,4.73,1.14,8.41-3.92,10.8A79.22,79.22,0,0,1,183.16,873.32ZM179,867.71c10.63-.32,19.9-1.52,28.76-5.05,2.34-.91,6.43-1.68,5.05-5.27-2.05-5.29-6.86-6.72-12.38-6.24s-2.17,3.49-1.87,5.72c.4,2.81.54,5.55-2.86,6.73-1.81-1.5.61-5.85-2.37-5.25C188.17,859.4,182.92,861.4,179,867.71Z"/><path class="cls-2" d="M41,906.73c0,13-4.58,17.17-14.25,14.46C19,919,11.63,915.84,4,913.12c-1.55-.56-4.29-1-3.94-2.49,1.08-4.47,3.37-8.68,4.48-13.15,1.24-4.73,2.4-7.57,8.69-7.27,5.55.27,10.77-5.05,17.09-.32C37,894.82,41.87,900.24,41,906.73Zm-14.58,8.63c9.58.3,11.37-1.68,10.39-9.34C35.43,895,26.46,890.63,18,897.11c-1.68,1.29-2.45.33-3.36-.42-1.82-1.38-3.65-3.47-4.81.47C8.72,900.74,5,905.79,8.38,908a51,51,0,0,0,18,7.32Z"/><path class="cls-2" d="M166.91,501.26c-.14,7.82-3.37,10.63-10.93,8.41-11.51-3.36-22.78-7.4-28.4-19.53-1.36-2.92-2.84-5.77.42-8.17,2.38-1.68,4.65-3.62,8.21-1.35,5,3.23,11.22,2.56,16.82,4C160.65,486.48,167,494.05,166.91,501.26Zm-35.74-15.49c4.62,11.37,13.45,15.05,23,17.38,2.22.53,4.88,3.28,6.73.33,1.34-2.25.62-5.15-.69-7.89a10.73,10.73,0,0,0-7.71-5.77C145.77,488.16,138.94,487.22,131.17,485.77Z"/><path class="cls-2" d="M189.18,819.55c-4.21,2.57-7.45-.71-11-1.68-4-1.06-4.54-4.19-3.24-7.25C178,803.39,182.18,797,190.05,794c4.26-1.68,17.9,5.77,19.62,10.6,1.85,5.15-2.81,11.64-10.1,13.78C196.14,819.35,192.71,820.56,189.18,819.55Zm-.24-3.5c6.09-1.68,14-1.6,15.53-8.09,1.16-5.05-6.23-5.68-10.19-7.77a2.53,2.53,0,0,0-.81-.2c-3.11-.39-13.68,7.68-13.31,10.76.64,5.28,6.06,3.2,8.78,5.3Z"/><path class="cls-2" d="M258.68,310.81c-3.67-1.69-1.56-4.71-3.55-6.92-2.56,2.43-.52,5.6-1.55,8a5.19,5.19,0,0,1-2.69,2.76c-1,.34-2-.91-1.88-2.15a290.68,290.68,0,0,1,3.36-30.87c2,6.23,1.35,12.45.25,18.78,4-5.22,3.22-12,6.88-17.33C260.18,292.41,257.62,301.5,258.68,310.81Z"/><path class="cls-2" d="M99.21,333.83c-1.68-17.49,10.17-26.19,22.65-33.64,16.82-9.94,32-3.83,46.34,15.36,8.9,11.89,5.81,41.75-.27,51.81a9.58,9.58,0,0,1-4.35,3.68c-25.69,10.31-54.84,2.91-63.18-26.61A43.47,43.47,0,0,1,99.21,333.83Zm13.84,18.81c4-3.37,2.78-6.34,2.93-8.88a177.94,177.94,0,0,1,5-30.5c.69-2.84,2.26-3.53,4.81-3.23s1.9,2.34,1.69,3.77c-2,12.21-3.6,24.46-4.44,37-3.57-6-.91-12.93-2.81-19.27-1.21,5.67-2.75,11.49-2,17,.84,6.29-2.26,5.87-6.6,4.78a17.14,17.14,0,0,0,1,3.06c9,14.13,37.55,18.82,50.46,8.23a9.52,9.52,0,0,0,2.44-4.22c7.84-22.91,5.45-39.94-15.4-55.16-6.33-4.61-21.87-4.19-28.09.52-1.08.81-2.51,1.82-2.75,3-2.82,14.12-6.56,28.13-6.25,43.94Zm-5.67-1.95h2.47q2.82-19.21,5.51-38.47c-5.47,12.4-5.66,25.6-8,38.47Zm2-31.69c-5.85,7.72-6.54,12.31-2.79,23.55,1.82-9.39,1-16.67,2.81-23.55Z"/><path class="cls-2" d="M234.88,401.87c-9.12,2.12-12.5-3.88-14.48-11.08s-2.61-15.06-7.5-20.89c-3.37-4.09.55-6.18,1.34-8.68.94-3.08,5-3.86,7.94-2.43,9.62,4.68,19.86,8.3,27.62,16.39,4.62,4.82,7.72,10.09,5,16.38a15.82,15.82,0,0,1-15.69,10.31C237.81,401.84,236.41,401.87,234.88,401.87Zm0-4.86c1.68-.22,3.36-.39,4.93-.66,4.91-.79,9.15-2.81,10.43-8,1.19-4.84-2.76-7.23-5.55-10.32-5.66-6.28-13.46-8.5-20.64-11.9-1.6-.75-3.28-1.49-4.65-.45-2,1.53-.58,3.36.11,5.21,2.7,7.17,5.39,14.34,7.78,21.62,1.33,3.93,3.77,5.15,7.61,4.61Z"/><path class="cls-2" d="M114,934.94a62,62,0,0,1,26,8.79c10.1,6.44,18.39,15.31,27.49,23.08,2.37,2,4.59,4.83,3.36,7.91-1.39,3.68-4.84,1.44-7.32,1-12.51-2.18-25-4.86-37.52-6.82-10.53-1.69-18.13-9.47-28-12.64-1.88-.6-3.26-6.59-2.83-9.82a12,12,0,0,1,8.25-9.6A65.36,65.36,0,0,1,114,934.94Zm6,14.38c-4.15,4.93-9.82.5-12.86,4.62,15.67,14,35.45,12.08,55.5,16.13-6.09-5.82-10.64-10.54-15.59-14.82-7.64-6.62-16-12.24-26.12-14.23-5.92-1.17-12.14-2.3-17.7,1.87-1.68,1.31-3,2.68-2.06,4.83s2.25,2.2,4.67,1.8C110.06,948.78,114.45,949.32,120,949.32Z"/><path class="cls-2" d="M288.33,938.23c-10.09-1.09-18.65,2.44-25.92,9.27-2.08,2-5.33,3.36-4,7.45.77,2.27-1.14,2.73-3,2.66-2.44-.1-3.79-1.43-3.15-3.79a16,16,0,0,1,2.76-6c9.28-11.16,20.42-18,35.74-15,6.28,1.24,12.74.64,19.08,2.34,4,1.07,5,2.86,4.67,6.32-1.21,13.81-6,25.23-22.84,26.43-15.47,1.16-29.94-3.28-44.94-3.92-2.93-.12-5-1.85-4.39-4.85s3.51-1.91,5.5-1.68c13.82,2,27.23,6.58,41.64,4.93,12.55-1.43,16.59-4.37,19.26-16.57.84-3.88-.47-5.2-3.81-5.63C299.37,939.54,293.88,938.91,288.33,938.23Z"/><path class="cls-2" d="M133.39,332.27c-1.11,6.39-2,11.77-2.95,17.05l-2.34-.3c1.85-12.36,2.19-24.91,6.65-37.19.37,3.59,5.87,4.44,4.41,8.41-3.37,9.09,1.56,19.36-4.28,29.45C132.43,343.44,136.21,338.21,133.39,332.27Z"/><path class="cls-2" d="M146,318.22l-2.12,20.19-2.1-.17c-1.28-6.88,1.68-13.46,1.06-20.3Z"/></g></g></g></g></svg>